{
.appVersion = "1342";
copyright = "Copyright 2020 FKxGF Schoolbook Project Authors (https://github.com/floriankarsten/fk-gf-schoolbook)";
customParameters = (
{
name = vendorID;
value = FK;
},
{
name = licenseURL;
value = "https://scripts.sil.org/OFL";
},
{
name = license;
value = "This Font Software is licensed under the SIL Open Font License, Version 1.1. This license is available with a FAQ at: https://scripts.sil.org/OFL";
},
{
name = Axes;
value = (
{
Name = Weight;
Tag = wght;
},
{
Name = "Optical size";
Tag = opsz;
}
);
},
{
name = "Use Typo Metrics";
value = 1;
},
{
name = glyphOrder;
value = (
A,
B,
C,
D,
E,
F,
G,
H,
I,
J,
K,
L,
M,
N,
O,
P,
Q,
R,
S,
T,
U,
V,
W,
X,
Y,
Z,
a,
b,
c,
d,
e,
f,
g,
h,
idotless,
idotless.ss01,
jdotless,
k,
l,
l.ss01,
m,
n,
o,
p,
q,
r,
s,
t,
u,
v,
w,
x,
y,
z
);
}
);
date = "2020-11-17 11:47:13 +0000";
designer = "Florian Karsten";
designerURL = "https://fonts.floriankarsten.com";
familyName = "Montagu Slab";
featurePrefixes = (
{
automatic = 1;
code = "languagesystem DFLT dflt;\012\012languagesystem latn dflt;\012languagesystem latn AZE;\012languagesystem latn CRT;\012languagesystem latn KAZ;\012languagesystem latn TAT;\012languagesystem latn TRK;\012";
name = Languagesystems;
}
);
features = (
{
automatic = 1;
code = "feature locl;\012feature salt;\012feature ss01;\012";
name = aalt;
},
{
automatic = 1;

glyphs = (
{
glyphname = A;
lastChange = "2020-11-16 21:05:47 +0000";
layers = (
{
anchors = (
{
name = bottom;
position = "{845, 0}";
},
{
name = ogonek;
position = "{1521, 10}";
},
{
name = top;
position = "{845, 1500}";
}
);
hints = (
{
origin = "{0, 0}";
scale = "{-1.3, 1}";
type = Corner;
name = _corner.Serif;
options = 1;
},
{
origin = "{0, 3}";
scale = "{1.3, 1}";
type = Corner;
name = _corner.Serif;
},
{
origin = "{0, 4}";
scale = "{-0.76, 1}";
type = Corner;
name = _corner.Serif;
options = 1;
},
{
origin = "{0, 7}";
scale = "{0.76, 1}";
type = Corner;
name = _corner.Serif;
}
);
layerId = "CA54B7DC-FBBB-40FE-ACF3-AABDD76D6A7B";
paths = (
{
closed = 1;
nodes = (
"232 0 LINE",
"851 1453 LINE",
"834 1453 LINE",
"1454 0 LINE",
"1506 0 LINE",
"864 1500 LINE",
"826 1500 LINE",
"184 0 LINE"
);
},
{
closed = 1;
nodes = (
"1252 560 LINE",
"436 560 LINE",
"436 516 LINE",
"1252 516 LINE"
);
}
);
width = 1690;
},
{
anchors = (
{
name = bottom;
position = "{827, 0}";
},
{
name = ogonek;
position = "{1489, 10}";
},
{
name = top;
position = "{827, 1500}";
}
);
hints = (
{
origin = "{0, 7}";
scale = "{0.76, 1}";
type = Corner;
name = _corner.Serif;
},
{
origin = "{0, 0}";
scale = "{-1.3, 1}";
type = Corner;
name = _corner.Serif;
options = 1;
},
{
origin = "{0, 3}";
scale = "{1.3, 1}";
type = Corner;
name = _corner.Serif;
},
{
origin = "{0, 4}";
scale = "{-0.76, 1}";
type = Corner;
name = _corner.Serif;
options = 1;
}
);
layerId = "1E61A082-F045-49A7-AB52-DD1B03FD9B54";
paths = (
{
closed = 1;
nodes = (
"240 0 LINE",
"831 1453 LINE",
"814 1453 LINE",
"1405 0 LINE",
"1457 0 LINE",
"845 1500 LINE",
"809 1500 LINE",
"197 0 LINE"
);
},
{
closed = 1;
nodes = (
"1213 558 LINE",
"437 558 LINE",
"437 520 LINE",
"1213 520 LINE"
);
}
);
width = 1654;
},
{
anchors = (
{
name = bottom;
position = "{912, 0}";
},
{
name = ogonek;
position = "{1642, 10}";
},
{
name = top;
position = "{912, 1500}";
}
);
hints = (
{
origin = "{0, 0}";
scale = "{-1.7, 1}";
type = Corner;
name = _corner.Serif;
options = 1;
},
{
origin = "{0, 3}";
scale = "{1.7, 1}";
type = Corner;
name = _corner.Serif;
},
{
origin = "{0, 4}";
scale = "{-0.6, 1}";
type = Corner;
name = _corner.Serif;
options = 1;
},
{
origin = "{0, 7}";
scale = "{0.6, 1}";
type = Corner;
name = _corner.Serif;
}
);
layerId = "219068EA-2B9B-40DC-949E-B60449C01B8A";
paths = (
{
closed = 1;
nodes = (
"364 0 LINE",
"895 1269 LINE",
"764 1270 LINE",
"1281 0 LINE",
"1742 0 LINE",
"1106 1500 LINE",
"718 1500 LINE",
"82 0 LINE"
);
},
{
closed = 1;
nodes = (
"1184 649 LINE",
"486 649 LINE",
"486 425 LINE",
"1184 425 LINE"
);
}
);
width = 1824;
},
{
anchors = (
{
name = bottom;
position = "{882, 0}";
},
{
name = ogonek;
position = "{1587, 10}";
},
{
name = top;
position = "{882, 1500}";
}
);
hints = (
{
origin = "{0, 7}";
scale = "{0.6, 1}";
type = Corner;
name = _corner.Serif;
},
{
origin = "{0, 0}";
scale = "{-1.7, 1}";
type = Corner;
name = _corner.Serif;
options = 1;
},
{
origin = "{0, 3}";
scale = "{1.7, 1}";
type = Corner;
name = _corner.Serif;
},
{
origin = "{0, 4}";
scale = "{-0.6, 1}";
type = Corner;
name = _corner.Serif;
options = 1;
}
);
layerId = "0C29AA02-E021-4BD1-A2C4-87F681D64C35";
paths = (
{
closed = 1;
nodes = (
"333 0 LINE",
"849 1269 LINE",
"710 1270 LINE",
"1216 0 LINE",
"1672 0 LINE",
"1056 1500 LINE",
"707 1500 LINE",
"91 0 LINE"
);
},
{
closed = 1;
nodes = (
"1134 641 LINE",
"436 641 LINE",
"436 433 LINE",
"1134 433 LINE"
);
}
);
width = 1763;
}
);
leftKerningGroup = A;
rightKerningGroup = A;
unicode = 0041;
},
{
glyphname = B;
lastChange = "2020-11-16 21:34:03 +0000";
layers = (
{
anchors = (
{
name = bottom;
position = "{769, 0}";
},
{
name = top;
position = "{769, 1500}";
}
);
hints = (
{
origin = "{2, 1}";
scale = "{-1.08, 1}";
type = Corner;
name = _corner.Serif;
},
{
origin = "{2, 2}";
scale = "{1.1, 1}";
type = Corner;
name = _corner.Serif;
options = 1;
}
);
layerId = "CA54B7DC-FBBB-40FE-ACF3-AABDD76D6A7B";
paths = (
{
closed = 1;
nodes = (
"358 1456 LINE",
"904 1456 LINE SMOOTH",
"1152 1456 OFFCURVE",
"1308 1343 OFFCURVE",
"1308 1121 CURVE SMOOTH",
"1308 899 OFFCURVE",
"1152 785 OFFCURVE",
"904 785 CURVE SMOOTH",
"358 785 LINE",
"358 756 LINE",
"916 755 LINE SMOOTH",
"1190 754 OFFCURVE",
"1356 880 OFFCURVE",
"1356 1121 CURVE SMOOTH",
"1356 1371 OFFCURVE",
"1180 1500 OFFCURVE",
"916 1500 CURVE SMOOTH",
"358 1500 LINE"
);
},
{
closed = 1;
nodes = (
"358 741 LINE",
"948 741 LINE SMOOTH",
"1204 741 OFFCURVE",
"1364 622 OFFCURVE",
"1364 392 CURVE SMOOTH",
"1364 162 OFFCURVE",
"1204 44 OFFCURVE",
"948 44 CURVE SMOOTH",
"358 44 LINE",
"358 0 LINE",
"960 0 LINE SMOOTH",
"1232 0 OFFCURVE",
"1412 133 OFFCURVE",
"1412 391 CURVE SMOOTH",
"1412 646 OFFCURVE",
"1241 773 OFFCURVE",
"960 773 CURVE SMOOTH",
"358 773 LINE"
);
},
{
closed = 1;
nodes = (
"358 1500 LINE",
"310 1500 LINE",
"310 0 LINE",
"358 0 LINE"
);
}
);
width = 1538;
},
{
anchors = (
{
name = bottom;
position = "{730, 0}";
},
{
name = top;
position = "{730, 1500}";
}
);
hints = (
{
origin = "{2, 1}";
scale = "{-1.08, 1}";
type = Corner;
name = _corner.Serif;
},
{
origin = "{2, 2}";
scale = "{1.1, 1}";
type = Corner;
name = _corner.Serif;
options = 1;
}
);
layerId = "1E61A082-F045-49A7-AB52-DD1B03FD9B54";
paths = (
{
closed = 1;
nodes = (
"347 1462 LINE",
"853 1462 LINE SMOOTH",
"1101 1462 OFFCURVE",
"1257 1347 OFFCURVE",
"1257 1122 CURVE SMOOTH",
"1257 897 OFFCURVE",
"1101 781 OFFCURVE",
"853 781 CURVE SMOOTH",
"347 781 LINE",
"347 758 LINE",
"865 757 LINE SMOOTH",
"1139 756 OFFCURVE",
"1305 881 OFFCURVE",
"1305 1121 CURVE SMOOTH",
"1305 1371 OFFCURVE",
"1129 1500 OFFCURVE",
"865 1500 CURVE SMOOTH",
"347 1500 LINE"
);
},
{
closed = 1;
nodes = (
"347 743 LINE",
"897 743 LINE SMOOTH",
"1153 743 OFFCURVE",
"1313 623 OFFCURVE",
"1313 390 CURVE SMOOTH",
"1313 157 OFFCURVE",
"1153 38 OFFCURVE",
"897 38 CURVE SMOOTH",
"347 38 LINE",
"347 0 LINE",
"909 0 LINE SMOOTH",
"1181 0 OFFCURVE",
"1361 133 OFFCURVE",
"1361 391 CURVE SMOOTH",
"1361 643 OFFCURVE",
"1190 769 OFFCURVE",
"909 769 CURVE SMOOTH",
"347 769 LINE"
);
},
{
closed = 1;
nodes = (
"347 1500 LINE",
"299 1500 LINE",
"299 0 LINE",
"347 0 LINE"
);
}
);
width = 1459;
},
{
anchors = (
{
name = bottom;
position = "{829, 0}";
},
{
name = top;
position = "{829, 1500}";
}
);
hints = (
{
origin = "{2, 1}";
scale = "{-1.08, 1}";
type = Corner;
name = _corner.Serif;
},
{
origin = "{2, 2}";
scale = "{1.1, 1}";
type = Corner;
name = _corner.Serif;
options = 1;
}
);
layerId = "219068EA-2B9B-40DC-949E-B60449C01B8A";
paths = (
{
closed = 1;
nodes = (
"647 1276 LINE",
"871 1276 LINE SMOOTH",
"1010 1276 OFFCURVE",
"1094 1209 OFFCURVE",
"1094 1076 CURVE SMOOTH",
"1094 943 OFFCURVE",
"1010 877 OFFCURVE",
"871 877 CURVE SMOOTH",
"647 877 LINE",
"647 754 LINE",
"1000 754 LINE SMOOTH",
"1312 754 OFFCURVE",
"1524 865 OFFCURVE",
"1524 1118 CURVE SMOOTH",
"1524 1380 OFFCURVE",
"1312 1500 OFFCURVE",
"1000 1500 CURVE SMOOTH",
"647 1500 LINE"
);
},
{
closed = 1;
nodes = (
"647 653 LINE",
"938 653 LINE SMOOTH",
"1085 653 OFFCURVE",
"1178 579 OFFCURVE",
"1178 439 CURVE SMOOTH",
"1178 299 OFFCURVE",
"1085 224 OFFCURVE",
"938 224 CURVE SMOOTH",
"647 224 LINE",
"647 0 LINE",
"1076 0 LINE SMOOTH",
"1398 0 OFFCURVE",
"1608 128 OFFCURVE",
"1608 408 CURVE SMOOTH",
"1608 679 OFFCURVE",
"1398 790 OFFCURVE",
"1076 791 CURVE SMOOTH",
"647 792 LINE"
);
},
{
closed = 1;
nodes = (
"647 1500 LINE",
"227 1500 LINE",
"227 0 LINE",
"647 0 LINE"
);
}
);
width = 1658;
},
{
anchors = (
{
name = bottom;
position = "{791, 0}";
},
{
name = top;
position = "{791, 1500}";
}
);
hints = (
{
origin = "{2, 1}";
scale = "{-1.08, 1}";
type = Corner;
name = _corner.Serif;
},
{
origin = "{2, 2}";
scale = "{1.1, 1}";
type = Corner;
name = _corner.Serif;
options = 1;
}
);
layerId = "0C29AA02-E021-4BD1-A2C4-87F681D64C35";
paths = (
{
closed = 1;
nodes = (
"644 1294 LINE",
"779 1294 LINE SMOOTH",
"924 1294 OFFCURVE",
"1011 1223 OFFCURVE",
"1011 1081 CURVE SMOOTH",
"1011 939 OFFCURVE",
"924 868 OFFCURVE",
"779 868 CURVE SMOOTH",
"644 868 LINE",
"644 764 LINE",
"917 764 LINE SMOOTH",
"1229 764 OFFCURVE",
"1441 878 OFFCURVE",
"1441 1128 CURVE SMOOTH",
"1441 1383 OFFCURVE",
"1229 1500 OFFCURVE",
"917 1500 CURVE SMOOTH",
"644 1500 LINE"
);
},
{
closed = 1;
nodes = (
"644 662 LINE",
"846 662 LINE SMOOTH",
"998 662 OFFCURVE",
"1095 582 OFFCURVE",
"1095 434 CURVE SMOOTH",
"1095 286 OFFCURVE",
"998 206 OFFCURVE",
"846 206 CURVE SMOOTH",
"644 206 LINE",
"644 0 LINE",
"993 0 LINE SMOOTH",
"1315 0 OFFCURVE",
"1525 125 OFFCURVE",
"1525 398 CURVE SMOOTH",
"1525 666 OFFCURVE",
"1315 778 OFFCURVE",
"993 778 CURVE SMOOTH",
"644 778 LINE"
);
},
{
closed = 1;
nodes = (
"644 1500 LINE",
"224 1500 LINE",
"224 0 LINE",
"644 0 LINE"
);
}
);
width = 1571;
}
);
leftKerningGroup = I;
leftMetricsKey = H;
rightKerningGroup = B;
unicode = 0042;
},
{
glyphname = C;
lastChange = "2020-11-16 21:32:07 +0000";
layers = (
{
anchors = (
{
name = bottom;
position = "{862, 0}";
},
{
name = top;
position = "{900, 1500}";
}
);
layerId = "CA54B7DC-FBBB-40FE-ACF3-AABDD76D6A7B";
paths = (
{
closed = 1;
nodes = (
"1543 980 LINE",
"1533 1303 OFFCURVE",
"1290 1524 OFFCURVE",
"880 1524 CURVE SMOOTH",
"463 1524 OFFCURVE",
"138 1239 OFFCURVE",
"138 750 CURVE SMOOTH",
"138 261 OFFCURVE",
"467 -24 OFFCURVE",
"890 -24 CURVE SMOOTH",
"1325 -24 OFFCURVE",
"1558 243 OFFCURVE",
"1566 548 CURVE",
"1522 548 LINE",
"1509 264 OFFCURVE",
"1296 20 OFFCURVE",
"890 20 CURVE SMOOTH",
"493 20 OFFCURVE",
"186 306 OFFCURVE",
"186 750 CURVE SMOOTH",
"186 1194 OFFCURVE",
"489 1480 OFFCURVE",
"880 1480 CURVE SMOOTH",
"1299 1480 OFFCURVE",
"1489 1239 OFFCURVE",
"1512 980 CURVE"
);
},
{
closed = 1;
nodes = (
"1512 1500 LINE",
"1512 1054 LINE",
"1543 980 LINE",
"1556 980 LINE",
"1556 1500 LINE"
);
}
);
width = 1724;
},
{
anchors = (
{
name = bottom;
position = "{806, 0}";
},
{
name = top;
position = "{848, 1500}";
}
);
layerId = "1E61A082-F045-49A7-AB52-DD1B03FD9B54";
paths = (
{
closed = 1;
nodes = (
"1432 940 LINE",
"1423 1287 OFFCURVE",
"1200 1524 OFFCURVE",
"824 1524 CURVE SMOOTH",
"435 1524 OFFCURVE",
"132 1239 OFFCURVE",
"132 750 CURVE SMOOTH",
"132 261 OFFCURVE",
"439 -24 OFFCURVE",
"834 -24 CURVE SMOOTH",
"1237 -24 OFFCURVE",
"1452 262 OFFCURVE",
"1460 588 CURVE",
"1420 588 LINE",
"1408 279 OFFCURVE",
"1210 14 OFFCURVE",
"834 14 CURVE SMOOTH",
"465 14 OFFCURVE",
"180 302 OFFCURVE",
"180 750 CURVE SMOOTH",
"180 1198 OFFCURVE",
"461 1486 OFFCURVE",
"824 1486 CURVE SMOOTH",
"1210 1486 OFFCURVE",
"1385 1223 OFFCURVE",
"1406 940 CURVE"
);
},
{
closed = 1;
nodes = (
"1410 1500 LINE",
"1410 994 LINE",
"1432 940 LINE",
"1450 940 LINE",
"1450 1500 LINE"
);
}
);
width = 1610;
},
{
anchors = (
{
name = bottom;
position = "{849, 0}";
},
{
name = top;
position = "{881, 1500}";
}
);
layerId = "219068EA-2B9B-40DC-949E-B60449C01B8A";
paths = (
{
closed = 1;
nodes = (
"1486 983 LINE",
"1470 1317 OFFCURVE",
"1224 1522 OFFCURVE",
"849 1522 CURVE SMOOTH",
"406 1522 OFFCURVE",
"64 1230 OFFCURVE",
"64 750 CURVE SMOOTH",
"64 270 OFFCURVE",
"406 -22 OFFCURVE",
"889 -22 CURVE SMOOTH",
"1390 -22 OFFCURVE",
"1600 274 OFFCURVE",
"1617 603 CURVE",
"1375 603 LINE",
"1349 418 OFFCURVE",
"1228 272 OFFCURVE",
"981 272 CURVE SMOOTH",
"710 272 OFFCURVE",
"534 468 OFFCURVE",
"534 772 CURVE SMOOTH",
"534 1070 OFFCURVE",
"692 1268 OFFCURVE",
"969 1268 CURVE SMOOTH",
"1222 1268 OFFCURVE",
"1328 1115 OFFCURVE",
"1349 983 CURVE"
);
},
{
closed = 1;
nodes = (
"1355 1500 LINE",
"1355 1164 LINE",
"1486 983 LINE",
"1599 983 LINE",
"1599 1500 LINE"
);
}
);
width = 1701;
},
{
anchors = (
{
name = bottom;
position = "{790, 0}";
},
{
name = top;
position = "{809, 1500}";
}
);
layerId = "0C29AA02-E021-4BD1-A2C4-87F681D64C35";
paths = (
{
closed = 1;
nodes = (
"1386 915 LINE",
"1382 1297 OFFCURVE",
"1182 1522 OFFCURVE",
"779 1522 CURVE SMOOTH",
"362 1522 OFFCURVE",
"38 1238 OFFCURVE",
"38 750 CURVE SMOOTH",
"38 262 OFFCURVE",
"367 -22 OFFCURVE",
"837 -22 CURVE SMOOTH",
"1298 -22 OFFCURVE",
"1499 280 OFFCURVE",
"1511 663 CURVE",
"1323 663 LINE",
"1296 438 OFFCURVE",
"1178 262 OFFCURVE",
"925 262 CURVE SMOOTH",
"670 262 OFFCURVE",
"508 468 OFFCURVE",
"508 772 CURVE SMOOTH",
"508 1082 OFFCURVE",
"667 1288 OFFCURVE",
"925 1288 CURVE SMOOTH",
"1183 1288 OFFCURVE",
"1292 1114 OFFCURVE",
"1305 915 CURVE"
);
},
{
closed = 1;
nodes = (
"1283 1500 LINE",
"1283 1164 LINE",
"1386 915 LINE",
"1499 915 LINE",
"1499 1500 LINE"
);
}
);
width = 1599;
}
);
leftKerningGroup = O;
leftMetricsKey = O;
rightKerningGroup = C;
unicode = 0043;
},
{
glyphname = D;
lastChange = "2020-12-06 20:37:23 +0000";
layers = (
{
anchors = (
{
name = bottom;
position = "{790, 0}";
},
{
name = center;
position = "{840, 750}";
},
{
name = stroke;
position = "{310, 751}";
},
{
name = top;
position = "{790, 1500}";
}
);
hints = (
{
origin = "{1, 1}";
scale = "{-1.08, 1}";
type = Corner;
name = _corner.Serif;
},
{
origin = "{1, 2}";
scale = "{1.1, 1}";
type = Corner;
name = _corner.Serif;
options = 1;
}
);
layerId = "CA54B7DC-FBBB-40FE-ACF3-AABDD76D6A7B";
paths = (
{
closed = 1;
nodes = (
"358 1456 LINE",
"756 1456 LINE SMOOTH",
"1202 1456 OFFCURVE",
"1494 1181 OFFCURVE",
"1494 750 CURVE SMOOTH",
"1494 319 OFFCURVE",
"1202 44 OFFCURVE",
"756 44 CURVE SMOOTH",
"358 44 LINE",
"358 0 LINE",
"756 0 LINE SMOOTH",
"1230 0 OFFCURVE",
"1542 275 OFFCURVE",
"1542 750 CURVE SMOOTH",
"1542 1225 OFFCURVE",
"1230 1500 OFFCURVE",
"756 1500 CURVE SMOOTH",
"358 1500 LINE"
);
},
{
closed = 1;
nodes = (
"358 1500 LINE",
"310 1500 LINE",
"310 0 LINE",
"358 0 LINE"
);
}
);
width = 1680;
},
{
anchors = (
{
name = bottom;
position = "{746, 0}";
},
{
name = center;
position = "{796, 750}";
},
{
name = stroke;
position = "{299, 751}";
},
{
name = top;
position = "{746, 1500}";
}
);
hints = (
{
origin = "{1, 1}";
scale = "{-1.08, 1}";
type = Corner;
name = _corner.Serif;
},
{
origin = "{1, 2}";
scale = "{1.1, 1}";
type = Corner;
name = _corner.Serif;
options = 1;
}
);
layerId = "1E61A082-F045-49A7-AB52-DD1B03FD9B54";
paths = (
{
closed = 1;
nodes = (
"347 1462 LINE",
"695 1462 LINE SMOOTH",
"1129 1462 OFFCURVE",
"1413 1185 OFFCURVE",
"1413 750 CURVE SMOOTH",
"1413 315 OFFCURVE",
"1129 38 OFFCURVE",
"695 38 CURVE SMOOTH",
"347 38 LINE",
"347 0 LINE",
"695 0 LINE SMOOTH",
"1157 0 OFFCURVE",
"1461 275 OFFCURVE",
"1461 750 CURVE SMOOTH",
"1461 1225 OFFCURVE",
"1157 1500 OFFCURVE",
"695 1500 CURVE SMOOTH",
"347 1500 LINE"
);
},
{
closed = 1;
nodes = (
"347 1500 LINE",
"299 1500 LINE",
"299 0 LINE",
"347 0 LINE"
);
}
);
width = 1593;
},
{
anchors = (
{
name = bottom;
position = "{834, 0}";
},
{
name = center;
position = "{894, 750}";
},
{
name = stroke;
position = "{227, 751}";
},
{
name = top;
position = "{834, 1500}";
}
);
hints = (
{
origin = "{1, 1}";
scale = "{-1.08, 1}";
type = Corner;
name = _corner.Serif;
},
{
origin = "{1, 2}";
scale = "{1.1, 1}";
type = Corner;
name = _corner.Serif;
options = 1;
}
);
layerId = "219068EA-2B9B-40DC-949E-B60449C01B8A";
paths = (
{
closed = 1;
nodes = (
"647 1276 LINE",
"821 1276 LINE SMOOTH",
"1084 1276 OFFCURVE",
"1257 1074 OFFCURVE",
"1257 750 CURVE SMOOTH",
"1257 426 OFFCURVE",
"1084 224 OFFCURVE",
"821 224 CURVE SMOOTH",
"647 224 LINE",
"647 0 LINE",
"883 0 LINE SMOOTH",
"1385 0 OFFCURVE",
"1719 270 OFFCURVE",
"1719 750 CURVE SMOOTH",
"1719 1230 OFFCURVE",
"1385 1500 OFFCURVE",
"883 1500 CURVE SMOOTH",
"647 1500 LINE"
);
},
{
closed = 1;
nodes = (
"647 1500 LINE",
"227 1500 LINE",
"227 0 LINE",
"647 0 LINE"
);
}
);
width = 1783;
},
{
anchors = (
{
name = bottom;
position = "{787, 0}";
},
{
name = center;
position = "{847, 750}";
},
{
name = stroke;
position = "{224, 751}";
},
{
name = top;
position = "{787, 1500}";
}
);
hints = (
{
origin = "{1, 1}";
scale = "{-1.08, 1}";
type = Corner;
name = _corner.Serif;
},
{
origin = "{1, 2}";
scale = "{1.1, 1}";
type = Corner;
name = _corner.Serif;
options = 1;
}
);
layerId = "0C29AA02-E021-4BD1-A2C4-87F681D64C35";
paths = (
{
closed = 1;
nodes = (
"644 1294 LINE",
"778 1294 LINE SMOOTH",
"1017 1294 OFFCURVE",
"1174 1085 OFFCURVE",
"1174 750 CURVE SMOOTH",
"1174 415 OFFCURVE",
"1017 206 OFFCURVE",
"778 206 CURVE SMOOTH",
"644 206 LINE",
"644 0 LINE",
"840 0 LINE SMOOTH",
"1318 0 OFFCURVE",
"1636 270 OFFCURVE",
"1636 750 CURVE SMOOTH",
"1636 1230 OFFCURVE",
"1318 1500 OFFCURVE",
"840 1500 CURVE SMOOTH",
"644 1500 LINE"
);
},
{
closed = 1;
nodes = (
"644 1500 LINE",
"224 1500 LINE",
"224 0 LINE",
"644 0 LINE"
);
}
);
width = 1674;
}
);
leftKerningGroup = I;
leftMetricsKey = H;
rightKerningGroup = O;
rightMetricsKey = O;
unicode = 0044;
},
{
glyphname = E;
lastChange = "2020-11-16 21:05:47 +0000";
layers = (
{
anchors = (
{
name = bottom;
position = "{770, 0}";
},
{
name = ogonek;
position = "{1386, 10}";
},
{
name = top;
position = "{806, 1500}";
}
);
hints = (
{
origin = "{2, 1}";
scale = "{-1.08, 1}";
type = Corner;
name = _corner.Serif;
},
{
origin = "{2, 2}";
scale = "{1.1, 1}";
type = Corner;
name = _corner.Serif;
options = 1;
}
);
layerId = "CA54B7DC-FBBB-40FE-ACF3-AABDD76D6A7B";
paths = (
{
closed = 1;
nodes = (
"1402 44 LINE",
"358 44 LINE",
"358 0 LINE",
"1402 0 LINE"
);
},
{
closed = 1;
nodes = (
"1384 1500 LINE",
"358 1500 LINE",
"358 1456 LINE",
"1384 1456 LINE"
);
},
{
closed = 1;
nodes = (
"358 1500 LINE",
"310 1500 LINE",
"310 0 LINE",
"358 0 LINE"
);
},
{
closed = 1;
nodes = (
"928 814 LINE",
"358 814 LINE",
"358 770 LINE",
"928 770 LINE"
);
},
{
closed = 1;
nodes = (
"1314 1456 OFFCURVE",
"1340 1430 OFFCURVE",
"1340 1326 CURVE SMOOTH",
"1340 1000 LINE",
"1384 1000 LINE",
"1384 1456 LINE",
"1214 1456 LINE"
);
},
{
closed = 1;
nodes = (
"1402 44 LINE",
"1402 520 LINE",
"1358 520 LINE",
"1358 174 LINE SMOOTH",
"1358 70 OFFCURVE",
"1332 44 OFFCURVE",
"1232 44 CURVE"
);
},
{
closed = 1;
nodes = (
"928 814 LINE",
"928 1146 LINE",
"886 1146 LINE",
"886 936 LINE SMOOTH",
"886 838 OFFCURVE",
"862 814 OFFCURVE",
"768 814 CURVE"
);
},
{
closed = 1;
nodes = (
"862 770 OFFCURVE",
"886 746 OFFCURVE",
"886 648 CURVE SMOOTH",
"886 364 LINE",
"928 364 LINE",
"928 770 LINE",
"768 770 LINE"
);
}
);
width = 1540;
},
{
anchors = (
{
name = bottom;
position = "{745, 0}";
},
{
name = ogonek;
position = "{1340, 10}";
},
{
name = top;
position = "{766, 1500}";
}
);
hints = (
{
origin = "{2, 1}";
scale = "{-1.08, 1}";
type = Corner;
name = _corner.Serif;
},
{
origin = "{2, 2}";
scale = "{1.1, 1}";
type = Corner;
name = _corner.Serif;
options = 1;
}
);
layerId = "1E61A082-F045-49A7-AB52-DD1B03FD9B54";
paths = (
{
closed = 1;
nodes = (
"1331 38 LINE",
"347 38 LINE",
"347 0 LINE",
"1331 0 LINE"
);
},
{
closed = 1;
nodes = (
"1313 1500 LINE",
"347 1500 LINE",
"347 1462 LINE",
"1313 1462 LINE"
);
},
{
closed = 1;
nodes = (
"347 1500 LINE",
"299 1500 LINE",
"299 0 LINE",
"347 0 LINE"
);
},
{
closed = 1;
nodes = (
"917 810 LINE",
"347 810 LINE",
"347 772 LINE",
"917 772 LINE"
);
},
{
closed = 1;
nodes = (
"1247 1462 OFFCURVE",
"1273 1436 OFFCURVE",
"1273 1332 CURVE SMOOTH",
"1273 940 LINE",
"1313 940 LINE",
"1313 1462 LINE",
"1147 1462 LINE"
);
},
{
closed = 1;
nodes = (
"1331 38 LINE",
"1331 580 LINE",
"1291 580 LINE",
"1291 168 LINE SMOOTH",
"1291 64 OFFCURVE",
"1265 38 OFFCURVE",
"1165 38 CURVE"
);
},
{
closed = 1;
nodes = (
"917 810 LINE",
"917 1202 LINE",
"879 1202 LINE",
"879 932 LINE SMOOTH",
"879 834 OFFCURVE",
"855 810 OFFCURVE",
"761 810 CURVE"
);
},
{
closed = 1;
nodes = (
"855 772 OFFCURVE",
"879 748 OFFCURVE",
"879 650 CURVE SMOOTH",
"879 308 LINE",
"917 308 LINE",
"917 772 LINE",
"761 772 LINE"
);
}
);
width = 1489;
},
{
anchors = (
{
name = bottom;
position = "{803, 0}";
},
{
name = ogonek;
position = "{1445, 10}";
},
{
name = top;
position = "{827, 1500}";
}
);
hints = (
{
origin = "{2, 1}";
scale = "{-1.08, 1}";
type = Corner;
name = _corner.Serif;
},
{
origin = "{2, 2}";
scale = "{1.1, 1}";
type = Corner;
name = _corner.Serif;
options = 1;
}
);
layerId = "219068EA-2B9B-40DC-949E-B60449C01B8A";
paths = (
{
closed = 1;
nodes = (
"1511 224 LINE",
"647 224 LINE",
"647 0 LINE",
"1511 0 LINE"
);
},
{
closed = 1;
nodes = (
"1493 1500 LINE",
"647 1500 LINE",
"647 1276 LINE",
"1493 1276 LINE"
);
},
{
closed = 1;
nodes = (
"647 1500 LINE",
"227 1500 LINE",
"227 0 LINE",
"647 0 LINE"
);
},
{
closed = 1;
nodes = (
"1092 882 LINE",
"647 882 LINE",
"647 662 LINE",
"1092 662 LINE"
);
},
{
closed = 1;
nodes = (
"1201 1276 OFFCURVE",
"1261 1206 OFFCURVE",
"1261 1036 CURVE SMOOTH",
"1261 960 LINE",
"1493 960 LINE",
"1493 1276 LINE",
"1041 1276 LINE"
);
},
{
closed = 1;
nodes = (
"1511 224 LINE",
"1511 560 LINE",
"1279 560 LINE",
"1279 464 LINE SMOOTH",
"1279 294 OFFCURVE",
"1219 224 OFFCURVE",
"1059 224 CURVE"
);
},
{
closed = 1;
nodes = (
"1092 882 LINE",
"1092 1136 LINE",
"868 1136 LINE",
"868 1112 LINE SMOOTH",
"868 952 OFFCURVE",
"808 882 OFFCURVE",
"676 882 CURVE"
);
},
{
closed = 1;
nodes = (
"808 662 OFFCURVE",
"868 592 OFFCURVE",
"868 432 CURVE SMOOTH",
"868 364 LINE",
"1092 364 LINE",
"1092 662 LINE",
"676 662 LINE"
);
}
);
width = 1606;
},
{
anchors = (
{
name = bottom;
position = "{754, 0}";
},
{
name = ogonek;
position = "{1357, 10}";
},
{
name = top;
position = "{782, 1500}";
}
);
hints = (
{
origin = "{2, 1}";
scale = "{-1.08, 1}";
type = Corner;
name = _corner.Serif;
},
{
origin = "{2, 2}";
scale = "{1.1, 1}";
type = Corner;
name = _corner.Serif;
options = 1;
}
);
layerId = "0C29AA02-E021-4BD1-A2C4-87F681D64C35";
paths = (
{
closed = 1;
nodes = (
"1424 206 LINE",
"644 206 LINE",
"644 0 LINE",
"1424 0 LINE"
);
},
{
closed = 1;
nodes = (
"1410 1500 LINE",
"644 1500 LINE",
"644 1294 LINE",
"1410 1294 LINE"
);
},
{
closed = 1;
nodes = (
"644 1500 LINE",
"224 1500 LINE",
"224 0 LINE",
"644 0 LINE"
);
},
{
closed = 1;
nodes = (
"1071 874 LINE",
"644 874 LINE",
"644 670 LINE",
"1071 670 LINE"
);
},
{
closed = 1;
nodes = (
"1152 1294 OFFCURVE",
"1212 1224 OFFCURVE",
"1212 1054 CURVE SMOOTH",
"1212 940 LINE",
"1410 940 LINE",
"1410 1294 LINE",
"992 1294 LINE"
);
},
{
closed = 1;
nodes = (
"1424 206 LINE",
"1424 580 LINE",
"1226 580 LINE",
"1226 446 LINE SMOOTH",
"1226 276 OFFCURVE",
"1166 206 OFFCURVE",
"1006 206 CURVE"
);
},
{
closed = 1;
nodes = (
"1071 874 LINE",
"1071 1174 LINE",
"879 1174 LINE",
"879 1104 LINE SMOOTH",
"879 944 OFFCURVE",
"819 874 OFFCURVE",
"669 874 CURVE"
);
},
{
closed = 1;
nodes = (
"819 670 OFFCURVE",
"879 600 OFFCURVE",
"879 440 CURVE SMOOTH",
"879 326 LINE",
"1071 326 LINE",
"1071 670 LINE",
"669 670 LINE"
);
}
);
width = 1508;
}
);
leftKerningGroup = I;
leftMetricsKey = H;
rightKerningGroup = E;
unicode = 0045;
},
{
glyphname = F;
lastChange = "2020-11-16 21:05:47 +0000";
layers = (
{
hints = (
{
origin = "{5, 0}";
scale = "{1.1, 1}";
type = Corner;
name = _corner.Serif;
options = 1;
},
{
origin = "{5, 1}";
scale = "{-1.6, 1}";
type = Corner;
name = _corner.Serif;
},
{
origin = "{5, 3}";
scale = "{-1.08, 1}";
type = Corner;
name = _corner.Serif;
}
);
layerId = "CA54B7DC-FBBB-40FE-ACF3-AABDD76D6A7B";
paths = (
{
closed = 1;
nodes = (
"1338 1500 LINE",
"358 1500 LINE",
"358 1456 LINE",
"1338 1456 LINE"
);
},
{
closed = 1;
nodes = (
"918 794 LINE",
"358 794 LINE",
"358 750 LINE",
"918 750 LINE"
);
},
{
closed = 1;
nodes = (
"1268 1456 OFFCURVE",
"1294 1430 OFFCURVE",
"1294 1326 CURVE SMOOTH",
"1294 1000 LINE",
"1338 1000 LINE",
"1338 1456 LINE",
"1168 1456 LINE"
);
},
{
closed = 1;
nodes = (
"918 794 LINE",
"918 1146 LINE",
"876 1146 LINE",
"876 916 LINE SMOOTH",
"876 818 OFFCURVE",
"852 794 OFFCURVE",
"758 794 CURVE"
);
},
{
closed = 1;
nodes = (
"852 750 OFFCURVE",
"876 726 OFFCURVE",
"876 628 CURVE SMOOTH",
"876 386 LINE",
"918 386 LINE",
"918 750 LINE",
"758 750 LINE"
);
},
{
closed = 1;
nodes = (
"310 0 LINE",
"358 0 LINE",
"358 1500 LINE",
"310 1500 LINE"
);
}
);
width = 1450;
},
{
hints = (
{
origin = "{5, 0}";
scale = "{1.1, 1}";
type = Corner;
name = _corner.Serif;
options = 1;
},
{
origin = "{5, 1}";
scale = "{-1.9, 1}";
type = Corner;
name = _corner.Serif;
},
{
origin = "{5, 3}";
scale = "{-1.08, 1}";
type = Corner;
name = _corner.Serif;
}
);
layerId = "1E61A082-F045-49A7-AB52-DD1B03FD9B54";
paths = (
{
closed = 1;
nodes = (
"1267 1500 LINE",
"347 1500 LINE",
"347 1462 LINE",
"1267 1462 LINE"
);
},
{
closed = 1;
nodes = (
"907 790 LINE",
"347 790 LINE",
"347 752 LINE",
"907 752 LINE"
);
},
{
closed = 1;
nodes = (
"1201 1462 OFFCURVE",
"1227 1436 OFFCURVE",
"1227 1332 CURVE SMOOTH",
"1227 940 LINE",
"1267 940 LINE",
"1267 1462 LINE",
"1101 1462 LINE"
);
},
{
closed = 1;
nodes = (
"907 790 LINE",
"907 1202 LINE",
"869 1202 LINE",
"869 912 LINE SMOOTH",
"869 814 OFFCURVE",
"845 790 OFFCURVE",
"751 790 CURVE"
);
},
{
closed = 1;
nodes = (
"845 752 OFFCURVE",
"869 728 OFFCURVE",
"869 630 CURVE SMOOTH",
"869 330 LINE",
"907 330 LINE",
"907 752 LINE",
"751 752 LINE"
);
},
{
closed = 1;
nodes = (
"299 0 LINE",
"347 0 LINE",
"347 1500 LINE",
"299 1500 LINE"
);
}
);
width = 1373;
},
{
hints = (
{
origin = "{5, 0}";
type = Corner;
name = _corner.Serif;
options = 1;
},
{
origin = "{5, 1}";
scale = "{-1.4, 1}";
type = Corner;
name = _corner.Serif;
},
{
origin = "{5, 3}";
scale = "{-0.96, 0.98467}";
type = Corner;
name = _corner.Serif;
}
);
layerId = "219068EA-2B9B-40DC-949E-B60449C01B8A";
paths = (
{
closed = 1;
nodes = (
"1494 1500 LINE",
"632 1500 LINE",
"632 1276 LINE",
"1494 1276 LINE"
);
},
{
closed = 1;
nodes = (
"1095 872 LINE",
"632 872 LINE",
"632 652 LINE",
"1095 652 LINE"
);
},
{
closed = 1;
nodes = (
"1202 1276 OFFCURVE",
"1262 1206 OFFCURVE",
"1262 1036 CURVE SMOOTH",
"1262 940 LINE",
"1494 940 LINE",
"1494 1276 LINE",
"1042 1276 LINE"
);
},
{
closed = 1;
nodes = (
"1095 872 LINE",
"1095 1136 LINE",
"871 1136 LINE",
"871 1102 LINE SMOOTH",
"871 942 OFFCURVE",
"811 872 OFFCURVE",
"661 872 CURVE"
);
},
{
closed = 1;
nodes = (
"811 652 OFFCURVE",
"871 582 OFFCURVE",
"871 422 CURVE SMOOTH",
"871 344 LINE",
"1095 344 LINE",
"1095 652 LINE",
"661 652 LINE"
);
},
{
closed = 1;
nodes = (
"212 0 LINE",
"632 0 LINE",
"632 1500 LINE",
"212 1500 LINE"
);
}
);
width = 1560;
},
{
hints = (
{
origin = "{5, 0}";
type = Corner;
name = _corner.Serif;
options = 1;
},
{
origin = "{5, 1}";
scale = "{-2, 1}";
type = Corner;
name = _corner.Serif;
},
{
origin = "{5, 3}";
scale = "{-0.96, 0.98467}";
type = Corner;
name = _corner.Serif;
}
);
layerId = "0C29AA02-E021-4BD1-A2C4-87F681D64C35";
paths = (
{
closed = 1;
nodes = (
"1380 1500 LINE",
"628 1500 LINE",
"628 1294 LINE",
"1380 1294 LINE"
);
},
{
closed = 1;
nodes = (
"1049 864 LINE",
"628 864 LINE",
"628 660 LINE",
"1049 660 LINE"
);
},
{
closed = 1;
nodes = (
"1122 1294 OFFCURVE",
"1182 1224 OFFCURVE",
"1182 1054 CURVE SMOOTH",
"1182 920 LINE",
"1380 920 LINE",
"1380 1294 LINE",
"962 1294 LINE"
);
},
{
closed = 1;
nodes = (
"1049 864 LINE",
"1049 1174 LINE",
"857 1174 LINE",
"857 1094 LINE SMOOTH",
"857 934 OFFCURVE",
"797 864 OFFCURVE",
"647 864 CURVE"
);
},
{
closed = 1;
nodes = (
"797 660 OFFCURVE",
"857 590 OFFCURVE",
"857 430 CURVE SMOOTH",
"857 306 LINE",
"1049 306 LINE",
"1049 660 LINE",
"647 660 LINE"
);
},
{
closed = 1;
nodes = (
"208 0 LINE",
"628 0 LINE",
"628 1500 LINE",
"208 1500 LINE"
);
}
);
width = 1434;
}
);
leftKerningGroup = I;
leftMetricsKey = H;
rightKerningGroup = F;
unicode = 0046;
},
{
glyphname = G;
lastChange = "2020-11-16 21:05:47 +0000";
layers = (
{
anchors = (
{
name = bottom;
position = "{901, 0}";
},
{
name = top;
position = "{901, 1500}";
}
);
layerId = "CA54B7DC-FBBB-40FE-ACF3-AABDD76D6A7B";
paths = (
{
closed = 1;
nodes = (
"1513 1020 LINE",
"1505 1333 OFFCURVE",
"1277 1524 OFFCURVE",
"896 1524 CURVE SMOOTH",
"466 1524 OFFCURVE",
"138 1240 OFFCURVE",
"138 750 CURVE SMOOTH",
"138 260 OFFCURVE",
"467 -24 OFFCURVE",
"902 -24 CURVE SMOOTH",
"1347 -24 OFFCURVE",
"1560 276 OFFCURVE",
"1558 678 CURVE",
"1524 678 LINE",
"1524 326 OFFCURVE",
"1319 20 OFFCURVE",
"902 20 CURVE SMOOTH",
"493 20 OFFCURVE",
"186 306 OFFCURVE",
"186 750 CURVE SMOOTH",
"186 1194 OFFCURVE",
"494 1480 OFFCURVE",
"896 1480 CURVE SMOOTH",
"1283 1480 OFFCURVE",
"1459 1277 OFFCURVE",
"1482 1020 CURVE"
);
},
{
closed = 1;
nodes = (
"1482 1500 LINE",
"1482 1104 LINE",
"1513 1020 LINE",
"1526 1020 LINE",
"1526 1500 LINE"
);
},
{
closed = 1;
nodes = (
"898 678 LINE",
"1798 678 LINE",
"1798 722 LINE",
"898 722 LINE"
);
},
{
closed = 1;
nodes = (
"1558 678 LINE",
"1524 493 LINE",
"1524 0 LINE",
"1568 0 LINE",
"1568 678 LINE"
);
}
);
width = 1802;
},
{
anchors = (
{
name = bottom;
position = "{858, 0}";
},
{
name = top;
position = "{848, 1500}";
}
);
layerId = "1E61A082-F045-49A7-AB52-DD1B03FD9B54";
paths = (
{
closed = 1;
nodes = (
"1414 980 LINE",
"1406 1318 OFFCURVE",
"1192 1524 OFFCURVE",
"834 1524 CURVE SMOOTH",
"435 1524 OFFCURVE",
"132 1240 OFFCURVE",
"132 750 CURVE SMOOTH",
"132 260 OFFCURVE",
"439 -24 OFFCURVE",
"846 -24 CURVE SMOOTH",
"1252 -24 OFFCURVE",
"1451 269 OFFCURVE",
"1451 662 CURVE",
"1422 662 LINE",
"1422 311 OFFCURVE",
"1233 14 OFFCURVE",
"846 14 CURVE SMOOTH",
"465 14 OFFCURVE",
"180 302 OFFCURVE",
"180 750 CURVE SMOOTH",
"180 1198 OFFCURVE",
"463 1486 OFFCURVE",
"834 1486 CURVE SMOOTH",
"1199 1486 OFFCURVE",
"1365 1262 OFFCURVE",
"1386 980 CURVE"
);
},
{
closed = 1;
nodes = (
"1390 1500 LINE",
"1390 1034 LINE",
"1414 980 LINE",
"1430 980 LINE",
"1430 1500 LINE"
);
},
{
closed = 1;
nodes = (
"732 662 LINE",
"1692 662 LINE",
"1692 700 LINE",
"732 700 LINE"
);
},
{
closed = 1;
nodes = (
"1451 662 LINE",
"1422 504 LINE",
"1422 0 LINE",
"1462 0 LINE",
"1462 662 LINE"
);
}
);
width = 1714;
},
{
anchors = (
{
name = bottom;
position = "{911, 0}";
},
{
name = top;
position = "{849, 1500}";
}
);
layerId = "219068EA-2B9B-40DC-949E-B60449C01B8A";
paths = (
{
closed = 1;
nodes = (
"1448 995 LINE",
"1422 1322 OFFCURVE",
"1227 1522 OFFCURVE",
"855 1522 CURVE SMOOTH",
"411 1522 OFFCURVE",
"64 1238 OFFCURVE",
"64 750 CURVE SMOOTH",
"64 262 OFFCURVE",
"411 -22 OFFCURVE",
"845 -22 CURVE SMOOTH",
"1284 -22 OFFCURVE",
"1464 213 OFFCURVE",
"1470 553 CURVE",
"1372 553 LINE",
"1346 372 OFFCURVE",
"1233 232 OFFCURVE",
"975 232 CURVE SMOOTH",
"699 232 OFFCURVE",
"534 434 OFFCURVE",
"534 750 CURVE SMOOTH",
"534 1066 OFFCURVE",
"695 1268 OFFCURVE",
"967 1268 CURVE SMOOTH",
"1210 1268 OFFCURVE",
"1307 1125 OFFCURVE",
"1325 995 CURVE"
);
},
{
closed = 1;
nodes = (
"1331 1500 LINE",
"1331 1164 LINE",
"1448 995 LINE",
"1575 995 LINE",
"1575 1500 LINE"
);
},
{
closed = 1;
nodes = (
"997 553 LINE",
"1788 553 LINE",
"1788 785 LINE",
"997 785 LINE"
);
},
{
closed = 1;
nodes = (
"1470 553 LINE",
"1386 380 LINE",
"1386 0 LINE",
"1628 0 LINE",
"1628 553 LINE"
);
}
);
width = 1826;
},
{
anchors = (
{
name = bottom;
position = "{841, 0}";
},
{
name = top;
position = "{813, 1500}";
}
);
layerId = "0C29AA02-E021-4BD1-A2C4-87F681D64C35";
paths = (
{
closed = 1;
nodes = (
"1352 935 LINE",
"1348 1301 OFFCURVE",
"1178 1522 OFFCURVE",
"781 1522 CURVE SMOOTH",
"367 1522 OFFCURVE",
"38 1238 OFFCURVE",
"38 750 CURVE SMOOTH",
"38 262 OFFCURVE",
"367 -22 OFFCURVE",
"799 -22 CURVE SMOOTH",
"1242 -22 OFFCURVE",
"1395 244 OFFCURVE",
"1401 589 CURVE",
"1324 589 LINE",
"1308 377 OFFCURVE",
"1185 212 OFFCURVE",
"929 212 CURVE SMOOTH",
"666 212 OFFCURVE",
"508 422 OFFCURVE",
"508 750 CURVE SMOOTH",
"508 1078 OFFCURVE",
"663 1288 OFFCURVE",
"919 1288 CURVE SMOOTH",
"1160 1288 OFFCURVE",
"1258 1123 OFFCURVE",
"1271 935 CURVE"
);
},
{
closed = 1;
nodes = (
"1259 1500 LINE",
"1259 1164 LINE",
"1352 935 LINE",
"1475 935 LINE",
"1475 1500 LINE"
);
},
{
closed = 1;
nodes = (
"881 589 LINE",
"1710 589 LINE",
"1710 795 LINE",
"881 795 LINE"
);
},
{
closed = 1;
nodes = (
"1401 589 LINE",
"1316 367 LINE",
"1316 0 LINE",
"1534 0 LINE",
"1534 589 LINE"
);
}
);
width = 1702;
}
);
leftKerningGroup = O;
leftMetricsKey = O;
rightKerningGroup = G;
unicode = 0047;
},
{
glyphname = H;
lastChange = "2020-12-06 19:09:59 +0000";
layers = (
{
anchors = (
{
name = bottom;
position = "{876, 0}";
},
{
name = center;
position = "{876, 750}";
},
{
name = top;
position = "{876, 1500}";
},
{
name = topleft;
position = "{20, 1500}";
}
);
hints = (
{
origin = "{1, 0}";
scale = "{1.18, 1}";
type = Corner;
name = _corner.Serif;
},
{
origin = "{1, 1}";
scale = "{-1.08, 1}";
type = Corner;
name = _corner.Serif;
},
{
origin = "{1, 2}";
scale = "{1.1, 1}";
type = Corner;
name = _corner.Serif;
options = 1;
},
{
origin = "{1, 3}";
scale = "{-1.2, 1}";
type = Corner;
name = _corner.Serif;
},
{
origin = "{2, 0}";
scale = "{1.08, 1}";
type = Corner;
name = _corner.Serif;
},
{
origin = "{2, 1}";
scale = "{-1.18, 1}";
type = Corner;
name = _corner.Serif;
},
{
origin = "{2, 2}";
scale = "{1.2, 1}";
type = Corner;
name = _corner.Serif;
options = 1;
},
{
origin = "{2, 3}";
scale = "{-1.1, 1}";
type = Corner;
name = _corner.Serif;
}
);
layerId = "CA54B7DC-FBBB-40FE-ACF3-AABDD76D6A7B";
paths = (
{
closed = 1;
nodes = (
"1394 782 LINE",
"358 782 LINE",
"358 738 LINE",
"1394 738 LINE"
);
},
{
closed = 1;
nodes = (
"358 1500 LINE",
"310 1500 LINE",
"310 0 LINE",
"358 0 LINE"
);
},
{
closed = 1;
nodes = (
"1442 1500 LINE",
"1394 1500 LINE",
"1394 0 LINE",
"1442 0 LINE"
);
}
);
width = 1752;
},
{
anchors = (
{
name = bottom;
position = "{840, 0}";
},
{
name = center;
position = "{840, 750}";
},
{
name = top;
position = "{840, 1500}";
},
{
name = topleft;
position = "{20, 1500}";
}
);
hints = (
{
origin = "{1, 0}";
scale = "{1.18, 1}";
type = Corner;
name = _corner.Serif;
},
{
origin = "{1, 1}";
scale = "{-1.08, 1}";
type = Corner;
name = _corner.Serif;
},
{
origin = "{1, 2}";
scale = "{1.1, 1}";
type = Corner;
name = _corner.Serif;
options = 1;
},
{
origin = "{1, 3}";
scale = "{-1.2, 1}";
type = Corner;
name = _corner.Serif;
},
{
origin = "{2, 0}";
scale = "{1.08, 1}";
type = Corner;
name = _corner.Serif;
},
{
origin = "{2, 1}";
scale = "{-1.18, 1}";
type = Corner;
name = _corner.Serif;
},
{
origin = "{2, 2}";
scale = "{1.2, 1}";
type = Corner;
name = _corner.Serif;
options = 1;
},
{
origin = "{2, 3}";
scale = "{-1.1, 1}";
type = Corner;
name = _corner.Serif;
}
);
layerId = "1E61A082-F045-49A7-AB52-DD1B03FD9B54";
paths = (
{
closed = 1;
nodes = (
"1333 780 LINE",
"347 780 LINE",
"347 742 LINE",
"1333 742 LINE"
);
},
{
closed = 1;
nodes = (
"347 1500 LINE",
"299 1500 LINE",
"299 0 LINE",
"347 0 LINE"
);
},
{
closed = 1;
nodes = (
"1381 1500 LINE",
"1333 1500 LINE",
"1333 0 LINE",
"1381 0 LINE"
);
}
);
width = 1680;
},
{
anchors = (
{
name = bottom;
position = "{919, 0}";
},
{
name = center;
position = "{919, 750}";
},
{
name = top;
position = "{919, 1500}";
},
{
name = topleft;
position = "{20, 1500}";
}
);
hints = (
{
origin = "{1, 0}";
scale = "{1.18, 1}";
type = Corner;
name = _corner.Serif;
},
{
origin = "{1, 1}";
scale = "{-1.08, 1}";
type = Corner;
name = _corner.Serif;
},
{
origin = "{1, 2}";
scale = "{1.1, 1}";
type = Corner;
name = _corner.Serif;
options = 1;
},
{
origin = "{1, 3}";
scale = "{-1.18, 1}";
type = Corner;
name = _corner.Serif;
},
{
origin = "{2, 0}";
scale = "{1.08, 1}";
type = Corner;
name = _corner.Serif;
},
{
origin = "{2, 1}";
scale = "{-1.18, 1}";
type = Corner;
name = _corner.Serif;
},
{
origin = "{2, 2}";
scale = "{1.18, 1}";
type = Corner;
name = _corner.Serif;
options = 1;
},
{
origin = "{2, 3}";
scale = "{-1.08, 1}";
type = Corner;
name = _corner.Serif;
}
);
layerId = "219068EA-2B9B-40DC-949E-B60449C01B8A";
paths = (
{
closed = 1;
nodes = (
"1193 847 LINE",
"647 847 LINE",
"647 639 LINE",
"1193 639 LINE"
);
},
{
closed = 1;
nodes = (
"647 1500 LINE",
"227 1500 LINE",
"227 0 LINE",
"647 0 LINE"
);
},
{
closed = 1;
nodes = (
"1613 1500 LINE",
"1193 1500 LINE",
"1193 0 LINE",
"1613 0 LINE"
);
}
);
width = 1837;
},
{
anchors = (
{
name = bottom;
position = "{881, 0}";
},
{
name = center;
position = "{881, 750}";
},
{
name = top;
position = "{881, 1500}";
},
{
name = topleft;
position = "{20, 1500}";
}
);
hints = (
{
origin = "{1, 0}";
scale = "{1.18, 1}";
type = Corner;
name = _corner.Serif;
},
{
origin = "{1, 1}";
scale = "{-1.08, 1}";
type = Corner;
name = _corner.Serif;
},
{
origin = "{1, 2}";
scale = "{1.1, 1}";
type = Corner;
name = _corner.Serif;
options = 1;
},
{
origin = "{1, 3}";
scale = "{-1.18, 1}";
type = Corner;
name = _corner.Serif;
},
{
origin = "{2, 0}";
scale = "{1.08, 1}";
type = Corner;
name = _corner.Serif;
},
{
origin = "{2, 1}";
scale = "{-1.18, 1}";
type = Corner;
name = _corner.Serif;
},
{
origin = "{2, 2}";
scale = "{1.18, 1}";
type = Corner;
name = _corner.Serif;
options = 1;
},
{
origin = "{2, 3}";
scale = "{-1.08, 1}";
type = Corner;
name = _corner.Serif;
}
);
layerId = "0C29AA02-E021-4BD1-A2C4-87F681D64C35";
paths = (
{
closed = 1;
nodes = (
"1120 847 LINE",
"644 847 LINE",
"644 639 LINE",
"1120 639 LINE"
);
},
{
closed = 1;
nodes = (
"644 1500 LINE",
"224 1500 LINE",
"224 0 LINE",
"644 0 LINE"
);
},
{
closed = 1;
nodes = (
"1540 1500 LINE",
"1120 1500 LINE",
"1120 0 LINE",
"1540 0 LINE"
);
}
);
width = 1761;
}
);
leftKerningGroup = I;
rightKerningGroup = I;
unicode = 0048;
},
{
glyphname = I;
lastChange = "2020-11-16 21:05:47 +0000";
layers = (
{
anchors = (
{
name = bottom;
position = "{351, 0}";
},
{
name = ogonek;
position = "{632, 10}";
},
{
name = top;
position = "{351, 1500}";
},
{
name = topleft;
position = "{20, 1500}";
}
);
hints = (
{
origin = "{0, 0}";
scale = "{-1.18, 1}";
type = Corner;
name = _corner.Serif;
},
{
origin = "{0, 1}";
scale = "{1.2, 1}";
type = Corner;
name = _corner.Serif;
options = 1;
},
{
origin = "{0, 2}";
scale = "{-1.2, 1}";
type = Corner;
name = _corner.Serif;
},
{
origin = "{0, 3}";
scale = "{1.18, 1}";
type = Corner;
name = _corner.Serif;
}
);
layerId = "CA54B7DC-FBBB-40FE-ACF3-AABDD76D6A7B";
paths = (
{
closed = 1;
nodes = (
"327 1500 LINE",
"327 0 LINE",
"375 0 LINE",
"375 1500 LINE"
);
}
);
width = 702;
},
{
anchors = (
{
name = bottom;
position = "{342, 0}";
},
{
name = ogonek;
position = "{616, 10}";
},
{
name = top;
position = "{342, 1500}";
},
{
name = topleft;
position = "{20, 1500}";
}
);
hints = (
{
origin = "{0, 0}";
scale = "{-1.18, 1}";
type = Corner;
name = _corner.Serif;
},
{
origin = "{0, 1}";
scale = "{1.2, 1}";
type = Corner;
name = _corner.Serif;
options = 1;
},
{
origin = "{0, 2}";
scale = "{-1.2, 1}";
type = Corner;
name = _corner.Serif;
},
{
origin = "{0, 3}";
scale = "{1.18, 1}";
type = Corner;
name = _corner.Serif;
}
);
layerId = "1E61A082-F045-49A7-AB52-DD1B03FD9B54";
paths = (
{
closed = 1;
nodes = (
"318 1500 LINE",
"318 0 LINE",
"366 0 LINE",
"366 1500 LINE"
);
}
);
width = 684;
},
{
anchors = (
{
name = bottom;
position = "{448, 0}";
},
{
name = ogonek;
position = "{806, 10}";
},
{
name = top;
position = "{448, 1500}";
},
{
name = topleft;
position = "{20, 1500}";
}
);
hints = (
{
origin = "{0, 0}";
scale = "{-1.18, 1}";
type = Corner;
name = _corner.Serif;
},
{
origin = "{0, 1}";
scale = "{1.2, 1}";
type = Corner;
name = _corner.Serif;
options = 1;
},
{
origin = "{0, 2}";
scale = "{-1.2, 1}";
type = Corner;
name = _corner.Serif;
},
{
origin = "{0, 3}";
scale = "{1.18, 1}";
type = Corner;
name = _corner.Serif;
}
);
layerId = "219068EA-2B9B-40DC-949E-B60449C01B8A";
paths = (
{
closed = 1;
nodes = (
"238 1501 LINE",
"238 0 LINE",
"658 0 LINE",
"658 1501 LINE"
);
}
);
width = 896;
},
{
anchors = (
{
name = bottom;
position = "{444, 0}";
},
{
name = ogonek;
position = "{799, 10}";
},
{
name = top;
position = "{444, 1500}";
},
{
name = topleft;
position = "{20, 1500}";
}
);
hints = (
{
origin = "{0, 0}";
scale = "{-1.18, 1}";
type = Corner;
name = _corner.Serif;
},
{
origin = "{0, 1}";
scale = "{1.2, 1}";
type = Corner;
name = _corner.Serif;
options = 1;
},
{
origin = "{0, 2}";
scale = "{-1.2, 1}";
type = Corner;
name = _corner.Serif;
},
{
origin = "{0, 3}";
scale = "{1.18, 1}";
type = Corner;
name = _corner.Serif;
}
);
layerId = "0C29AA02-E021-4BD1-A2C4-87F681D64C35";
paths = (
{
closed = 1;
nodes = (
"234 1501 LINE",
"234 0 LINE",
"654 0 LINE",
"654 1501 LINE"
);
}
);
width = 888;
}
);
leftKerningGroup = I;
rightKerningGroup = I;
unicode = 0049;
},
{
glyphname = J;
lastChange = "2020-11-16 21:36:19 +0000";
layers = (
{
anchors = (
{
name = bottom;
position = "{634, 0}";
},
{
name = top;
position = "{892, 1500}";
}
);
hints = (
{
origin = "{0, 0}";
scale = "{-1.58, 1}";
type = Corner;
name = _corner.Serif;
options = 1;
},
{
origin = "{0, 17}";
scale = "{1.08, 1}";
type = Corner;
name = _corner.Serif;
}
);
layerId = "CA54B7DC-FBBB-40FE-ACF3-AABDD76D6A7B";
paths = (
{
closed = 1;
nodes = (
"930 1500 LINE",
"930 456 LINE SMOOTH",
"930 173 OFFCURVE",
"781 28 OFFCURVE",
"540 28 CURVE SMOOTH",
"299 28 OFFCURVE",
"150 173 OFFCURVE",
"150 456 CURVE SMOOTH",
"150 530 LINE",
"106 530 LINE",
"106 452 LINE SMOOTH",
"106 133 OFFCURVE",
"278 -16 OFFCURVE",
"542 -16 CURVE SMOOTH",
"806 -16 OFFCURVE",
"978 132 OFFCURVE",
"978 460 CURVE SMOOTH",
"978 1500 LINE"
);
}
);
width = 1267;
},
{
anchors = (
{
name = bottom;
position = "{598, 0}";
},
{
name = top;
position = "{802, 1500}";
}
);
hints = (
{
origin = "{0, 17}";
scale = "{1.08, 1}";
type = Corner;
name = _corner.Serif;
},
{
origin = "{0, 0}";
scale = "{-1.88, 1}";
type = Corner;
name = _corner.Serif;
options = 1;
}
);
layerId = "1E61A082-F045-49A7-AB52-DD1B03FD9B54";
paths = (
{
closed = 1;
nodes = (
"870 1500 LINE",
"870 426 LINE SMOOTH",
"870 159 OFFCURVE",
"732 22 OFFCURVE",
"508 22 CURVE SMOOTH",
"284 22 OFFCURVE",
"146 159 OFFCURVE",
"146 426 CURVE SMOOTH",
"146 590 LINE",
"106 590 LINE",
"106 422 LINE SMOOTH",
"106 124 OFFCURVE",
"266 -16 OFFCURVE",
"512 -16 CURVE SMOOTH",
"758 -16 OFFCURVE",
"918 123 OFFCURVE",
"918 430 CURVE SMOOTH",
"918 1500 LINE"
);
}
);
width = 1196;
},
{
anchors = (
{
name = bottom;
position = "{673, 0}";
},
{
name = top;
position = "{887, 1500}";
}
);
hints = (
{
origin = "{0, 0}";
scale = "{-1.38, 1}";
type = Corner;
name = _corner.Serif;
options = 1;
},
{
origin = "{0, 17}";
scale = "{1.08, 1}";
type = Corner;
name = _corner.Serif;
}
);
layerId = "219068EA-2B9B-40DC-949E-B60449C01B8A";
paths = (
{
closed = 1;
nodes = (
"710 1500 LINE",
"710 504 LINE SMOOTH",
"710 376 OFFCURVE",
"646 284 OFFCURVE",
"496 284 CURVE SMOOTH",
"345 284 OFFCURVE",
"286 377 OFFCURVE",
"286 504 CURVE SMOOTH",
"286 597 LINE",
"54 597 LINE",
"54 468 LINE SMOOTH",
"54 149 OFFCURVE",
"272 -22 OFFCURVE",
"592 -22 CURVE SMOOTH",
"932 -22 OFFCURVE",
"1130 150 OFFCURVE",
"1130 468 CURVE SMOOTH",
"1130 1500 LINE"
);
}
);
width = 1344;
},
{
anchors = (
{
name = bottom;
position = "{611, 0}";
},
{
name = top;
position = "{731, 1500}";
}
);
hints = (
{
origin = "{0, 17}";
scale = "{1.08, 1}";
type = Corner;
name = _corner.Serif;
},
{
origin = "{0, 0}";
scale = "{-1.98, 1}";
type = Corner;
name = _corner.Serif;
options = 1;
}
);
layerId = "0C29AA02-E021-4BD1-A2C4-87F681D64C35";
paths = (
{
closed = 1;
nodes = (
"592 1500 LINE",
"592 428 LINE SMOOTH",
"592 323 OFFCURVE",
"540 248 OFFCURVE",
"418 248 CURVE SMOOTH",
"296 248 OFFCURVE",
"248 324 OFFCURVE",
"248 428 CURVE SMOOTH",
"248 597 LINE",
"50 597 LINE",
"50 428 LINE SMOOTH",
"50 136 OFFCURVE",
"227 -22 OFFCURVE",
"531 -22 CURVE SMOOTH",
"835 -22 OFFCURVE",
"1012 136 OFFCURVE",
"1012 428 CURVE SMOOTH",
"1012 1500 LINE"
);
}
);
width = 1227;
}
);
leftKerningGroup = J;
rightKerningGroup = U;
rightMetricsKey = U;
unicode = 004A;
},
{
glyphname = K;
lastChange = "2020-11-16 21:28:53 +0000";
layers = (
{
anchors = (
{
name = bottom;
position = "{820, 0}";
},
{
name = top;
position = "{820, 1500}";
}
);
hints = (
{
origin = "{0, 0}";
scale = "{-1.08, 1}";
type = Corner;
name = _corner.Serif;
},
{
origin = "{0, 1}";
scale = "{1.1, 1}";
type = Corner;
name = _corner.Serif;
options = 1;
},
{
origin = "{0, 2}";
scale = "{-1.2, 1}";
type = Corner;
name = _corner.Serif;
},
{
origin = "{0, 3}";
scale = "{1.18, 1}";
type = Corner;
name = _corner.Serif;
},
{
origin = "{1, 0}";
scale = "{-1.38, 1}";
type = Corner;
name = _corner.Serif;
options = 1;
},
{
origin = "{1, 3}";
scale = "{0.62, 1}";
type = Corner;
name = _corner.Serif;
},
{
origin = "{2, 2}";
scale = "{1.4, 1}";
type = Corner;
name = _corner.Serif;
},
{
origin = "{2, 3}";
scale = "{-0.66, 1}";
type = Corner;
name = _corner.Serif;
options = 1;
}
);
layerId = "CA54B7DC-FBBB-40FE-ACF3-AABDD76D6A7B";
paths = (
{
closed = 1;
nodes = (
"310 1500 LINE",
"310 0 LINE",
"358 0 LINE",
"358 1500 LINE"
);
},
{
closed = 1;
nodes = (
"1340 1500 LINE",
"324 585 LINE",
"349 551 LINE",
"1406 1500 LINE"
);
},
{
closed = 1;
nodes = (
"637 835 LINE",
"604 806 LINE",
"1401 0 LINE",
"1466 0 LINE"
);
}
);
width = 1639;
},
{
anchors = (
{
name = bottom;
position = "{815, 0}";
},
{
name = top;
position = "{815, 1500}";
}
);
hints = (
{
origin = "{0, 0}";
scale = "{-1.08, 1}";
type = Corner;
name = _corner.Serif;
},
{
origin = "{0, 1}";
scale = "{1.1, 1}";
type = Corner;
name = _corner.Serif;
options = 1;
},
{
origin = "{0, 2}";
scale = "{-1.2, 1}";
type = Corner;
name = _corner.Serif;
},
{
origin = "{0, 3}";
scale = "{1.18, 1}";
type = Corner;
name = _corner.Serif;
},
{
origin = "{1, 0}";
scale = "{-1.38, 1}";
type = Corner;
name = _corner.Serif;
options = 1;
},
{
origin = "{1, 3}";
scale = "{0.62, 1}";
type = Corner;
name = _corner.Serif;
},
{
origin = "{2, 2}";
scale = "{1.4, 1}";
type = Corner;
name = _corner.Serif;
},
{
origin = "{2, 3}";
scale = "{-0.66, 1}";
type = Corner;
name = _corner.Serif;
options = 1;
}
);
layerId = "1E61A082-F045-49A7-AB52-DD1B03FD9B54";
paths = (
{
closed = 1;
nodes = (
"299 1500 LINE",
"299 0 LINE",
"347 0 LINE",
"347 1500 LINE"
);
},
{
closed = 1;
nodes = (
"1314 1500 LINE",
"313 613 LINE",
"338 584 LINE",
"1375 1500 LINE"
);
},
{
closed = 1;
nodes = (
"603 848 LINE",
"573 816 LINE",
"1370 0 LINE",
"1435 0 LINE"
);
}
);
width = 1629;
},
{
anchors = (
{
name = bottom;
position = "{857, 0}";
},
{
name = top;
position = "{857, 1500}";
}
);
hints = (
{
origin = "{0, 0}";
scale = "{-1.08, 1}";
type = Corner;
name = _corner.Serif;
},
{
origin = "{0, 1}";
scale = "{1.1, 1}";
type = Corner;
name = _corner.Serif;
options = 1;
},
{
origin = "{0, 2}";
scale = "{-0.94, 1}";
type = Corner;
name = _corner.Serif;
},
{
origin = "{0, 3}";
scale = "{1.08, 1}";
type = Corner;
name = _corner.Serif;
},
{
origin = "{1, 0}";
scale = "{-2.14, 1}";
type = Corner;
name = _corner.Serif;
options = 1;
},
{
origin = "{1, 3}";
scale = "{0.02, 1}";
type = Corner;
name = _corner.Serif;
},
{
origin = "{2, 2}";
scale = "{1.54, 1}";
type = Corner;
name = _corner.Serif;
},
{
origin = "{2, 3}";
scale = "{-0.2, 1}";
type = Corner;
name = _corner.Serif;
options = 1;
}
);
layerId = "219068EA-2B9B-40DC-949E-B60449C01B8A";
paths = (
{
closed = 1;
nodes = (
"227 1500 LINE",
"227 0 LINE",
"647 0 LINE",
"647 1500 LINE"
);
},
{
closed = 1;
nodes = (
"1388 1500 LINE",
"395 624 LINE",
"555 436 LINE",
"1750 1500 LINE"
);
},
{
closed = 1;
nodes = (
"999 942 LINE",
"708 676 LINE",
"1200 0 LINE",
"1724 0 LINE"
);
}
);
width = 1730;
},
{
anchors = (
{
name = bottom;
position = "{858, 0}";
},
{
name = top;
position = "{858, 1500}";
}
);
hints = (
{
origin = "{0, 0}";
scale = "{-1.08, 1}";
type = Corner;
name = _corner.Serif;
},
{
origin = "{0, 1}";
scale = "{1.1, 1}";
type = Corner;
name = _corner.Serif;
options = 1;
},
{
origin = "{0, 2}";
scale = "{-0.92, 1}";
type = Corner;
name = _corner.Serif;
},
{
origin = "{0, 3}";
scale = "{1.08, 1}";
type = Corner;
name = _corner.Serif;
},
{
origin = "{1, 0}";
scale = "{-2.06, 1}";
type = Corner;
name = _corner.Serif;
options = 1;
},
{
origin = "{1, 3}";
scale = "{0.04, 1}";
type = Corner;
name = _corner.Serif;
},
{
origin = "{2, 2}";
scale = "{1.54, 1}";
type = Corner;
name = _corner.Serif;
},
{
origin = "{2, 3}";
scale = "{-0.09, 1}";
type = Corner;
name = _corner.Serif;
options = 1;
}
);
layerId = "0C29AA02-E021-4BD1-A2C4-87F681D64C35";
paths = (
{
closed = 1;
nodes = (
"224 1500 LINE",
"224 0 LINE",
"644 0 LINE",
"644 1500 LINE"
);
},
{
closed = 1;
nodes = (
"1385 1500 LINE",
"422 605 LINE",
"562 446 LINE",
"1707 1500 LINE"
);
},
{
closed = 1;
nodes = (
"996 942 LINE",
"705 676 LINE",
"1197 0 LINE",
"1721 0 LINE"
);
}
);
width = 1715;
}
);
leftKerningGroup = I;
leftMetricsKey = H;
rightKerningGroup = K;
rightMetricsKey = X;
unicode = 004B;
},
{
glyphname = L;
lastChange = "2020-11-16 21:05:47 +0000";
layers = (
{
anchors = (
{
name = bottom;
position = "{730, 0}";
},
{
name = center;
position = "{730, 750}";
},
{
name = top;
position = "{335, 1500}";
},
{
name = topright;
position = "{578, 1500}";
}
);
hints = (
{
origin = "{2, 0}";
scale = "{1.58, 1}";
type = Corner;
name = _corner.Serif;
},
{
origin = "{2, 1}";
scale = "{-1.08, 1}";
type = Corner;
name = _corner.Serif;
},
{
origin = "{2, 2}";
scale = "{1.1, 1}";
type = Corner;
name = _corner.Serif;
options = 1;
}
);
layerId = "CA54B7DC-FBBB-40FE-ACF3-AABDD76D6A7B";
paths = (
{
closed = 1;
nodes = (
"1352 44 LINE",
"358 44 LINE",
"358 0 LINE",
"1352 0 LINE"
);
},
{
closed = 1;
nodes = (
"1352 44 LINE",
"1352 520 LINE",
"1308 520 LINE",
"1308 174 LINE SMOOTH",
"1308 70 OFFCURVE",
"1282 44 OFFCURVE",
"1182 44 CURVE"
);
},
{
closed = 1;
nodes = (
"358 1500 LINE",
"310 1500 LINE",
"310 0 LINE",
"358 0 LINE"
);
}
);
width = 1460;
},
{
anchors = (
{
name = bottom;
position = "{697, 0}";
},
{
name = center;
position = "{697, 750}";
},
{
name = top;
position = "{321, 1500}";
},
{
name = topright;
position = "{697, 1500}";
}
);
hints = (
{
origin = "{2, 0}";
scale = "{1.88, 1}";
type = Corner;
name = _corner.Serif;
},
{
origin = "{2, 1}";
scale = "{-1.08, 1}";
type = Corner;
name = _corner.Serif;
},
{
origin = "{2, 2}";
scale = "{1.1, 1}";
type = Corner;
name = _corner.Serif;
options = 1;
}
);
layerId = "1E61A082-F045-49A7-AB52-DD1B03FD9B54";
paths = (
{
closed = 1;
nodes = (
"1281 38 LINE",
"347 38 LINE",
"347 0 LINE",
"1281 0 LINE"
);
},
{
closed = 1;
nodes = (
"1281 38 LINE",
"1281 580 LINE",
"1241 580 LINE",
"1241 168 LINE SMOOTH",
"1241 64 OFFCURVE",
"1215 38 OFFCURVE",
"1115 38 CURVE"
);
},
{
closed = 1;
nodes = (
"347 1500 LINE",
"299 1500 LINE",
"299 0 LINE",
"347 0 LINE"
);
}
);
width = 1393;
},
{
anchors = (
{
name = bottom;
position = "{768, 0}";
},
{
name = center;
position = "{768, 750}";
},
{
name = top;
position = "{437, 1500}";
},
{
name = topright;
position = "{835, 1500}";
}
);
hints = (
{
origin = "{2, 0}";
scale = "{1.38, 1}";
type = Corner;
name = _corner.Serif;
},
{
origin = "{2, 1}";
scale = "{-1.08, 1}";
type = Corner;
name = _corner.Serif;
},
{
origin = "{2, 2}";
scale = "{1.1, 1}";
type = Corner;
name = _corner.Serif;
options = 1;
}
);
layerId = "219068EA-2B9B-40DC-949E-B60449C01B8A";
paths = (
{
closed = 1;
nodes = (
"1467 224 LINE",
"647 224 LINE",
"647 0 LINE",
"1467 0 LINE"
);
},
{
closed = 1;
nodes = (
"1467 224 LINE",
"1467 540 LINE",
"1235 540 LINE",
"1235 464 LINE SMOOTH",
"1235 294 OFFCURVE",
"1175 224 OFFCURVE",
"1015 224 CURVE"
);
},
{
closed = 1;
nodes = (
"647 1500 LINE",
"227 1500 LINE",
"227 0 LINE",
"647 0 LINE"
);
}
);
width = 1535;
},
{
anchors = (
{
name = bottom;
position = "{723, 0}";
},
{
name = center;
position = "{723, 750}";
},
{
name = top;
position = "{434, 1500}";
},
{
name = topright;
position = "{953, 1500}";
}
);
hints = (
{
origin = "{2, 0}";
scale = "{1.98, 1}";
type = Corner;
name = _corner.Serif;
},
{
origin = "{2, 1}";
scale = "{-1.08, 1}";
type = Corner;
name = _corner.Serif;
},
{
origin = "{2, 2}";
scale = "{1.1, 1}";
type = Corner;
name = _corner.Serif;
options = 1;
}
);
layerId = "0C29AA02-E021-4BD1-A2C4-87F681D64C35";
paths = (
{
closed = 1;
nodes = (
"1394 206 LINE",
"644 206 LINE",
"644 0 LINE",
"1394 0 LINE"
);
},
{
closed = 1;
nodes = (
"1394 206 LINE",
"1394 560 LINE",
"1196 560 LINE",
"1196 446 LINE SMOOTH",
"1196 276 OFFCURVE",
"1136 206 OFFCURVE",
"976 206 CURVE"
);
},
{
closed = 1;
nodes = (
"644 1500 LINE",
"224 1500 LINE",
"224 0 LINE",
"644 0 LINE"
);
}
);
width = 1446;
}
);
leftKerningGroup = I;
leftMetricsKey = H;
rightKerningGroup = L;
unicode = 004C;
},
{
glyphname = M;
lastChange = "2020-11-17 11:25:50 +0000";
layers = (
{
anchors = (
{
name = bottom;
position = "{1083, 0}";
},
{
name = top;
position = "{1085, 1500}";
}
);
hints = (
{
origin = "{0, 2}";
scale = "{-1.08, 1}";
type = Corner;
name = _corner.Serif;
},
{
origin = "{0, 3}";
scale = "{1.1, 1}";
type = Corner;
name = _corner.Serif;
options = 1;
},
{
origin = "{0, 4}";
scale = "{-1.2, 1}";
type = Corner;
name = _corner.Serif;
},
{
origin = "{1, 0}";
scale = "{1.08, 1}";
type = Corner;
name = _corner.Serif;
},
{
origin = "{1, 2}";
scale = "{1.2, 1}";
type = Corner;
name = _corner.Serif;
},
{
origin = "{1, 3}";
scale = "{-1.1, 1}";
type = Corner;
name = _corner.Serif;
options = 1;
}
);
layerId = "CA54B7DC-FBBB-40FE-ACF3-AABDD76D6A7B";
paths = (
{
closed = 1;
nodes = (
"354 1437 LINE",
"354 1500 LINE",
"310 1500 LINE",
"310 0 LINE",
"354 0 LINE"
);
},
{
closed = 1;
nodes = (
"1860 1500 LINE",
"1812 1500 LINE",
"1812 0 LINE",
"1860 0 LINE"
);
},
{
closed = 1;
nodes = (
"1065 0 LINE",
"1101 0 LINE",
"1812 1430 LINE",
"1812 1500 LINE",
"1798 1500 LINE",
"1078 52 LINE",
"1093 52 LINE",
"376 1500 LINE",
"354 1500 LINE",
"354 1437 LINE"
);
}
);
width = 2170;
},
{
anchors = (
{
name = bottom;
position = "{1020, 0}";
},
{
name = top;
position = "{1022, 1500}";
}
);
hints = (
{
origin = "{0, 2}";
scale = "{-1.08, 1}";
type = Corner;
name = _corner.Serif;
},
{
origin = "{0, 3}";
scale = "{1.1, 1}";
type = Corner;
name = _corner.Serif;
options = 1;
},
{
origin = "{0, 4}";
scale = "{-1.2, 1}";
type = Corner;
name = _corner.Serif;
},
{
origin = "{1, 0}";
scale = "{1.08, 1}";
type = Corner;
name = _corner.Serif;
},
{
origin = "{1, 2}";
scale = "{1.2, 1}";
type = Corner;
name = _corner.Serif;
},
{
origin = "{1, 3}";
scale = "{-1.1, 1}";
type = Corner;
name = _corner.Serif;
options = 1;
}
);
layerId = "1E61A082-F045-49A7-AB52-DD1B03FD9B54";
paths = (
{
closed = 1;
nodes = (
"339 1438 LINE",
"339 1500 LINE",
"299 1500 LINE",
"299 0 LINE",
"339 0 LINE"
);
},
{
closed = 1;
nodes = (
"1745 1500 LINE",
"1697 1500 LINE",
"1697 0 LINE",
"1745 0 LINE"
);
},
{
closed = 1;
nodes = (
"1000 0 LINE",
"1036 0 LINE",
"1697 1430 LINE",
"1697 1500 LINE",
"1685 1500 LINE",
"1016 52 LINE",
"1029 52 LINE",
"363 1500 LINE",
"339 1500 LINE",
"339 1438 LINE"
);
}
);
width = 2044;
},
{
anchors = (
{
name = bottom;
position = "{1078, 0}";
},
{
name = top;
position = "{1148, 1500}";
}
);
hints = (
{
origin = "{0, 2}";
scale = "{-1.08, 1}";
type = Corner;
name = _corner.Serif;
},
{
origin = "{0, 3}";
scale = "{1.1, 1}";
type = Corner;
name = _corner.Serif;
options = 1;
},
{
origin = "{0, 4}";
scale = "{-1.2, 1}";
type = Corner;
name = _corner.Serif;
},
{
origin = "{1, 0}";
scale = "{1.08, 1}";
type = Corner;
name = _corner.Serif;
},
{
origin = "{1, 2}";
scale = "{1.2, 1}";
type = Corner;
name = _corner.Serif;
},
{
origin = "{1, 3}";
scale = "{-1.1, 1}";
type = Corner;
name = _corner.Serif;
options = 1;
}
);
layerId = "219068EA-2B9B-40DC-949E-B60449C01B8A";
paths = (
{
closed = 1;
nodes = (
"487 911 LINE",
"487 1500 LINE",
"227 1500 LINE",
"227 0 LINE",
"487 0 LINE"
);
},
{
closed = 1;
nodes = (
"2068 1500 LINE",
"1652 1500 LINE",
"1652 0 LINE",
"2068 0 LINE"
);
},
{
closed = 1;
nodes = (
"914 0 LINE",
"1225 0 LINE",
"1652 971 LINE",
"1652 1500 LINE",
"1604 1500 LINE",
"1121 395 LINE",
"1184 395 LINE",
"667 1500 LINE",
"487 1500 LINE",
"487 911 LINE"
);
}
);
width = 2295;
},
{
anchors = (
{
name = bottom;
position = "{976, 0}";
},
{
name = top;
position = "{1067, 1500}";
}
);
hints = (
{
origin = "{0, 2}";
scale = "{-1.08, 1}";
type = Corner;
name = _corner.Serif;
},
{
origin = "{0, 3}";
scale = "{1.1, 1}";
type = Corner;
name = _corner.Serif;
options = 1;
},
{
origin = "{0, 4}";
scale = "{-1.2, 1}";
type = Corner;
name = _corner.Serif;
},
{
origin = "{1, 0}";
scale = "{1.08, 1}";
type = Corner;
name = _corner.Serif;
},
{
origin = "{1, 2}";
scale = "{1.2, 1}";
type = Corner;
name = _corner.Serif;
},
{
origin = "{1, 3}";
scale = "{-1.1, 1}";
type = Corner;
name = _corner.Serif;
options = 1;
}
);
layerId = "0C29AA02-E021-4BD1-A2C4-87F681D64C35";
paths = (
{
closed = 1;
nodes = (
"448 909 LINE",
"448 1500 LINE",
"224 1500 LINE",
"224 0 LINE",
"448 0 LINE"
);
},
{
closed = 1;
nodes = (
"1909 1500 LINE",
"1493 1500 LINE",
"1493 0 LINE",
"1909 0 LINE"
);
},
{
closed = 1;
nodes = (
"835 0 LINE",
"1106 0 LINE",
"1493 971 LINE",
"1493 1500 LINE",
"1478 1500 LINE",
"1037 395 LINE",
"1112 395 LINE",
"642 1500 LINE",
"448 1500 LINE",
"448 909 LINE"
);
}
);
width = 2133;
}
);
leftKerningGroup = I;
leftMetricsKey = H;
rightKerningGroup = I;
rightMetricsKey = H;
unicode = 004D;
},
{
glyphname = N;
lastChange = "2020-11-16 21:05:47 +0000";
layers = (
{
anchors = (
{
name = bottom;
position = "{898, 0}";
},
{
name = top;
position = "{908, 1500}";
}
);
hints = (
{
origin = "{0, 2}";
scale = "{-1.08, 1}";
type = Corner;
name = _corner.Serif;
},
{
origin = "{0, 3}";
scale = "{1.1, 1}";
type = Corner;
name = _corner.Serif;
options = 1;
},
{
origin = "{0, 4}";
scale = "{-1.2, 1}";
type = Corner;
name = _corner.Serif;
},
{
origin = "{2, 0}";
scale = "{1.08, 1}";
type = Corner;
name = _corner.Serif;
},
{
origin = "{2, 1}";
scale = "{-1.18, 1}";
type = Corner;
name = _corner.Serif;
options = 1;
}
);
layerId = "CA54B7DC-FBBB-40FE-ACF3-AABDD76D6A7B";
rightMetricsKey = "=H-16";
paths = (
{
closed = 1;
nodes = (
"354 1426 LINE",
"358 1500 LINE",
"310 1500 LINE",
"310 0 LINE",
"354 0 LINE"
);
},
{
closed = 1;
nodes = (
"358 1500 LINE",
"354 1426 LINE",
"1438 0 LINE",
"1442 74 LINE"
);
},
{
closed = 1;
nodes = (
"1486 1500 LINE",
"1442 1500 LINE",
"1442 74 LINE",
"1438 0 LINE",
"1486 0 LINE"
);
}
);
width = 1775;
},
{
anchors = (
{
name = bottom;
position = "{848, 0}";
},
{
name = top;
position = "{864, 1500}";
}
);
hints = (
{
origin = "{0, 2}";
scale = "{-1.08, 1}";
type = Corner;
name = _corner.Serif;
},
{
origin = "{0, 3}";
scale = "{1.1, 1}";
type = Corner;
name = _corner.Serif;
options = 1;
},
{
origin = "{0, 4}";
scale = "{-1.2, 1}";
type = Corner;
name = _corner.Serif;
},
{
origin = "{2, 0}";
scale = "{1.08, 1}";
type = Corner;
name = _corner.Serif;
},
{
origin = "{2, 1}";
scale = "{-1.18, 1}";
type = Corner;
name = _corner.Serif;
options = 1;
}
);
layerId = "1E61A082-F045-49A7-AB52-DD1B03FD9B54";
rightMetricsKey = "=H-16";
paths = (
{
closed = 1;
nodes = (
"339 1423 LINE",
"343 1500 LINE",
"299 1500 LINE",
"299 0 LINE",
"339 0 LINE"
);
},
{
closed = 1;
nodes = (
"343 1500 LINE",
"339 1423 LINE",
"1373 0 LINE",
"1377 77 LINE"
);
},
{
closed = 1;
nodes = (
"1417 1500 LINE",
"1377 1500 LINE",
"1377 77 LINE",
"1373 0 LINE",
"1417 0 LINE"
);
}
);
width = 1695;
},
{
anchors = (
{
name = bottom;
position = "{886, 0}";
},
{
name = top;
position = "{918, 1500}";
}
);
hints = (
{
origin = "{0, 2}";
scale = "{-1.08, 1}";
type = Corner;
name = _corner.Serif;
},
{
origin = "{0, 3}";
scale = "{1.1, 1}";
type = Corner;
name = _corner.Serif;
options = 1;
},
{
origin = "{0, 4}";
scale = "{-1.2, 1}";
type = Corner;
name = _corner.Serif;
},
{
origin = "{2, 0}";
scale = "{1.08, 1}";
type = Corner;
name = _corner.Serif;
},
{
origin = "{2, 1}";
scale = "{-1.18, 1}";
type = Corner;
name = _corner.Serif;
options = 1;
}
);
layerId = "219068EA-2B9B-40DC-949E-B60449C01B8A";
rightMetricsKey = "=H-10";
paths = (
{
closed = 1;
nodes = (
"487 949 LINE",
"567 1500 LINE",
"227 1500 LINE",
"227 0 LINE",
"487 0 LINE"
);
},
{
closed = 1;
nodes = (
"567 1500 LINE",
"487 949 LINE",
"1296 0 LINE",
"1298 642 LINE"
);
},
{
closed = 1;
nodes = (
"1558 1500 LINE",
"1298 1500 LINE",
"1298 642 LINE",
"1296 0 LINE",
"1558 0 LINE"
);
}
);
width = 1772;
},
{
anchors = (
{
name = bottom;
position = "{847, 0}";
},
{
name = top;
position = "{873, 1500}";
}
);
hints = (
{
origin = "{0, 2}";
scale = "{-1.08, 1}";
type = Corner;
name = _corner.Serif;
},
{
origin = "{0, 3}";
scale = "{1.1, 1}";
type = Corner;
name = _corner.Serif;
options = 1;
},
{
origin = "{0, 4}";
scale = "{-1.2, 1}";
type = Corner;
name = _corner.Serif;
},
{
origin = "{2, 0}";
scale = "{1.08, 1}";
type = Corner;
name = _corner.Serif;
},
{
origin = "{2, 1}";
scale = "{-1.18, 1}";
type = Corner;
name = _corner.Serif;
options = 1;
}
);
layerId = "0C29AA02-E021-4BD1-A2C4-87F681D64C35";
rightMetricsKey = "=H-16";
paths = (
{
closed = 1;
nodes = (
"448 943 LINE",
"518 1500 LINE",
"224 1500 LINE",
"224 0 LINE",
"448 0 LINE"
);
},
{
closed = 1;
nodes = (
"518 1500 LINE",
"448 943 LINE",
"1265 0 LINE",
"1265 639 LINE"
);
},
{
closed = 1;
nodes = (
"1489 1500 LINE",
"1265 1500 LINE",
"1265 639 LINE",
"1265 0 LINE",
"1489 0 LINE"
);
}
);
width = 1694;
}
);
leftKerningGroup = I;
leftMetricsKey = H;
rightKerningGroup = N;
rightMetricsKey = H;
unicode = 004E;
},
{
glyphname = O;
lastChange = "2020-12-04 10:38:18 +0000";
layers = (
{
anchors = (
{
name = bottom;
position = "{906, 0}";
},
{
name = ogonek;
position = "{1631, 10}";
},
{
name = top;
position = "{906, 1500}";
},
{
name = topleft;
position = "{20, 1500}";
},
{
name = topright;
position = "{1520, 1260}";
}
);
layerId = "CA54B7DC-FBBB-40FE-ACF3-AABDD76D6A7B";
paths = (
{
closed = 1;
nodes = (
"1350 -24 OFFCURVE",
"1674 260 OFFCURVE",
"1674 750 CURVE SMOOTH",
"1674 1240 OFFCURVE",
"1350 1524 OFFCURVE",
"906 1524 CURVE SMOOTH",
"462 1524 OFFCURVE",
"138 1240 OFFCURVE",
"138 750 CURVE SMOOTH",
"138 260 OFFCURVE",
"462 -24 OFFCURVE",
"906 -24 CURVE SMOOTH"
);
},
{
closed = 1;
nodes = (
"474 20 OFFCURVE",
"186 308 OFFCURVE",
"186 750 CURVE SMOOTH",
"186 1192 OFFCURVE",
"474 1480 OFFCURVE",
"906 1480 CURVE SMOOTH",
"1338 1480 OFFCURVE",
"1626 1192 OFFCURVE",
"1626 750 CURVE SMOOTH",
"1626 308 OFFCURVE",
"1338 20 OFFCURVE",
"906 20 CURVE SMOOTH"
);
}
);
width = 1812;
},
{
anchors = (
{
name = bottom;
position = "{860, 0}";
},
{
name = ogonek;
position = "{1546, 10}";
},
{
name = top;
position = "{860, 1500}";
},
{
name = topleft;
position = "{22, 1500}";
},
{
name = topright;
position = "{1441, 1260}";
}
);
layerId = "1E61A082-F045-49A7-AB52-DD1B03FD9B54";
paths = (
{
closed = 1;
nodes = (
"1280 -24 OFFCURVE",
"1588 260 OFFCURVE",
"1588 750 CURVE SMOOTH",
"1588 1240 OFFCURVE",
"1280 1524 OFFCURVE",
"860 1524 CURVE SMOOTH",
"440 1524 OFFCURVE",
"132 1240 OFFCURVE",
"132 750 CURVE SMOOTH",
"132 260 OFFCURVE",
"440 -24 OFFCURVE",
"860 -24 CURVE SMOOTH"
);
},
{
closed = 1;
nodes = (
"452 14 OFFCURVE",
"180 304 OFFCURVE",
"180 750 CURVE SMOOTH",
"180 1196 OFFCURVE",
"452 1486 OFFCURVE",
"860 1486 CURVE SMOOTH",
"1268 1486 OFFCURVE",
"1540 1196 OFFCURVE",
"1540 750 CURVE SMOOTH",
"1540 304 OFFCURVE",
"1268 14 OFFCURVE",
"860 14 CURVE SMOOTH"
);
}
);
width = 1720;
},
{
anchors = (
{
name = bottom;
position = "{948, 0}";
},
{
name = ogonek;
position = "{1710, 10}";
},
{
name = top;
position = "{948, 1500}";
},
{
name = topleft;
position = "{16, 1500}";
},
{
name = topright;
position = "{1680, 1270}";
}
);
layerId = "219068EA-2B9B-40DC-949E-B60449C01B8A";
paths = (
{
closed = 1;
nodes = (
"1472 -22 OFFCURVE",
"1832 262 OFFCURVE",
"1832 750 CURVE SMOOTH",
"1832 1238 OFFCURVE",
"1472 1522 OFFCURVE",
"948 1522 CURVE SMOOTH",
"424 1522 OFFCURVE",
"64 1238 OFFCURVE",
"64 750 CURVE SMOOTH",
"64 262 OFFCURVE",
"424 -22 OFFCURVE",
"948 -22 CURVE SMOOTH"
);
},
{
closed = 1;
nodes = (
"686 212 OFFCURVE",
"532 406 OFFCURVE",
"532 750 CURVE SMOOTH",
"532 1095 OFFCURVE",
"686 1288 OFFCURVE",
"948 1288 CURVE SMOOTH",
"1211 1288 OFFCURVE",
"1364 1095 OFFCURVE",
"1364 750 CURVE SMOOTH",
"1364 406 OFFCURVE",
"1211 212 OFFCURVE",
"948 212 CURVE SMOOTH"
);
}
);
width = 1896;
},
{
anchors = (
{
name = bottom;
position = "{882, 0}";
},
{
name = ogonek;
position = "{1604, 10}";
},
{
name = top;
position = "{882, 1500}";
},
{
name = topleft;
position = "{0, 1500}";
},
{
name = topright;
position = "{1565, 1270}";
}
);
layerId = "0C29AA02-E021-4BD1-A2C4-87F681D64C35";
paths = (
{
closed = 1;
nodes = (
"1382 -22 OFFCURVE",
"1726 262 OFFCURVE",
"1726 750 CURVE SMOOTH",
"1726 1238 OFFCURVE",
"1382 1522 OFFCURVE",
"882 1522 CURVE SMOOTH",
"382 1522 OFFCURVE",
"38 1238 OFFCURVE",
"38 750 CURVE SMOOTH",
"38 262 OFFCURVE",
"382 -22 OFFCURVE",
"882 -22 CURVE SMOOTH"
);
},
{
closed = 1;
nodes = (
"645 172 OFFCURVE",
"506 380 OFFCURVE",
"506 750 CURVE SMOOTH",
"506 1121 OFFCURVE",
"645 1328 OFFCURVE",
"882 1328 CURVE SMOOTH",
"1120 1328 OFFCURVE",
"1258 1121 OFFCURVE",
"1258 750 CURVE SMOOTH",
"1258 380 OFFCURVE",
"1120 172 OFFCURVE",
"882 172 CURVE SMOOTH"
);
}
);
width = 1764;
}
);
leftKerningGroup = O;
rightKerningGroup = O;
unicode = 004F;
},
{
glyphname = P;
lastChange = "2020-11-16 21:05:47 +0000";
layers = (
{
anchors = (
{
name = bottom;
position = "{745, 0}";
},
{
name = top;
position = "{745, 1500}";
}
);
hints = (
{
origin = "{1, 0}";
scale = "{1.1, 1}";
type = Corner;
name = _corner.Serif;
options = 1;
},
{
origin = "{1, 1}";
scale = "{-1.6, 1}";
type = Corner;
name = _corner.Serif;
},
{
origin = "{1, 3}";
scale = "{-1.08, 1}";
type = Corner;
name = _corner.Serif;
}
);
layerId = "CA54B7DC-FBBB-40FE-ACF3-AABDD76D6A7B";
paths = (
{
closed = 1;
nodes = (
"358 1456 LINE",
"898 1456 LINE SMOOTH",
"1176 1456 OFFCURVE",
"1352 1330 OFFCURVE",
"1352 1081 CURVE SMOOTH",
"1352 832 OFFCURVE",
"1176 706 OFFCURVE",
"898 706 CURVE SMOOTH",
"358 706 LINE",
"358 662 LINE",
"910 662 LINE SMOOTH",
"1204 662 OFFCURVE",
"1400 803 OFFCURVE",
"1400 1081 CURVE SMOOTH",
"1400 1359 OFFCURVE",
"1204 1500 OFFCURVE",
"910 1500 CURVE SMOOTH",
"358 1500 LINE"
);
},
{
closed = 1;
nodes = (
"310 0 LINE",
"358 0 LINE",
"358 1500 LINE",
"310 1500 LINE"
);
}
);
width = 1490;
},
{
anchors = (
{
name = bottom;
position = "{717, 0}";
},
{
name = top;
position = "{717, 1500}";
}
);
hints = (
{
origin = "{1, 0}";
scale = "{1.1, 1}";
type = Corner;
name = _corner.Serif;
options = 1;
},
{
origin = "{1, 1}";
scale = "{-1.9, 1}";
type = Corner;
name = _corner.Serif;
},
{
origin = "{1, 3}";
scale = "{-1.08, 1}";
type = Corner;
name = _corner.Serif;
}
);
layerId = "1E61A082-F045-49A7-AB52-DD1B03FD9B54";
paths = (
{
closed = 1;
nodes = (
"347 1462 LINE",
"853 1462 LINE SMOOTH",
"1119 1462 OFFCURVE",
"1287 1337 OFFCURVE",
"1287 1091 CURVE SMOOTH",
"1287 845 OFFCURVE",
"1119 720 OFFCURVE",
"853 720 CURVE SMOOTH",
"347 720 LINE",
"347 682 LINE",
"865 682 LINE SMOOTH",
"1147 682 OFFCURVE",
"1335 820 OFFCURVE",
"1335 1091 CURVE SMOOTH",
"1335 1362 OFFCURVE",
"1147 1500 OFFCURVE",
"865 1500 CURVE SMOOTH",
"347 1500 LINE"
);
},
{
closed = 1;
nodes = (
"299 0 LINE",
"347 0 LINE",
"347 1500 LINE",
"299 1500 LINE"
);
}
);
width = 1433;
},
{
anchors = (
{
name = bottom;
position = "{807, 0}";
},
{
name = top;
position = "{807, 1500}";
}
);
hints = (
{
origin = "{1, 0}";
scale = "{1.1, 1}";
type = Corner;
name = _corner.Serif;
options = 1;
},
{
origin = "{1, 1}";
scale = "{-1.8, 1}";
type = Corner;
name = _corner.Serif;
},
{
origin = "{1, 3}";
scale = "{-1.08, 1}";
type = Corner;
name = _corner.Serif;
}
);
layerId = "219068EA-2B9B-40DC-949E-B60449C01B8A";
paths = (
{
closed = 1;
nodes = (
"647 1276 LINE",
"893 1276 LINE SMOOTH",
"1054 1276 OFFCURVE",
"1152 1203 OFFCURVE",
"1152 1049 CURVE SMOOTH",
"1152 895 OFFCURVE",
"1054 822 OFFCURVE",
"893 822 CURVE SMOOTH",
"647 822 LINE",
"647 598 LINE",
"1029 598 LINE SMOOTH",
"1362 598 OFFCURVE",
"1582 749 OFFCURVE",
"1582 1049 CURVE SMOOTH",
"1582 1349 OFFCURVE",
"1362 1500 OFFCURVE",
"1029 1500 CURVE SMOOTH",
"647 1500 LINE"
);
},
{
closed = 1;
nodes = (
"227 0 LINE",
"647 0 LINE",
"647 1500 LINE",
"227 1500 LINE"
);
}
);
width = 1614;
},
{
anchors = (
{
name = bottom;
position = "{750, 0}";
},
{
name = top;
position = "{750, 1500}";
}
);
hints = (
{
origin = "{1, 0}";
scale = "{1.1, 1}";
type = Corner;
name = _corner.Serif;
options = 1;
},
{
origin = "{1, 1}";
scale = "{-2.2, 1}";
type = Corner;
name = _corner.Serif;
},
{
origin = "{1, 3}";
scale = "{-1.08, 1}";
type = Corner;
name = _corner.Serif;
}
);
layerId = "0C29AA02-E021-4BD1-A2C4-87F681D64C35";
paths = (
{
closed = 1;
nodes = (
"644 1294 LINE",
"790 1294 LINE SMOOTH",
"947 1294 OFFCURVE",
"1043 1221 OFFCURVE",
"1043 1069 CURVE SMOOTH",
"1043 917 OFFCURVE",
"947 844 OFFCURVE",
"790 844 CURVE SMOOTH",
"644 844 LINE",
"644 638 LINE",
"940 638 LINE SMOOTH",
"1261 638 OFFCURVE",
"1473 783 OFFCURVE",
"1473 1069 CURVE SMOOTH",
"1473 1355 OFFCURVE",
"1261 1500 OFFCURVE",
"940 1500 CURVE SMOOTH",
"644 1500 LINE"
);
},
{
closed = 1;
nodes = (
"224 0 LINE",
"644 0 LINE",
"644 1500 LINE",
"224 1500 LINE"
);
}
);
width = 1499;
}
);
leftKerningGroup = I;
leftMetricsKey = H;
rightKerningGroup = P;
unicode = 0050;
},
{
glyphname = Q;
lastChange = "2020-11-16 21:05:47 +0000";
layers = (
{
anchors = (
{
name = bottom;
position = "{886, 0}";
},
{
name = top;
position = "{886, 1500}";
}
);
layerId = "CA54B7DC-FBBB-40FE-ACF3-AABDD76D6A7B";
paths = (
{
closed = 1;
nodes = (
"829 420 OFFCURVE",
"748 345 OFFCURVE",
"748 196 CURVE SMOOTH",
"748 0 LINE",
"792 0 LINE",
"792 196 LINE SMOOTH",
"792 317 OFFCURVE",
"845 378 OFFCURVE",
"940 378 CURVE SMOOTH",
"1034 378 OFFCURVE",
"1086 317 OFFCURVE",
"1086 196 CURVE SMOOTH",
"1086 0 LINE",
"1130 0 LINE",
"1130 196 LINE SMOOTH",
"1130 345 OFFCURVE",
"1054 420 OFFCURVE",
"942 420 CURVE SMOOTH"
);
},
{
closed = 1;
nodes = (
"1395 -340 OFFCURVE",
"1472 -265 OFFCURVE",
"1472 -116 CURVE SMOOTH",
"1472 0 LINE",
"1428 0 LINE",
"1428 -116 LINE SMOOTH",
"1428 -237 OFFCURVE",
"1374 -298 OFFCURVE",
"1278 -298 CURVE SMOOTH",
"1183 -298 OFFCURVE",
"1130 -237 OFFCURVE",
"1130 -116 CURVE SMOOTH",
"1130 0 LINE",
"1086 0 LINE",
"1086 -116 LINE SMOOTH",
"1086 -265 OFFCURVE",
"1168 -340 OFFCURVE",
"1282 -340 CURVE SMOOTH"
);
},
{
closed = 1;
nodes = (
"1318 -24 OFFCURVE",
"1634 260 OFFCURVE",
"1634 750 CURVE SMOOTH",
"1634 1240 OFFCURVE",
"1318 1524 OFFCURVE",
"886 1524 CURVE SMOOTH",
"454 1524 OFFCURVE",
"138 1240 OFFCURVE",
"138 750 CURVE SMOOTH",
"138 260 OFFCURVE",
"454 -24 OFFCURVE",
"886 -24 CURVE SMOOTH"
);
},
{
closed = 1;
nodes = (
"466 20 OFFCURVE",
"186 308 OFFCURVE",
"186 750 CURVE SMOOTH",
"186 1192 OFFCURVE",
"466 1480 OFFCURVE",
"886 1480 CURVE SMOOTH",
"1306 1480 OFFCURVE",
"1586 1192 OFFCURVE",
"1586 750 CURVE SMOOTH",
"1586 308 OFFCURVE",
"1306 20 OFFCURVE",
"886 20 CURVE SMOOTH"
);
}
);
width = 1772;
},
{
anchors = (
{
name = bottom;
position = "{860, 0}";
},
{
name = top;
position = "{860, 1500}";
}
);
layerId = "1E61A082-F045-49A7-AB52-DD1B03FD9B54";
paths = (
{
closed = 1;
nodes = (
"803 420 OFFCURVE",
"722 345 OFFCURVE",
"722 196 CURVE SMOOTH",
"722 0 LINE",
"762 0 LINE",
"762 196 LINE SMOOTH",
"762 320 OFFCURVE",
"816 382 OFFCURVE",
"912 382 CURVE SMOOTH",
"1007 382 OFFCURVE",
"1060 320 OFFCURVE",
"1060 196 CURVE SMOOTH",
"1060 0 LINE",
"1104 0 LINE",
"1104 196 LINE SMOOTH",
"1104 345 OFFCURVE",
"1028 420 OFFCURVE",
"916 420 CURVE SMOOTH"
);
},
{
closed = 1;
nodes = (
"1369 -340 OFFCURVE",
"1446 -265 OFFCURVE",
"1446 -116 CURVE SMOOTH",
"1446 0 LINE",
"1406 0 LINE",
"1406 -116 LINE SMOOTH",
"1406 -240 OFFCURVE",
"1351 -302 OFFCURVE",
"1254 -302 CURVE SMOOTH",
"1158 -302 OFFCURVE",
"1104 -240 OFFCURVE",
"1104 -116 CURVE SMOOTH",
"1104 0 LINE",
"1060 0 LINE",
"1060 -116 LINE SMOOTH",
"1060 -265 OFFCURVE",
"1142 -340 OFFCURVE",
"1256 -340 CURVE SMOOTH"
);
},
{
closed = 1;
nodes = (
"1280 -24 OFFCURVE",
"1588 260 OFFCURVE",
"1588 750 CURVE SMOOTH",
"1588 1240 OFFCURVE",
"1280 1524 OFFCURVE",
"860 1524 CURVE SMOOTH",
"440 1524 OFFCURVE",
"132 1240 OFFCURVE",
"132 750 CURVE SMOOTH",
"132 260 OFFCURVE",
"440 -24 OFFCURVE",
"860 -24 CURVE SMOOTH"
);
},
{
closed = 1;
nodes = (
"452 14 OFFCURVE",
"180 304 OFFCURVE",
"180 750 CURVE SMOOTH",
"180 1196 OFFCURVE",
"452 1486 OFFCURVE",
"860 1486 CURVE SMOOTH",
"1268 1486 OFFCURVE",
"1540 1196 OFFCURVE",
"1540 750 CURVE SMOOTH",
"1540 304 OFFCURVE",
"1268 14 OFFCURVE",
"860 14 CURVE SMOOTH"
);
}
);
width = 1720;
},
{
anchors = (
{
name = bottom;
position = "{948, 0}";
},
{
name = top;
position = "{948, 1500}";
}
);
layerId = "219068EA-2B9B-40DC-949E-B60449C01B8A";
paths = (
{
closed = 1;
nodes = (
"784 677 OFFCURVE",
"680 578 OFFCURVE",
"680 385 CURVE SMOOTH",
"680 67 LINE",
"862 67 LINE",
"862 419 LINE SMOOTH",
"862 452 OFFCURVE",
"877 471 OFFCURVE",
"906 471 CURVE SMOOTH",
"935 471 OFFCURVE",
"950 452 OFFCURVE",
"950 419 CURVE SMOOTH",
"950 0 LINE",
"1224 0 LINE",
"1224 385 LINE SMOOTH",
"1224 578 OFFCURVE",
"1120 677 OFFCURVE",
"952 677 CURVE SMOOTH"
);
},
{
closed = 1;
nodes = (
"1380 -380 OFFCURVE",
"1482 -285 OFFCURVE",
"1482 -98 CURVE SMOOTH",
"1482 -40 LINE",
"1312 -40 LINE",
"1312 -132 LINE SMOOTH",
"1312 -165 OFFCURVE",
"1297 -184 OFFCURVE",
"1268 -184 CURVE SMOOTH",
"1239 -184 OFFCURVE",
"1224 -165 OFFCURVE",
"1224 -132 CURVE SMOOTH",
"1224 0 LINE",
"950 0 LINE",
"950 -98 LINE SMOOTH",
"950 -285 OFFCURVE",
"1052 -380 OFFCURVE",
"1216 -380 CURVE SMOOTH"
);
},
{
closed = 1;
nodes = (
"1472 -22 OFFCURVE",
"1832 262 OFFCURVE",
"1832 750 CURVE SMOOTH",
"1832 1238 OFFCURVE",
"1472 1522 OFFCURVE",
"948 1522 CURVE SMOOTH",
"424 1522 OFFCURVE",
"64 1238 OFFCURVE",
"64 750 CURVE SMOOTH",
"64 262 OFFCURVE",
"424 -22 OFFCURVE",
"948 -22 CURVE SMOOTH"
);
},
{
closed = 1;
nodes = (
"680 172 OFFCURVE",
"522 380 OFFCURVE",
"522 750 CURVE SMOOTH",
"522 1121 OFFCURVE",
"680 1328 OFFCURVE",
"948 1328 CURVE SMOOTH",
"1217 1328 OFFCURVE",
"1374 1121 OFFCURVE",
"1374 750 CURVE SMOOTH",
"1374 360 OFFCURVE",
"1217 172 OFFCURVE",
"948 172 CURVE SMOOTH"
);
}
);
width = 1896;
},
{
anchors = (
{
name = bottom;
position = "{882, 0}";
},
{
name = top;
position = "{882, 1500}";
}
);
layerId = "0C29AA02-E021-4BD1-A2C4-87F681D64C35";
paths = (
{
closed = 1;
nodes = (
"718 677 OFFCURVE",
"614 578 OFFCURVE",
"614 385 CURVE SMOOTH",
"614 67 LINE",
"796 67 LINE",
"796 419 LINE SMOOTH",
"796 452 OFFCURVE",
"811 471 OFFCURVE",
"840 471 CURVE SMOOTH",
"869 471 OFFCURVE",
"884 452 OFFCURVE",
"884 419 CURVE SMOOTH",
"884 0 LINE",
"1158 0 LINE",
"1158 385 LINE SMOOTH",
"1158 578 OFFCURVE",
"1054 677 OFFCURVE",
"886 677 CURVE SMOOTH"
);
},
{
closed = 1;
nodes = (
"1314 -380 OFFCURVE",
"1416 -285 OFFCURVE",
"1416 -98 CURVE SMOOTH",
"1416 -40 LINE",
"1246 -40 LINE",
"1246 -132 LINE SMOOTH",
"1246 -165 OFFCURVE",
"1231 -184 OFFCURVE",
"1202 -184 CURVE SMOOTH",
"1173 -184 OFFCURVE",
"1158 -165 OFFCURVE",
"1158 -132 CURVE SMOOTH",
"1158 0 LINE",
"884 0 LINE",
"884 -98 LINE SMOOTH",
"884 -285 OFFCURVE",
"986 -380 OFFCURVE",
"1150 -380 CURVE SMOOTH"
);
},
{
closed = 1;
nodes = (
"1382 -22 OFFCURVE",
"1726 262 OFFCURVE",
"1726 750 CURVE SMOOTH",
"1726 1238 OFFCURVE",
"1382 1522 OFFCURVE",
"882 1522 CURVE SMOOTH",
"382 1522 OFFCURVE",
"38 1238 OFFCURVE",
"38 750 CURVE SMOOTH",
"38 262 OFFCURVE",
"382 -22 OFFCURVE",
"882 -22 CURVE SMOOTH"
);
},
{
closed = 1;
nodes = (
"639 172 OFFCURVE",
"496 380 OFFCURVE",
"496 750 CURVE SMOOTH",
"496 1121 OFFCURVE",
"639 1328 OFFCURVE",
"882 1328 CURVE SMOOTH",
"1126 1328 OFFCURVE",
"1268 1121 OFFCURVE",
"1268 750 CURVE SMOOTH",
"1268 360 OFFCURVE",
"1126 172 OFFCURVE",
"882 172 CURVE SMOOTH"
);
}
);
width = 1764;
}
);
leftKerningGroup = O;
leftMetricsKey = O;
rightKerningGroup = O;
rightMetricsKey = O;
unicode = 0051;
},
{
glyphname = R;
lastChange = "2020-11-16 21:33:55 +0000";
layers = (
{
anchors = (
{
name = bottom;
position = "{802, 0}";
},
{
name = top;
position = "{800, 1500}";
}
);
hints = (
{
origin = "{2, 0}";
scale = "{1.1, 1}";
type = Corner;
name = _corner.Serif;
options = 1;
},
{
origin = "{2, 1}";
scale = "{-1.4, 1}";
type = Corner;
name = _corner.Serif;
},
{
origin = "{2, 3}";
scale = "{-1.08, 1}";
type = Corner;
name = _corner.Serif;
}
);
layerId = "CA54B7DC-FBBB-40FE-ACF3-AABDD76D6A7B";
paths = (
{
closed = 1;
nodes = (
"1450 1365 OFFCURVE",
"1254 1500 OFFCURVE",
"970 1500 CURVE SMOOTH",
"358 1500 LINE",
"358 1456 LINE",
"958 1456 LINE SMOOTH",
"1230 1456 OFFCURVE",
"1402 1336 OFFCURVE",
"1402 1099 CURVE SMOOTH",
"1402 862 OFFCURVE",
"1230 742 OFFCURVE",
"958 742 CURVE SMOOTH",
"358 742 LINE",
"358 698 LINE",
"834 698 LINE",
"840 702 LINE",
"966 702 LINE SMOOTH",
"1252 702 OFFCURVE",
"1450 833 OFFCURVE",
"1450 1099 CURVE SMOOTH"
);
},
{
closed = 1;
nodes = (
"338 698 LINE",
"704 698 LINE SMOOTH",
"908 698 OFFCURVE",
"1046 571 OFFCURVE",
"1046 346 CURVE SMOOTH",
"1046 220 LINE SMOOTH",
"1046 74 OFFCURVE",
"1114 -20 OFFCURVE",
"1262 -20 CURVE SMOOTH",
"1410 -20 OFFCURVE",
"1478 74 OFFCURVE",
"1478 220 CURVE SMOOTH",
"1478 520 LINE",
"1434 520 LINE",
"1434 220 LINE SMOOTH",
"1434 109 OFFCURVE",
"1384 22 OFFCURVE",
"1264 22 CURVE SMOOTH",
"1142 22 OFFCURVE",
"1094 109 OFFCURVE",
"1094 220 CURVE SMOOTH",
"1094 338 LINE SMOOTH",
"1094 592 OFFCURVE",
"982 720 OFFCURVE",
"722 720 CURVE SMOOTH",
"338 720 LINE"
);
},
{
closed = 1;
nodes = (
"310 0 LINE",
"358 0 LINE",
"358 1500 LINE",
"310 1500 LINE"
);
}
);
width = 1604;
},
{
anchors = (
{
name = bottom;
position = "{767, 0}";
},
{
name = top;
position = "{767, 1500}";
}
);
hints = (
{
origin = "{2, 0}";
scale = "{1.1, 1}";
type = Corner;
name = _corner.Serif;
options = 1;
},
{
origin = "{2, 1}";
scale = "{-1.4, 1}";
type = Corner;
name = _corner.Serif;
},
{
origin = "{2, 3}";
scale = "{-1.08, 1}";
type = Corner;
name = _corner.Serif;
}
);
layerId = "1E61A082-F045-49A7-AB52-DD1B03FD9B54";
paths = (
{
closed = 1;
nodes = (
"1379 1369 OFFCURVE",
"1191 1500 OFFCURVE",
"919 1500 CURVE SMOOTH",
"347 1500 LINE",
"347 1462 LINE",
"907 1462 LINE SMOOTH",
"1167 1462 OFFCURVE",
"1331 1344 OFFCURVE",
"1331 1111 CURVE SMOOTH",
"1331 878 OFFCURVE",
"1167 760 OFFCURVE",
"907 760 CURVE SMOOTH",
"347 760 LINE",
"347 722 LINE",
"783 722 LINE",
"795 726 LINE",
"919 726 LINE SMOOTH",
"1191 726 OFFCURVE",
"1379 853 OFFCURVE",
"1379 1111 CURVE SMOOTH"
);
},
{
closed = 1;
nodes = (
"347 722 LINE",
"673 722 LINE SMOOTH",
"893 722 OFFCURVE",
"1015 599 OFFCURVE",
"1015 380 CURVE SMOOTH",
"1015 190 LINE SMOOTH",
"1015 62 OFFCURVE",
"1074 -20 OFFCURVE",
"1201 -20 CURVE SMOOTH",
"1328 -20 OFFCURVE",
"1387 62 OFFCURVE",
"1387 190 CURVE SMOOTH",
"1387 584 LINE",
"1347 584 LINE",
"1347 190 LINE SMOOTH",
"1347 94 OFFCURVE",
"1305 18 OFFCURVE",
"1205 18 CURVE SMOOTH",
"1103 18 OFFCURVE",
"1063 94 OFFCURVE",
"1063 190 CURVE SMOOTH",
"1063 372 LINE SMOOTH",
"1063 611 OFFCURVE",
"955 741 OFFCURVE",
"691 741 CURVE SMOOTH",
"347 741 LINE"
);
},
{
closed = 1;
nodes = (
"299 0 LINE",
"347 0 LINE",
"347 1500 LINE",
"299 1500 LINE"
);
}
);
width = 1533;
},
{
anchors = (
{
name = bottom;
position = "{868, 0}";
},
{
name = top;
position = "{856, 1500}";
}
);
hints = (
{
origin = "{2, 0}";
scale = "{1.1, 1}";
type = Corner;
name = _corner.Serif;
options = 1;
},
{
origin = "{2, 1}";
scale = "{-1, 1}";
type = Corner;
name = _corner.Serif;
},
{
origin = "{2, 3}";
scale = "{-1.08, 1}";
type = Corner;
name = _corner.Serif;
}
);
layerId = "219068EA-2B9B-40DC-949E-B60449C01B8A";
paths = (
{
closed = 1;
nodes = (
"1630 1369 OFFCURVE",
"1414 1508 OFFCURVE",
"1089 1508 CURVE SMOOTH",
"647 1508 LINE",
"647 1284 LINE",
"949 1284 LINE SMOOTH",
"1104 1284 OFFCURVE",
"1200 1217 OFFCURVE",
"1200 1079 CURVE SMOOTH",
"1200 941 OFFCURVE",
"1104 874 OFFCURVE",
"949 874 CURVE SMOOTH",
"647 874 LINE",
"647 650 LINE",
"906 650 LINE",
"960 690 LINE",
"1099 690 LINE SMOOTH",
"1418 690 OFFCURVE",
"1630 827 OFFCURVE",
"1630 1096 CURVE SMOOTH"
);
},
{
closed = 1;
nodes = (
"647 650 LINE",
"704 650 LINE SMOOTH",
"830 650 OFFCURVE",
"895 611 OFFCURVE",
"895 463 CURVE SMOOTH",
"895 370 LINE SMOOTH",
"895 133 OFFCURVE",
"1029 -22 OFFCURVE",
"1303 -22 CURVE SMOOTH",
"1572 -22 OFFCURVE",
"1685 133 OFFCURVE",
"1685 362 CURVE SMOOTH",
"1685 617 LINE",
"1453 617 LINE",
"1453 318 LINE SMOOTH",
"1453 263 OFFCURVE",
"1433 230 OFFCURVE",
"1379 230 CURVE SMOOTH",
"1325 230 OFFCURVE",
"1305 263 OFFCURVE",
"1305 318 CURVE SMOOTH",
"1305 371 LINE SMOOTH",
"1305 582 OFFCURVE",
"1221 706 OFFCURVE",
"987 706 CURVE SMOOTH",
"647 706 LINE"
);
},
{
closed = 1;
nodes = (
"227 0 LINE",
"647 0 LINE",
"647 1508 LINE",
"227 1508 LINE"
);
}
);
width = 1737;
},
{
anchors = (
{
name = bottom;
position = "{830, 0}";
},
{
name = top;
position = "{806, 1500}";
}
);
hints = (
{
origin = "{2, 0}";
scale = "{1.1, 1}";
type = Corner;
name = _corner.Serif;
options = 1;
},
{
origin = "{2, 1}";
scale = "{-1, 1}";
type = Corner;
name = _corner.Serif;
},
{
origin = "{2, 3}";
scale = "{-1.08, 1}";
type = Corner;
name = _corner.Serif;
}
);
layerId = "0C29AA02-E021-4BD1-A2C4-87F681D64C35";
paths = (
{
closed = 1;
nodes = (
"1567 1364 OFFCURVE",
"1355 1500 OFFCURVE",
"1036 1500 CURVE SMOOTH",
"644 1500 LINE",
"644 1294 LINE",
"886 1294 LINE SMOOTH",
"1041 1294 OFFCURVE",
"1137 1224 OFFCURVE",
"1137 1079 CURVE SMOOTH",
"1137 934 OFFCURVE",
"1041 864 OFFCURVE",
"886 864 CURVE SMOOTH",
"644 864 LINE",
"644 658 LINE",
"811 658 LINE",
"868 698 LINE",
"1036 698 LINE SMOOTH",
"1355 698 OFFCURVE",
"1567 832 OFFCURVE",
"1567 1096 CURVE SMOOTH"
);
},
{
closed = 1;
nodes = (
"644 658 LINE",
"671 658 LINE SMOOTH",
"781 658 OFFCURVE",
"843 609 OFFCURVE",
"848 473 CURVE SMOOTH",
"852 370 LINE SMOOTH",
"861 136 OFFCURVE",
"963 -22 OFFCURVE",
"1223 -22 CURVE SMOOTH",
"1477 -22 OFFCURVE",
"1586 125 OFFCURVE",
"1586 342 CURVE SMOOTH",
"1586 655 LINE",
"1382 655 LINE",
"1382 330 LINE SMOOTH",
"1382 273 OFFCURVE",
"1358 248 OFFCURVE",
"1316 248 CURVE SMOOTH",
"1278 248 OFFCURVE",
"1250 273 OFFCURVE",
"1250 330 CURVE SMOOTH",
"1250 357 LINE SMOOTH",
"1250 559 OFFCURVE",
"1152 700 OFFCURVE",
"882 700 CURVE SMOOTH",
"644 700 LINE"
);
},
{
closed = 1;
nodes = (
"224 0 LINE",
"644 0 LINE",
"644 1500 LINE",
"224 1500 LINE"
);
}
);
width = 1642;
}
);
leftKerningGroup = I;
leftMetricsKey = H;
rightKerningGroup = R;
unicode = 0052;
},
{
glyphname = S;
lastChange = "2020-11-16 21:05:47 +0000";
layers = (
{
anchors = (
{
name = bottom;
position = "{758, 0}";
},
{
name = top;
position = "{736, 1500}";
}
);
layerId = "CA54B7DC-FBBB-40FE-ACF3-AABDD76D6A7B";
paths = (
{
closed = 1;
nodes = (
"176 890 OFFCURVE",
"381 795 OFFCURVE",
"650 760 CURVE SMOOTH",
"866 732 LINE SMOOTH",
"1118 699 OFFCURVE",
"1320 614 OFFCURVE",
"1320 371 CURVE SMOOTH",
"1320 145 OFFCURVE",
"1161 20 OFFCURVE",
"870 20 CURVE SMOOTH",
"580 20 OFFCURVE",
"323 162 OFFCURVE",
"210 470 CURVE",
"172 470 LINE",
"271 124 OFFCURVE",
"560 -24 OFFCURVE",
"870 -24 CURVE SMOOTH",
"1179 -24 OFFCURVE",
"1368 106 OFFCURVE",
"1368 371 CURVE SMOOTH",
"1368 638 OFFCURVE",
"1160 742 OFFCURVE",
"874 779 CURVE SMOOTH",
"658 807 LINE SMOOTH",
"407 840 OFFCURVE",
"224 922 OFFCURVE",
"224 1149 CURVE SMOOTH",
"224 1367 OFFCURVE",
"380 1480 OFFCURVE",
"668 1480 CURVE SMOOTH",
"943 1480 OFFCURVE",
"1179 1351 OFFCURVE",
"1280 1050 CURVE",
"1315 1050 LINE",
"1237 1391 OFFCURVE",
"959 1524 OFFCURVE",
"668 1524 CURVE SMOOTH",
"366 1524 OFFCURVE",
"176 1406 OFFCURVE",
"176 1149 CURVE SMOOTH"
);
},
{
closed = 1;
nodes = (
"1282 1500 LINE",
"1282 1124 LINE",
"1315 1050 LINE",
"1326 1050 LINE",
"1326 1500 LINE"
);
},
{
closed = 1;
nodes = (
"208 0 LINE",
"208 392 LINE",
"172 470 LINE",
"164 470 LINE",
"164 0 LINE"
);
}
);
width = 1516;
},
{
anchors = (
{
name = bottom;
position = "{748, 0}";
},
{
name = top;
position = "{722, 1500}";
}
);
layerId = "1E61A082-F045-49A7-AB52-DD1B03FD9B54";
paths = (
{
closed = 1;
nodes = (
"208 890 OFFCURVE",
"399 812 OFFCURVE",
"646 767 CURVE SMOOTH",
"854 729 LINE SMOOTH",
"1084 687 OFFCURVE",
"1272 614 OFFCURVE",
"1272 371 CURVE SMOOTH",
"1272 142 OFFCURVE",
"1117 16 OFFCURVE",
"852 16 CURVE SMOOTH",
"580 16 OFFCURVE",
"347 178 OFFCURVE",
"240 530 CURVE",
"206 530 LINE",
"300 139 OFFCURVE",
"560 -24 OFFCURVE",
"852 -24 CURVE SMOOTH",
"1137 -24 OFFCURVE",
"1320 106 OFFCURVE",
"1320 371 CURVE SMOOTH",
"1320 638 OFFCURVE",
"1126 724 OFFCURVE",
"862 772 CURVE SMOOTH",
"654 810 LINE SMOOTH",
"425 852 OFFCURVE",
"256 922 OFFCURVE",
"256 1149 CURVE SMOOTH",
"256 1370 OFFCURVE",
"408 1484 OFFCURVE",
"670 1484 CURVE SMOOTH",
"926 1484 OFFCURVE",
"1140 1336 OFFCURVE",
"1234 990 CURVE",
"1267 990 LINE",
"1190 1374 OFFCURVE",
"942 1524 OFFCURVE",
"670 1524 CURVE SMOOTH",
"392 1524 OFFCURVE",
"208 1406 OFFCURVE",
"208 1149 CURVE SMOOTH"
);
},
{
closed = 1;
nodes = (
"1238 1500 LINE",
"1238 1064 LINE",
"1267 990 LINE",
"1278 990 LINE",
"1278 1500 LINE"
);
},
{
closed = 1;
nodes = (
"236 0 LINE",
"236 452 LINE",
"206 530 LINE",
"196 530 LINE",
"196 0 LINE"
);
}
);
width = 1494;
},
{
anchors = (
{
name = bottom;
position = "{783, 0}";
},
{
name = top;
position = "{757, 1500}";
}
);
layerId = "219068EA-2B9B-40DC-949E-B60449C01B8A";
paths = (
{
closed = 1;
nodes = (
"86 753 OFFCURVE",
"363 609 OFFCURVE",
"726 552 CURVE SMOOTH",
"866 530 LINE SMOOTH",
"994 510 OFFCURVE",
"1100 479 OFFCURVE",
"1100 371 CURVE SMOOTH",
"1100 264 OFFCURVE",
"1019 218 OFFCURVE",
"875 218 CURVE SMOOTH",
"644 218 OFFCURVE",
"447 309 OFFCURVE",
"364 480 CURVE",
"183 480 LINE",
"277 116 OFFCURVE",
"558 -22 OFFCURVE",
"911 -22 CURVE SMOOTH",
"1263 -22 OFFCURVE",
"1504 139 OFFCURVE",
"1504 455 CURVE SMOOTH",
"1504 775 OFFCURVE",
"1222 896 OFFCURVE",
"844 955 CURVE SMOOTH",
"704 977 LINE SMOOTH",
"580 996 OFFCURVE",
"484 1039 OFFCURVE",
"484 1137 CURVE SMOOTH",
"484 1235 OFFCURVE",
"568 1282 OFFCURVE",
"711 1282 CURVE SMOOTH",
"912 1282 OFFCURVE",
"1100 1198 OFFCURVE",
"1178 1041 CURVE",
"1355 1041 LINE",
"1256 1399 OFFCURVE",
"996 1522 OFFCURVE",
"672 1522 CURVE SMOOTH",
"345 1522 OFFCURVE",
"86 1379 OFFCURVE",
"86 1067 CURVE SMOOTH"
);
},
{
closed = 1;
nodes = (
"1182 1501 LINE",
"1182 1275 LINE",
"1355 1041 LINE",
"1426 1041 LINE",
"1426 1501 LINE"
);
},
{
closed = 1;
nodes = (
"360 0 LINE",
"360 287 LINE",
"183 480 LINE",
"116 480 LINE",
"116 0 LINE"
);
}
);
width = 1566;
},
{
anchors = (
{
name = bottom;
position = "{755, 0}";
},
{
name = top;
position = "{707, 1500}";
}
);
layerId = "0C29AA02-E021-4BD1-A2C4-87F681D64C35";
paths = (
{
closed = 1;
nodes = (
"102 753 OFFCURVE",
"360 605 OFFCURVE",
"698 552 CURVE SMOOTH",
"838 530 LINE SMOOTH",
"961 511 OFFCURVE",
"1062 466 OFFCURVE",
"1062 355 CURVE SMOOTH",
"1062 247 OFFCURVE",
"985 188 OFFCURVE",
"847 188 CURVE SMOOTH",
"614 188 OFFCURVE",
"416 317 OFFCURVE",
"332 540 CURVE",
"229 540 LINE",
"274 132 OFFCURVE",
"559 -22 OFFCURVE",
"893 -22 CURVE SMOOTH",
"1219 -22 OFFCURVE",
"1432 139 OFFCURVE",
"1432 455 CURVE SMOOTH",
"1432 775 OFFCURVE",
"1170 899 OFFCURVE",
"816 955 CURVE SMOOTH",
"676 977 LINE SMOOTH",
"556 996 OFFCURVE",
"466 1051 OFFCURVE",
"466 1153 CURVE SMOOTH",
"466 1254 OFFCURVE",
"546 1312 OFFCURVE",
"683 1312 CURVE SMOOTH",
"886 1312 OFFCURVE",
"1075 1190 OFFCURVE",
"1154 981 CURVE",
"1249 981 LINE",
"1190 1372 OFFCURVE",
"929 1522 OFFCURVE",
"624 1522 CURVE SMOOTH",
"322 1522 OFFCURVE",
"102 1379 OFFCURVE",
"102 1067 CURVE SMOOTH"
);
},
{
closed = 1;
nodes = (
"1136 1501 LINE",
"1136 1115 LINE",
"1249 981 LINE",
"1352 981 LINE",
"1352 1501 LINE"
);
},
{
closed = 1;
nodes = (
"350 0 LINE",
"350 387 LINE",
"229 540 LINE",
"134 540 LINE",
"134 0 LINE"
);
}
);
width = 1510;
}
);
leftKerningGroup = S;
rightKerningGroup = S;
unicode = 0053;
},
{
glyphname = T;
lastChange = "2020-11-16 21:34:58 +0000";
layers = (
{
anchors = (
{
name = bottom;
position = "{826, 0}";
},
{
name = center;
position = "{826, 750}";
},
{
name = top;
position = "{826, 1500}";
}
);
hints = (
{
origin = "{0, 2}";
scale = "{1.4, 1}";
type = Corner;
name = _corner.Serif;
},
{
origin = "{0, 3}";
scale = "{-1.4, 1}";
type = Corner;
name = _corner.Serif;
options = 1;
}
);
layerId = "CA54B7DC-FBBB-40FE-ACF3-AABDD76D6A7B";
paths = (
{
closed = 1;
nodes = (
"850 1500 LINE",
"802 1500 LINE",
"802 0 LINE",
"850 0 LINE"
);
},
{
closed = 1;
nodes = (
"1540 1500 LINE",
"112 1500 LINE",
"112 1456 LINE",
"1540 1456 LINE"
);
},
{
closed = 1;
nodes = (
"1470 1456 OFFCURVE",
"1496 1430 OFFCURVE",
"1496 1326 CURVE SMOOTH",
"1496 1040 LINE",
"1540 1040 LINE",
"1540 1456 LINE",
"1370 1456 LINE"
);
},
{
closed = 1;
nodes = (
"112 1456 LINE",
"112 1040 LINE",
"156 1040 LINE",
"156 1326 LINE SMOOTH",
"156 1430 OFFCURVE",
"182 1456 OFFCURVE",
"282 1456 CURVE"
);
}
);
width = 1652;
},
{
anchors = (
{
name = bottom;
position = "{800, 0}";
},
{
name = center;
position = "{800, 750}";
},
{
name = top;
position = "{800, 1500}";
}
);
hints = (
{
origin = "{0, 2}";
scale = "{1.6, 1}";
type = Corner;
name = _corner.Serif;
},
{
origin = "{0, 3}";
scale = "{-1.6, 1}";
type = Corner;
name = _corner.Serif;
options = 1;
}
);
layerId = "1E61A082-F045-49A7-AB52-DD1B03FD9B54";
paths = (
{
closed = 1;
nodes = (
"824 1500 LINE",
"776 1500 LINE",
"776 0 LINE",
"824 0 LINE"
);
},
{
closed = 1;
nodes = (
"1484 1500 LINE",
"116 1500 LINE",
"116 1462 LINE",
"1484 1462 LINE"
);
},
{
closed = 1;
nodes = (
"1418 1462 OFFCURVE",
"1444 1436 OFFCURVE",
"1444 1332 CURVE SMOOTH",
"1444 980 LINE",
"1484 980 LINE",
"1484 1462 LINE",
"1318 1462 LINE"
);
},
{
closed = 1;
nodes = (
"116 1462 LINE",
"116 980 LINE",
"156 980 LINE",
"156 1332 LINE SMOOTH",
"156 1436 OFFCURVE",
"182 1462 OFFCURVE",
"282 1462 CURVE"
);
}
);
width = 1600;
},
{
anchors = (
{
name = bottom;
position = "{872, 0}";
},
{
name = center;
position = "{872, 750}";
},
{
name = top;
position = "{872, 1500}";
}
);
hints = (
{
origin = "{0, 2}";
scale = "{1.4, 1}";
type = Corner;
name = _corner.Serif;
},
{
origin = "{0, 3}";
scale = "{-1.4, 1}";
type = Corner;
name = _corner.Serif;
options = 1;
}
);
layerId = "219068EA-2B9B-40DC-949E-B60449C01B8A";
paths = (
{
closed = 1;
nodes = (
"1082 1500 LINE",
"662 1500 LINE",
"662 0 LINE",
"1082 0 LINE"
);
},
{
closed = 1;
nodes = (
"1676 1500 LINE",
"68 1500 LINE",
"68 1276 LINE",
"1676 1276 LINE"
);
},
{
closed = 1;
nodes = (
"1384 1276 OFFCURVE",
"1444 1206 OFFCURVE",
"1444 1036 CURVE SMOOTH",
"1444 940 LINE",
"1676 940 LINE",
"1676 1276 LINE",
"1224 1276 LINE"
);
},
{
closed = 1;
nodes = (
"68 1276 LINE",
"68 940 LINE",
"300 940 LINE",
"300 1036 LINE SMOOTH",
"300 1206 OFFCURVE",
"360 1276 OFFCURVE",
"520 1276 CURVE"
);
}
);
width = 1744;
},
{
anchors = (
{
name = bottom;
position = "{798, 0}";
},
{
name = center;
position = "{798, 750}";
},
{
name = top;
position = "{798, 1500}";
}
);
hints = (
{
origin = "{0, 2}";
scale = "{1.8, 1}";
type = Corner;
name = _corner.Serif;
},
{
origin = "{0, 3}";
scale = "{-1.8, 1}";
type = Corner;
name = _corner.Serif;
options = 1;
}
);
layerId = "0C29AA02-E021-4BD1-A2C4-87F681D64C35";
paths = (
{
closed = 1;
nodes = (
"1008 1500 LINE",
"588 1500 LINE",
"588 0 LINE",
"1008 0 LINE"
);
},
{
closed = 1;
nodes = (
"1538 1500 LINE",
"58 1500 LINE",
"58 1294 LINE",
"1538 1294 LINE"
);
},
{
closed = 1;
nodes = (
"1280 1294 OFFCURVE",
"1340 1224 OFFCURVE",
"1340 1054 CURVE SMOOTH",
"1340 920 LINE",
"1538 920 LINE",
"1538 1294 LINE",
"1120 1294 LINE"
);
},
{
closed = 1;
nodes = (
"58 1294 LINE",
"58 920 LINE",
"256 920 LINE",
"256 1054 LINE SMOOTH",
"256 1224 OFFCURVE",
"316 1294 OFFCURVE",
"476 1294 CURVE"
);
}
);
width = 1596;
}
);
leftKerningGroup = T;
rightKerningGroup = T;
unicode = 0054;
},
{
glyphname = U;
lastChange = "2020-11-16 21:34:33 +0000";
layers = (
{
anchors = (
{
name = bottom;
position = "{901, 0}";
},
{
name = ogonek;
position = "{1622, 10}";
},
{
name = top;
position = "{912, 1500}";
},
{
name = topright;
position = "{1513, 1500}";
}
);
hints = (
{
origin = "{0, 6}";
scale = "{1.08, 1}";
type = Corner;
name = _corner.Serif;
},
{
origin = "{0, 7}";
scale = "{-1.18, 1}";
type = Corner;
name = _corner.Serif;
options = 1;
},
{
origin = "{0, 15}";
scale = "{1.18, 1}";
type = Corner;
name = _corner.Serif;
options = 1;
},
{
origin = "{0, 16}";
scale = "{-1.08, 1}";
type = Corner;
name = _corner.Serif;
}
);
layerId = "CA54B7DC-FBBB-40FE-ACF3-AABDD76D6A7B";
leftMetricsKey = "=H-16";
rightMetricsKey = "=H-16";
paths = (
{
closed = 1;
nodes = (
"289 207 OFFCURVE",
"495 -24 OFFCURVE",
"901 -24 CURVE SMOOTH",
"1307 -24 OFFCURVE",
"1513 207 OFFCURVE",
"1513 614 CURVE SMOOTH",
"1513 1500 LINE",
"1469 1500 LINE",
"1469 614 LINE SMOOTH",
"1469 250 OFFCURVE",
"1289 20 OFFCURVE",
"903 20 CURVE SMOOTH",
"517 20 OFFCURVE",
"337 250 OFFCURVE",
"337 614 CURVE SMOOTH",
"337 1500 LINE",
"289 1500 LINE",
"289 614 LINE SMOOTH"
);
}
);
width = 1802;
},
{
anchors = (
{
name = bottom;
position = "{854, 0}";
},
{
name = ogonek;
position = "{1537, 10}";
},
{
name = top;
position = "{860, 1500}";
},
{
name = topright;
position = "{1430, 1500}";
}
);
hints = (
{
origin = "{0, 6}";
scale = "{1.08, 1}";
type = Corner;
name = _corner.Serif;
},
{
origin = "{0, 7}";
scale = "{-1.18, 1}";
type = Corner;
name = _corner.Serif;
options = 1;
},
{
origin = "{0, 15}";
scale = "{1.18, 1}";
type = Corner;
name = _corner.Serif;
options = 1;
},
{
origin = "{0, 16}";
scale = "{-1.08, 1}";
type = Corner;
name = _corner.Serif;
}
);
layerId = "1E61A082-F045-49A7-AB52-DD1B03FD9B54";
leftMetricsKey = "=H-16";
rightMetricsKey = "=H-16";
paths = (
{
closed = 1;
nodes = (
"278 192 OFFCURVE",
"472 -24 OFFCURVE",
"854 -24 CURVE SMOOTH",
"1236 -24 OFFCURVE",
"1430 192 OFFCURVE",
"1430 574 CURVE SMOOTH",
"1430 1500 LINE",
"1390 1500 LINE",
"1390 574 LINE SMOOTH",
"1390 230 OFFCURVE",
"1221 14 OFFCURVE",
"858 14 CURVE SMOOTH",
"495 14 OFFCURVE",
"326 230 OFFCURVE",
"326 574 CURVE SMOOTH",
"326 1500 LINE",
"278 1500 LINE",
"278 574 LINE SMOOTH"
);
}
);
width = 1708;
},
{
anchors = (
{
name = bottom;
position = "{918, 0}";
},
{
name = ogonek;
position = "{1654, 10}";
},
{
name = top;
position = "{1005, 1500}";
},
{
name = topright;
position = "{1622, 1500}";
}
);
hints = (
{
origin = "{0, 6}";
scale = "{1.08, 1}";
type = Corner;
name = _corner.Serif;
},
{
origin = "{0, 7}";
scale = "{-1.18, 1}";
type = Corner;
name = _corner.Serif;
options = 1;
},
{
origin = "{0, 15}";
scale = "{1.18, 1}";
type = Corner;
name = _corner.Serif;
options = 1;
},
{
origin = "{0, 16}";
scale = "{-1.08, 1}";
type = Corner;
name = _corner.Serif;
}
);
layerId = "219068EA-2B9B-40DC-949E-B60449C01B8A";
leftMetricsKey = "=H-10";
rightMetricsKey = "=H-10";
paths = (
{
closed = 1;
nodes = (
"214 214 OFFCURVE",
"455 -22 OFFCURVE",
"918 -22 CURVE SMOOTH",
"1381 -22 OFFCURVE",
"1622 214 OFFCURVE",
"1622 628 CURVE SMOOTH",
"1622 1500 LINE",
"1362 1500 LINE",
"1362 618 LINE SMOOTH",
"1362 383 OFFCURVE",
"1246 241 OFFCURVE",
"1002 241 CURVE SMOOTH",
"758 241 OFFCURVE",
"642 383 OFFCURVE",
"642 618 CURVE SMOOTH",
"642 1500 LINE",
"214 1500 LINE",
"214 628 LINE SMOOTH"
);
}
);
width = 1836;
},
{
anchors = (
{
name = bottom;
position = "{869, 0}";
},
{
name = ogonek;
position = "{1559, 10}";
},
{
name = top;
position = "{954, 1500}";
},
{
name = topright;
position = "{1523, 1501}";
}
);
hints = (
{
origin = "{0, 6}";
scale = "{1.08, 1}";
type = Corner;
name = _corner.Serif;
},
{
origin = "{0, 7}";
scale = "{-1.18, 1}";
type = Corner;
name = _corner.Serif;
options = 1;
},
{
origin = "{0, 15}";
scale = "{1.18, 1}";
type = Corner;
name = _corner.Serif;
options = 1;
},
{
origin = "{0, 16}";
scale = "{-1.08, 1}";
type = Corner;
name = _corner.Serif;
}
);
layerId = "0C29AA02-E021-4BD1-A2C4-87F681D64C35";
leftMetricsKey = "=H-6";
rightMetricsKey = "=H-6";
paths = (
{
closed = 1;
nodes = (
"215 196 OFFCURVE",
"439 -22 OFFCURVE",
"869 -22 CURVE SMOOTH",
"1299 -22 OFFCURVE",
"1523 196 OFFCURVE",
"1523 578 CURVE SMOOTH",
"1523 1500 LINE",
"1291 1500 LINE",
"1291 554 LINE SMOOTH",
"1291 344 OFFCURVE",
"1186 217 OFFCURVE",
"966 217 CURVE SMOOTH",
"746 217 OFFCURVE",
"641 344 OFFCURVE",
"641 554 CURVE SMOOTH",
"641 1500 LINE",
"215 1500 LINE",
"215 578 LINE SMOOTH"
);
}
);
width = 1738;
}
);
leftKerningGroup = U;
leftMetricsKey = H;
rightKerningGroup = U;
rightMetricsKey = H;
unicode = 0055;
},
{
glyphname = V;
lastChange = "2020-11-16 21:05:47 +0000";
layers = (
{
anchors = (
{
name = bottom;
position = "{841, 0}";
},
{
name = top;
position = "{841, 1500}";
}
);
hints = (
{
origin = "{0, 0}";
scale = "{-1.28, 1}";
type = Corner;
name = _corner.Serif;
options = 1;
},
{
origin = "{0, 3}";
scale = "{1.28, 1}";
type = Corner;
name = _corner.Serif;
},
{
origin = "{0, 4}";
scale = "{-0.74, 1}";
type = Corner;
name = _corner.Serif;
options = 1;
},
{
origin = "{0, 7}";
scale = "{0.74, 1}";
type = Corner;
name = _corner.Serif;
}
);
layerId = "CA54B7DC-FBBB-40FE-ACF3-AABDD76D6A7B";
paths = (
{
closed = 1;
nodes = (
"1454 1500 LINE",
"835 47 LINE",
"852 47 LINE",
"232 1500 LINE",
"180 1500 LINE",
"822 0 LINE",
"860 0 LINE",
"1502 1500 LINE"
);
}
);
width = 1682;
},
{
anchors = (
{
name = bottom;
position = "{823, 0}";
},
{
name = top;
position = "{823, 1500}";
}
);
hints = (
{
origin = "{0, 0}";
scale = "{-1.28, 1}";
type = Corner;
name = _corner.Serif;
options = 1;
},
{
origin = "{0, 3}";
scale = "{1.28, 1}";
type = Corner;
name = _corner.Serif;
},
{
origin = "{0, 4}";
scale = "{-0.74, 1}";
type = Corner;
name = _corner.Serif;
options = 1;
},
{
origin = "{0, 7}";
scale = "{0.74, 1}";
type = Corner;
name = _corner.Serif;
}
);
layerId = "1E61A082-F045-49A7-AB52-DD1B03FD9B54";
paths = (
{
closed = 1;
nodes = (
"1410 1500 LINE",
"819 47 LINE",
"836 47 LINE",
"245 1500 LINE",
"193 1500 LINE",
"805 0 LINE",
"841 0 LINE",
"1453 1500 LINE"
);
}
);
width = 1646;
},
{
anchors = (
{
name = bottom;
position = "{912, 0}";
},
{
name = top;
position = "{912, 1500}";
}
);
hints = (
{
origin = "{0, 0}";
scale = "{-1.7, 1}";
type = Corner;
name = _corner.Serif;
options = 1;
},
{
origin = "{0, 3}";
scale = "{1.7, 1}";
type = Corner;
name = _corner.Serif;
},
{
origin = "{0, 4}";
scale = "{-0.6, 1}";
type = Corner;
name = _corner.Serif;
options = 1;
},
{
origin = "{0, 7}";
scale = "{0.6, 1}";
type = Corner;
name = _corner.Serif;
}
);
layerId = "219068EA-2B9B-40DC-949E-B60449C01B8A";
paths = (
{
closed = 1;
nodes = (
"1460 1500 LINE",
"929 231 LINE",
"1060 230 LINE",
"543 1500 LINE",
"82 1500 LINE",
"718 0 LINE",
"1106 0 LINE",
"1742 1500 LINE"
);
}
);
width = 1824;
},
{
anchors = (
{
name = bottom;
position = "{882, 0}";
},
{
name = top;
position = "{882, 1500}";
}
);
hints = (
{
origin = "{0, 0}";
scale = "{-1.7, 1}";
type = Corner;
name = _corner.Serif;
options = 1;
},
{
origin = "{0, 3}";
scale = "{1.7, 1}";
type = Corner;
name = _corner.Serif;
},
{
origin = "{0, 4}";
scale = "{-0.6, 1}";
type = Corner;
name = _corner.Serif;
options = 1;
},
{
origin = "{0, 7}";
scale = "{0.6, 1}";
type = Corner;
name = _corner.Serif;
}
);
layerId = "0C29AA02-E021-4BD1-A2C4-87F681D64C35";
paths = (
{
closed = 1;
nodes = (
"1430 1500 LINE",
"914 231 LINE",
"1053 230 LINE",
"547 1500 LINE",
"91 1500 LINE",
"707 0 LINE",
"1056 0 LINE",
"1672 1500 LINE"
);
}
);
width = 1763;
}
);
leftKerningGroup = V;
leftMetricsKey = A;
rightKerningGroup = V;
rightMetricsKey = A;
unicode = 0056;
},
{
glyphname = W;
lastChange = "2020-11-16 21:05:47 +0000";
layers = (
{
anchors = (
{
name = bottom;
position = "{1103, 0}";
},
{
name = top;
position = "{1103, 1500}";
}
);
hints = (
{
origin = "{0, 0}";
scale = "{-1.28, 1}";
type = Corner;
name = _corner.Serif;
options = 1;
},
{
origin = "{0, 3}";
scale = "{1.28, 1}";
type = Corner;
name = _corner.Serif;
},
{
origin = "{0, 4}";
scale = "{-0.74, 1}";
type = Corner;
name = _corner.Serif;
options = 1;
},
{
origin = "{0, 7}";
scale = "{0.74, 1}";
type = Corner;
name = _corner.Serif;
},
{
origin = "{1, 3}";
scale = "{1.28, 1}";
type = Corner;
name = _corner.Serif;
},
{
origin = "{1, 4}";
scale = "{-0.74, 1}";
type = Corner;
name = _corner.Serif;
options = 1;
}
);
layerId = "CA54B7DC-FBBB-40FE-ACF3-AABDD76D6A7B";
paths = (
{
closed = 1;
nodes = (
"1982 1500 LINE",
"1500 47 LINE",
"1519 47 LINE",
"1037 1500 LINE",
"986 1500 LINE",
"1486 0 LINE",
"1524 0 LINE",
"2024 1500 LINE"
);
},
{
closed = 1;
nodes = (
"1096 1252 LINE",
"696 47 LINE",
"715 47 LINE",
"233 1500 LINE",
"182 1500 LINE",
"682 0 LINE",
"720 0 LINE",
"1116 1187 LINE"
);
}
);
width = 2206;
},
{
anchors = (
{
name = bottom;
position = "{1115, 0}";
},
{
name = top;
position = "{1115, 1500}";
}
);
hints = (
{
origin = "{0, 0}";
scale = "{-1.28, 1}";
type = Corner;
name = _corner.Serif;
options = 1;
},
{
origin = "{0, 3}";
scale = "{1.28, 1}";
type = Corner;
name = _corner.Serif;
},
{
origin = "{0, 4}";
scale = "{-0.74, 1}";
type = Corner;
name = _corner.Serif;
options = 1;
},
{
origin = "{0, 7}";
scale = "{0.74, 1}";
type = Corner;
name = _corner.Serif;
},
{
origin = "{1, 3}";
scale = "{1.28, 1}";
type = Corner;
name = _corner.Serif;
},
{
origin = "{1, 4}";
scale = "{-0.74, 1}";
type = Corner;
name = _corner.Serif;
options = 1;
}
);
layerId = "1E61A082-F045-49A7-AB52-DD1B03FD9B54";
paths = (
{
closed = 1;
nodes = (
"1994 1500 LINE",
"1512 47 LINE",
"1531 47 LINE",
"1049 1500 LINE",
"998 1500 LINE",
"1498 0 LINE",
"1536 0 LINE",
"2036 1500 LINE"
);
},
{
closed = 1;
nodes = (
"1108 1252 LINE",
"708 47 LINE",
"727 47 LINE",
"245 1500 LINE",
"194 1500 LINE",
"694 0 LINE",
"732 0 LINE",
"1128 1187 LINE"
);
}
);
width = 2230;
},
{
anchors = (
{
name = bottom;
position = "{1271, 0}";
},
{
name = top;
position = "{1306, 1500}";
}
);
hints = (
{
origin = "{0, 0}";
scale = "{-1.66, 1}";
type = Corner;
name = _corner.Serif;
options = 1;
},
{
origin = "{0, 3}";
scale = "{1.66, 1}";
type = Corner;
name = _corner.Serif;
},
{
origin = "{0, 4}";
scale = "{-0.64, 1}";
type = Corner;
name = _corner.Serif;
options = 1;
},
{
origin = "{0, 7}";
scale = "{0.6, 1}";
type = Corner;
name = _corner.Serif;
},
{
origin = "{1, 3}";
scale = "{1.26, 1}";
type = Corner;
name = _corner.Serif;
},
{
origin = "{1, 4}";
scale = "{-0.5, 1}";
type = Corner;
name = _corner.Serif;
options = 1;
}
);
layerId = "219068EA-2B9B-40DC-949E-B60449C01B8A";
paths = (
{
closed = 1;
nodes = (
"2182 1500 LINE",
"1722 231 LINE",
"1862 230 LINE",
"1408 1500 LINE",
"990 1500 LINE",
"1536 0 LINE",
"1908 0 LINE",
"2454 1500 LINE"
);
},
{
closed = 1;
nodes = (
"1202 1257 LINE",
"830 231 LINE",
"970 230 LINE",
"516 1500 LINE",
"73 1500 LINE",
"619 0 LINE",
"1004 0 LINE",
"1330 895 LINE"
);
}
);
width = 2542;
},
{
anchors = (
{
name = bottom;
position = "{1161, 0}";
},
{
name = top;
position = "{1213, 1500}";
}
);
hints = (
{
origin = "{0, 0}";
scale = "{-1.66, 1}";
type = Corner;
name = _corner.Serif;
options = 1;
},
{
origin = "{0, 3}";
scale = "{1.66, 1}";
type = Corner;
name = _corner.Serif;
},
{
origin = "{0, 4}";
scale = "{-0.5, 1}";
type = Corner;
name = _corner.Serif;
options = 1;
},
{
origin = "{0, 7}";
scale = "{0.6, 1}";
type = Corner;
name = _corner.Serif;
},
{
origin = "{1, 3}";
type = Corner;
name = _corner.Serif;
},
{
origin = "{1, 4}";
scale = "{-0.6, 1}";
type = Corner;
name = _corner.Serif;
options = 1;
}
);
layerId = "0C29AA02-E021-4BD1-A2C4-87F681D64C35";
paths = (
{
closed = 1;
nodes = (
"1992 1500 LINE",
"1569 231 LINE",
"1721 230 LINE",
"1308 1500 LINE",
"884 1500 LINE",
"1390 0 LINE",
"1720 0 LINE",
"2226 1500 LINE"
);
},
{
closed = 1;
nodes = (
"1103 1140 LINE",
"800 231 LINE",
"952 230 LINE",
"539 1500 LINE",
"96 1500 LINE",
"602 0 LINE",
"932 0 LINE",
"1212 831 LINE"
);
}
);
width = 2322;
}
);
leftKerningGroup = W;
leftMetricsKey = V;
rightKerningGroup = W;
rightMetricsKey = V;
unicode = 0057;
},
{
glyphname = X;
lastChange = "2020-11-16 21:05:47 +0000";
layers = (
{
anchors = (
{
name = bottom;
position = "{839, 0}";
},
{
name = top;
position = "{839, 1500}";
}
);
hints = (
{
origin = "{0, 2}";
scale = "{0.64, 1}";
type = Corner;
name = _corner.Serif;
},
{
origin = "{0, 3}";
scale = "{-1.38, 1}";
type = Corner;
name = _corner.Serif;
options = 1;
},
{
origin = "{0, 6}";
scale = "{1.38, 1}";
type = Corner;
name = _corner.Serif;
},
{
origin = "{0, 7}";
scale = "{-0.64, 1}";
type = Corner;
name = _corner.Serif;
options = 1;
},
{
origin = "{1, 2}";
scale = "{0.66, 1}";
type = Corner;
name = _corner.Serif;
},
{
origin = "{1, 3}";
scale = "{-1.4, 1}";
type = Corner;
name = _corner.Serif;
options = 1;
},
{
origin = "{1, 6}";
scale = "{1.4, 1}";
type = Corner;
name = _corner.Serif;
},
{
origin = "{1, 7}";
scale = "{-0.66, 1}";
type = Corner;
name = _corner.Serif;
options = 1;
}
);
layerId = "CA54B7DC-FBBB-40FE-ACF3-AABDD76D6A7B";
paths = (
{
closed = 1;
nodes = (
"829 738 LINE",
"850 738 LINE",
"1476 1500 LINE",
"1419 1500 LINE",
"825 777 LINE",
"859 777 LINE",
"265 1500 LINE",
"203 1500 LINE"
);
},
{
closed = 1;
nodes = (
"849 794 LINE",
"828 794 LINE",
"176 0 LINE",
"233 0 LINE",
"853 755 LINE",
"819 755 LINE",
"1439 0 LINE",
"1501 0 LINE"
);
}
);
width = 1677;
},
{
anchors = (
{
name = bottom;
position = "{829, 0}";
},
{
name = top;
position = "{829, 1500}";
}
);
hints = (
{
origin = "{0, 2}";
scale = "{0.64, 1}";
type = Corner;
name = _corner.Serif;
},
{
origin = "{0, 3}";
scale = "{-1.38, 1}";
type = Corner;
name = _corner.Serif;
options = 1;
},
{
origin = "{0, 6}";
scale = "{1.38, 1}";
type = Corner;
name = _corner.Serif;
},
{
origin = "{0, 7}";
scale = "{-0.64, 1}";
type = Corner;
name = _corner.Serif;
options = 1;
},
{
origin = "{1, 3}";
scale = "{-1.4, 1}";
type = Corner;
name = _corner.Serif;
options = 1;
},
{
origin = "{1, 6}";
scale = "{1.4, 1}";
type = Corner;
name = _corner.Serif;
},
{
origin = "{1, 7}";
scale = "{-0.66, 1}";
type = Corner;
name = _corner.Serif;
options = 1;
},
{
origin = "{1, 2}";
scale = "{0.66, 1}";
type = Corner;
name = _corner.Serif;
}
);
layerId = "1E61A082-F045-49A7-AB52-DD1B03FD9B54";
paths = (
{
closed = 1;
nodes = (
"819 738 LINE",
"838 738 LINE",
"1435 1500 LINE",
"1382 1500 LINE",
"815 777 LINE",
"849 777 LINE",
"283 1500 LINE",
"222 1500 LINE"
);
},
{
closed = 1;
nodes = (
"838 794 LINE",
"819 794 LINE",
"197 0 LINE",
"250 0 LINE",
"842 755 LINE",
"808 755 LINE",
"1399 0 LINE",
"1460 0 LINE"
);
}
);
width = 1657;
},
{
anchors = (
{
name = bottom;
position = "{894, 0}";
},
{
name = top;
position = "{894, 1500}";
}
);
hints = (
{
origin = "{0, 2}";
scale = "{0.28, 1}";
type = Corner;
name = _corner.Serif;
},
{
origin = "{0, 3}";
scale = "{-1.72, 1}";
type = Corner;
name = _corner.Serif;
options = 1;
},
{
origin = "{0, 6}";
scale = "{1.72, 1}";
type = Corner;
name = _corner.Serif;
},
{
origin = "{0, 7}";
scale = "{-0.28, 1}";
type = Corner;
name = _corner.Serif;
options = 1;
},
{
origin = "{1, 2}";
scale = "{0.3, 1}";
type = Corner;
name = _corner.Serif;
},
{
origin = "{1, 3}";
scale = "{-1.8, 1}";
type = Corner;
name = _corner.Serif;
options = 1;
},
{
origin = "{1, 6}";
scale = "{1.8, 1}";
type = Corner;
name = _corner.Serif;
},
{
origin = "{1, 7}";
scale = "{-0.3, 1}";
type = Corner;
name = _corner.Serif;
options = 1;
}
);
layerId = "219068EA-2B9B-40DC-949E-B60449C01B8A";
paths = (
{
closed = 1;
nodes = (
"690 677 LINE",
"1034 677 LINE",
"1720 1500 LINE",
"1388 1500 LINE",
"890 900 LINE",
"1030 900 LINE",
"562 1500 LINE",
"30 1500 LINE"
);
},
{
closed = 1;
nodes = (
"1086 853 LINE",
"742 853 LINE",
"31 0 LINE",
"364 0 LINE",
"886 630 LINE",
"746 630 LINE",
"1237 0 LINE",
"1770 0 LINE"
);
}
);
width = 1787;
},
{
anchors = (
{
name = bottom;
position = "{850, 0}";
},
{
name = top;
position = "{850, 1500}";
}
);
hints = (
{
origin = "{0, 2}";
scale = "{0.28, 1}";
type = Corner;
name = _corner.Serif;
},
{
origin = "{0, 3}";
scale = "{-1.72, 1}";
type = Corner;
name = _corner.Serif;
options = 1;
},
{
origin = "{0, 6}";
scale = "{1.72, 1}";
type = Corner;
name = _corner.Serif;
},
{
origin = "{0, 7}";
scale = "{-0.28, 1}";
type = Corner;
name = _corner.Serif;
options = 1;
},
{
origin = "{1, 3}";
scale = "{-1.8, 1}";
type = Corner;
name = _corner.Serif;
options = 1;
},
{
origin = "{1, 6}";
scale = "{1.8, 1}";
type = Corner;
name = _corner.Serif;
},
{
origin = "{1, 7}";
scale = "{-0.3, 1}";
type = Corner;
name = _corner.Serif;
options = 1;
},
{
origin = "{1, 2}";
scale = "{0.3, 1}";
type = Corner;
name = _corner.Serif;
}
);
layerId = "0C29AA02-E021-4BD1-A2C4-87F681D64C35";
paths = (
{
closed = 1;
nodes = (
"647 677 LINE",
"945 677 LINE",
"1626 1500 LINE",
"1339 1500 LINE",
"847 900 LINE",
"982 900 LINE",
"552 1500 LINE",
"30 1500 LINE"
);
},
{
closed = 1;
nodes = (
"1031 853 LINE",
"733 853 LINE",
"27 0 LINE",
"315 0 LINE",
"831 630 LINE",
"697 630 LINE",
"1148 0 LINE",
"1671 0 LINE"
);
}
);
width = 1700;
}
);
leftKerningGroup = X;
rightKerningGroup = X;
unicode = 0058;
},
{
glyphname = Y;
lastChange = "2020-11-16 21:19:31 +0000";
layers = (
{
anchors = (
{
name = bottom;
position = "{806, 0}";
},
{
name = top;
position = "{806, 1500}";
},
{
name = topleft;
position = "{20, 1500}";
}
);
hints = (
{
origin = "{0, 2}";
scale = "{1.4, 1}";
type = Corner;
name = _corner.Serif;
},
{
origin = "{0, 3}";
scale = "{-1.4, 1}";
type = Corner;
name = _corner.Serif;
options = 1;
},
{
origin = "{1, 0}";
scale = "{-1.38, 1}";
type = Corner;
name = _corner.Serif;
options = 1;
},
{
origin = "{1, 3}";
scale = "{1.38, 1}";
type = Corner;
name = _corner.Serif;
},
{
origin = "{1, 4}";
scale = "{-0.64, 1}";
type = Corner;
name = _corner.Serif;
options = 1;
},
{
origin = "{1, 7}";
scale = "{0.64, 1}";
type = Corner;
name = _corner.Serif;
}
);
layerId = "CA54B7DC-FBBB-40FE-ACF3-AABDD76D6A7B";
leftMetricsKey = "=V-24";
rightMetricsKey = "=V-24";
paths = (
{
closed = 1;
nodes = (
"830 630 LINE",
"782 630 LINE",
"782 0 LINE",
"830 0 LINE"
);
},
{
closed = 1;
nodes = (
"1429 1500 LINE",
"802 633 LINE",
"818 633 LINE",
"188 1500 LINE",
"129 1500 LINE",
"785 597 LINE",
"827 597 LINE",
"1483 1500 LINE"
);
}
);
width = 1612;
},
{
anchors = (
{
name = bottom;
position = "{816, 0}";
},
{
name = top;
position = "{816, 1500}";
},
{
name = topleft;
position = "{20, 1500}";
}
);
hints = (
{
origin = "{0, 2}";
scale = "{1.6, 1}";
type = Corner;
name = _corner.Serif;
},
{
origin = "{0, 3}";
scale = "{-1.6, 1}";
type = Corner;
name = _corner.Serif;
options = 1;
},
{
origin = "{1, 0}";
scale = "{-1.38, 1}";
type = Corner;
name = _corner.Serif;
options = 1;
},
{
origin = "{1, 3}";
scale = "{1.38, 1}";
type = Corner;
name = _corner.Serif;
},
{
origin = "{1, 4}";
scale = "{-0.64, 1}";
type = Corner;
name = _corner.Serif;
options = 1;
},
{
origin = "{1, 7}";
scale = "{0.64, 1}";
type = Corner;
name = _corner.Serif;
}
);
layerId = "1E61A082-F045-49A7-AB52-DD1B03FD9B54";
paths = (
{
closed = 1;
nodes = (
"840 640 LINE",
"792 640 LINE",
"792 0 LINE",
"840 0 LINE"
);
},
{
closed = 1;
nodes = (
"1416 1500 LINE",
"813 643 LINE",
"828 643 LINE",
"224 1500 LINE",
"165 1500 LINE",
"795 607 LINE",
"837 607 LINE",
"1467 1500 LINE"
);
}
);
width = 1632;
},
{
anchors = (
{
name = bottom;
position = "{876, 0}";
},
{
name = top;
position = "{952, 1500}";
},
{
name = topleft;
position = "{21, 1500}";
}
);
hints = (
{
origin = "{0, 2}";
scale = "{1.4, 1}";
type = Corner;
name = _corner.Serif;
},
{
origin = "{0, 3}";
scale = "{-1.4, 1}";
type = Corner;
name = _corner.Serif;
options = 1;
},
{
origin = "{1, 0}";
scale = "{-1.7, 1}";
type = Corner;
name = _corner.Serif;
options = 1;
},
{
origin = "{1, 3}";
scale = "{1.7, 1}";
type = Corner;
name = _corner.Serif;
},
{
origin = "{1, 4}";
scale = "{-0.36, 1}";
type = Corner;
name = _corner.Serif;
options = 1;
},
{
origin = "{1, 7}";
scale = "{0.36, 1}";
type = Corner;
name = _corner.Serif;
}
);
layerId = "219068EA-2B9B-40DC-949E-B60449C01B8A";
paths = (
{
closed = 1;
nodes = (
"1086 772 LINE",
"666 772 LINE",
"666 0 LINE",
"1086 0 LINE"
);
},
{
closed = 1;
nodes = (
"1426 1500 LINE",
"924 751 LINE",
"1025 751 LINE",
"526 1500 LINE",
"21 1500 LINE",
"681 528 LINE",
"1071 528 LINE",
"1731 1500 LINE"
);
}
);
width = 1752;
},
{
anchors = (
{
name = bottom;
position = "{831, 0}";
},
{
name = top;
position = "{921, 1500}";
},
{
name = topleft;
position = "{20, 1500}";
}
);
hints = (
{
origin = "{0, 2}";
scale = "{1.8, 1}";
type = Corner;
name = _corner.Serif;
},
{
origin = "{0, 3}";
scale = "{-1.8, 1}";
type = Corner;
name = _corner.Serif;
options = 1;
},
{
origin = "{1, 0}";
scale = "{-1.7, 1}";
type = Corner;
name = _corner.Serif;
options = 1;
},
{
origin = "{1, 3}";
scale = "{1.7, 1}";
type = Corner;
name = _corner.Serif;
},
{
origin = "{1, 4}";
scale = "{-0.36, 1}";
type = Corner;
name = _corner.Serif;
options = 1;
},
{
origin = "{1, 7}";
scale = "{0.36, 1}";
type = Corner;
name = _corner.Serif;
}
);
layerId = "0C29AA02-E021-4BD1-A2C4-87F681D64C35";
paths = (
{
closed = 1;
nodes = (
"1041 792 LINE",
"621 792 LINE",
"621 0 LINE",
"1041 0 LINE"
);
},
{
closed = 1;
nodes = (
"1361 1500 LINE",
"910 771 LINE",
"977 771 LINE",
"530 1500 LINE",
"36 1500 LINE",
"636 548 LINE",
"1026 548 LINE",
"1626 1500 LINE"
);
}
);
width = 1662;
}
);
leftKerningGroup = Y;
leftMetricsKey = V;
rightKerningGroup = Y;
rightMetricsKey = V;
unicode = 0059;
},
{
glyphname = Z;
lastChange = "2020-11-16 21:05:47 +0000";
layers = (
{
anchors = (
{
name = bottom;
position = "{751, 0}";
},
{
name = center;
position = "{751, 750}";
},
{
name = top;
position = "{751, 1500}";
}
);
layerId = "CA54B7DC-FBBB-40FE-ACF3-AABDD76D6A7B";
paths = (
{
closed = 1;
nodes = (
"176 1456 LINE",
"1295 1456 LINE",
"1360 1460 LINE",
"1360 1500 LINE",
"176 1500 LINE"
);
},
{
closed = 1;
nodes = (
"132 0 LINE",
"1352 0 LINE",
"1352 44 LINE",
"197 44 LINE",
"132 40 LINE"
);
},
{
closed = 1;
nodes = (
"197 44 LINE",
"1360 1460 LINE",
"1295 1456 LINE",
"132 40 LINE"
);
},
{
closed = 1;
nodes = (
"176 1456 LINE",
"176 1020 LINE",
"220 1020 LINE",
"220 1326 LINE SMOOTH",
"220 1430 OFFCURVE",
"246 1456 OFFCURVE",
"346 1456 CURVE"
);
},
{
closed = 1;
nodes = (
"1352 44 LINE",
"1352 500 LINE",
"1308 500 LINE",
"1308 174 LINE SMOOTH",
"1308 70 OFFCURVE",
"1282 44 OFFCURVE",
"1182 44 CURVE"
);
}
);
width = 1502;
},
{
anchors = (
{
name = bottom;
position = "{736, 0}";
},
{
name = center;
position = "{736, 750}";
},
{
name = top;
position = "{736, 1500}";
}
);
layerId = "1E61A082-F045-49A7-AB52-DD1B03FD9B54";
paths = (
{
closed = 1;
nodes = (
"196 1462 LINE",
"1256 1462 LINE",
"1320 1466 LINE",
"1320 1500 LINE",
"196 1500 LINE"
);
},
{
closed = 1;
nodes = (
"152 0 LINE",
"1312 0 LINE",
"1312 38 LINE",
"216 38 LINE",
"152 34 LINE"
);
},
{
closed = 1;
nodes = (
"216 38 LINE",
"1320 1466 LINE",
"1256 1462 LINE",
"152 34 LINE"
);
},
{
closed = 1;
nodes = (
"196 1462 LINE",
"196 960 LINE",
"236 960 LINE",
"236 1332 LINE SMOOTH",
"236 1436 OFFCURVE",
"262 1462 OFFCURVE",
"362 1462 CURVE"
);
},
{
closed = 1;
nodes = (
"1312 38 LINE",
"1312 560 LINE",
"1272 560 LINE",
"1272 168 LINE SMOOTH",
"1272 64 OFFCURVE",
"1246 38 OFFCURVE",
"1146 38 CURVE"
);
}
);
width = 1472;
},
{
anchors = (
{
name = bottom;
position = "{788, 0}";
},
{
name = center;
position = "{788, 750}";
},
{
name = top;
position = "{802, 1500}";
}
);
layerId = "219068EA-2B9B-40DC-949E-B60449C01B8A";
paths = (
{
closed = 1;
nodes = (
"130 1282 LINE",
"945 1282 LINE",
"1491 1296 LINE",
"1491 1500 LINE",
"130 1500 LINE"
);
},
{
closed = 1;
nodes = (
"80 0 LINE",
"1481 0 LINE",
"1481 218 LINE",
"626 218 LINE",
"80 204 LINE"
);
},
{
closed = 1;
nodes = (
"626 218 LINE",
"1491 1296 LINE",
"945 1282 LINE",
"80 204 LINE"
);
},
{
closed = 1;
nodes = (
"130 1282 LINE",
"130 920 LINE",
"362 920 LINE",
"362 1042 LINE SMOOTH",
"362 1212 OFFCURVE",
"422 1282 OFFCURVE",
"582 1282 CURVE"
);
},
{
closed = 1;
nodes = (
"1481 218 LINE",
"1481 600 LINE",
"1249 600 LINE",
"1249 458 LINE SMOOTH",
"1249 288 OFFCURVE",
"1189 218 OFFCURVE",
"1029 218 CURVE"
);
}
);
width = 1575;
},
{
anchors = (
{
name = bottom;
position = "{742, 0}";
},
{
name = center;
position = "{742, 750}";
},
{
name = top;
position = "{760, 1500}";
}
);
layerId = "0C29AA02-E021-4BD1-A2C4-87F681D64C35";
paths = (
{
closed = 1;
nodes = (
"134 1300 LINE",
"873 1300 LINE",
"1393 1314 LINE",
"1393 1500 LINE",
"134 1500 LINE"
);
},
{
closed = 1;
nodes = (
"84 0 LINE",
"1383 0 LINE",
"1383 200 LINE",
"604 200 LINE",
"84 186 LINE"
);
},
{
closed = 1;
nodes = (
"604 200 LINE",
"1393 1314 LINE",
"873 1300 LINE",
"84 186 LINE"
);
},
{
closed = 1;
nodes = (
"134 1300 LINE",
"134 900 LINE",
"332 900 LINE",
"332 1060 LINE SMOOTH",
"332 1230 OFFCURVE",
"392 1300 OFFCURVE",
"552 1300 CURVE"
);
},
{
closed = 1;
nodes = (
"1383 200 LINE",
"1383 620 LINE",
"1185 620 LINE",
"1185 440 LINE SMOOTH",
"1185 270 OFFCURVE",
"1125 200 OFFCURVE",
"965 200 CURVE"
);
}
);
width = 1483;
}
);
leftKerningGroup = Z;
rightKerningGroup = Z;
unicode = 005A;
},
{
glyphname = a;
lastChange = "2020-11-17 14:23:11 +0000";
layers = (
{
anchors = (
{
name = bottom;
position = "{694, 0}";
},
{
name = ogonek;
position = "{1257, 10}";
},
{
name = top;
position = "{618, 1100}";
}
);
layerId = "CA54B7DC-FBBB-40FE-ACF3-AABDD76D6A7B";
paths = (
{
closed = 1;
nodes = (
"677 565 LINE SMOOTH",
"823 595 OFFCURVE",
"907 627 OFFCURVE",
"946 706 CURVE",
"946 840 LINE",
"946 684 OFFCURVE",
"832 642 OFFCURVE",
"668 608 CURVE SMOOTH",
"484 570 LINE SMOOTH",
"286 529 OFFCURVE",
"140 451 OFFCURVE",
"140 257 CURVE SMOOTH",
"140 85 OFFCURVE",
"287 -16 OFFCURVE",
"499 -16 CURVE SMOOTH",
"776 -16 OFFCURVE",
"987 143 OFFCURVE",
"985 546 CURVE",
"946 546 LINE",
"946 169 OFFCURVE",
"745 28 OFFCURVE",
"505 28 CURVE SMOOTH",
"322 28 OFFCURVE",
"188 110 OFFCURVE",
"188 257 CURVE SMOOTH",
"188 436 OFFCURVE",
"328 494 OFFCURVE",
"501 529 CURVE SMOOTH"
);
},
{
closed = 1;
nodes = (
"946 706 LINE",
"946 330 LINE",
"950 330 LINE",
"950 198 LINE SMOOTH",
"950 62 OFFCURVE",
"1023 -16 OFFCURVE",
"1141 -16 CURVE SMOOTH",
"1259 -16 OFFCURVE",
"1330 62 OFFCURVE",
"1330 198 CURVE SMOOTH",
"1330 540 LINE",
"1286 540 LINE",
"1286 198 LINE SMOOTH",
"1286 95 OFFCURVE",
"1238 24 OFFCURVE",
"1141 24 CURVE SMOOTH",
"1043 24 OFFCURVE",
"994 95 OFFCURVE",
"994 198 CURVE SMOOTH",
"994 830 LINE",
"946 848 LINE"
);
},
{
closed = 1;
nodes = (
"205 787 OFFCURVE",
"240 750 OFFCURVE",
"284 750 CURVE SMOOTH",
"319 750 OFFCURVE",
"340 771 OFFCURVE",
"340 805 CURVE SMOOTH",
"340 849 OFFCURVE",
"288 874 OFFCURVE",
"237 867 CURVE",
"254 854 LINE",
"247 1006 OFFCURVE",
"429 1072 OFFCURVE",
"623 1072 CURVE SMOOTH",
"846 1072 OFFCURVE",
"946 984 OFFCURVE",
"946 848 CURVE",
"994 830 LINE",
"994 1024 OFFCURVE",
"859 1116 OFFCURVE",
"625 1116 CURVE SMOOTH",
"406 1116 OFFCURVE",
"205 1030 OFFCURVE",
"205 852 CURVE SMOOTH"
);
}
);
width = 1402;
},
{
anchors = (
{
name = bottom;
position = "{646, 0}";
},
{
name = ogonek;
position = "{1164, 10}";
},
{
name = top;
position = "{566, 1080}";
}
);
layerId = "1E61A082-F045-49A7-AB52-DD1B03FD9B54";
paths = (
{
closed = 1;
nodes = (
"612 562 LINE SMOOTH",
"767 596 OFFCURVE",
"835 628 OFFCURVE",
"872 704 CURVE",
"872 810 LINE",
"872 666 OFFCURVE",
"761 634 OFFCURVE",
"604 599 CURVE SMOOTH",
"442 563 LINE SMOOTH",
"249 520 OFFCURVE",
"116 443 OFFCURVE",
"116 255 CURVE SMOOTH",
"116 86 OFFCURVE",
"250 -16 OFFCURVE",
"446 -16 CURVE SMOOTH",
"711 -16 OFFCURVE",
"901 140 OFFCURVE",
"899 536 CURVE",
"872 536 LINE",
"872 162 OFFCURVE",
"680 22 OFFCURVE",
"452 22 CURVE SMOOTH",
"284 22 OFFCURVE",
"164 107 OFFCURVE",
"164 255 CURVE SMOOTH",
"164 415 OFFCURVE",
"269 486 OFFCURVE",
"458 528 CURVE SMOOTH"
);
},
{
closed = 1;
nodes = (
"872 704 LINE",
"872 380 LINE",
"876 380 LINE",
"876 166 LINE SMOOTH",
"876 50 OFFCURVE",
"938 -16 OFFCURVE",
"1040 -16 CURVE SMOOTH",
"1142 -16 OFFCURVE",
"1204 50 OFFCURVE",
"1204 166 CURVE SMOOTH",
"1204 620 LINE",
"1160 620 LINE",
"1160 166 LINE SMOOTH",
"1160 82 OFFCURVE",
"1119 24 OFFCURVE",
"1040 24 CURVE SMOOTH",
"961 24 OFFCURVE",
"920 82 OFFCURVE",
"920 166 CURVE SMOOTH",
"920 800 LINE",
"872 818 LINE"
);
},
{
closed = 1;
nodes = (
"190 747 OFFCURVE",
"223 710 OFFCURVE",
"267 710 CURVE SMOOTH",
"301 710 OFFCURVE",
"321 731 OFFCURVE",
"321 765 CURVE SMOOTH",
"321 809 OFFCURVE",
"269 834 OFFCURVE",
"218 827 CURVE",
"235 811 LINE",
"229 993 OFFCURVE",
"393 1058 OFFCURVE",
"570 1058 CURVE SMOOTH",
"781 1058 OFFCURVE",
"872 967 OFFCURVE",
"872 818 CURVE",
"920 800 LINE",
"920 1005 OFFCURVE",
"794 1096 OFFCURVE",
"572 1096 CURVE SMOOTH",
"372 1096 OFFCURVE",
"190 1013 OFFCURVE",
"190 812 CURVE SMOOTH"
);
}
);
width = 1294;
},
{
associatedMasterId = "CA54B7DC-FBBB-40FE-ACF3-AABDD76D6A7B";
layerId = "0536A818-D7E4-477E-A2C8-13EA6A8F5ED4";
name = "Aug 25 20, 14:38";
paths = (
{
closed = 1;
nodes = (
"226 784 OFFCURVE",
"238 742 OFFCURVE",
"272 742 CURVE SMOOTH",
"293 742 OFFCURVE",
"303 756 OFFCURVE",
"303 777 CURVE SMOOTH",
"303 812 OFFCURVE",
"285 822 OFFCURVE",
"285 882 CURVE SMOOTH",
"285 996 OFFCURVE",
"419 1076 OFFCURVE",
"616 1076 CURVE SMOOTH",
"813 1076 OFFCURVE",
"910 996 OFFCURVE",
"910 848 CURVE",
"958 830 LINE",
"958 1026 OFFCURVE",
"829 1116 OFFCURVE",
"618 1116 CURVE SMOOTH",
"402 1116 OFFCURVE",
"226 1026 OFFCURVE",
"226 844 CURVE SMOOTH"
);
},
{
closed = 1;
nodes = (
"650 568 LINE SMOOTH",
"805 606 OFFCURVE",
"875 632 OFFCURVE",
"910 706 CURVE",
"910 840 LINE",
"910 683 OFFCURVE",
"800 647 OFFCURVE",
"642 608 CURVE SMOOTH",
"488 570 LINE SMOOTH",
"279 518 OFFCURVE",
"166 436 OFFCURVE",
"166 257 CURVE SMOOTH",
"166 85 OFFCURVE",
"298 -16 OFFCURVE",
"492 -16 CURVE SMOOTH",
"752 -16 OFFCURVE",
"950 143 OFFCURVE",
"948 546 CURVE",
"910 546 LINE",
"910 166 OFFCURVE",
"722 24 OFFCURVE",
"498 24 CURVE SMOOTH",
"332 24 OFFCURVE",
"214 107 OFFCURVE",
"214 257 CURVE SMOOTH",
"214 424 OFFCURVE",
"323 487 OFFCURVE",
"504 532 CURVE SMOOTH"
);
},
{
closed = 1;
nodes = (
"910 330 LINE",
"914 330 LINE",
"914 158 LINE SMOOTH",
"914 47 OFFCURVE",
"973 -16 OFFCURVE",
"1070 -16 CURVE SMOOTH",
"1167 -16 OFFCURVE",
"1226 47 OFFCURVE",
"1226 158 CURVE SMOOTH",
"1226 240 LINE",
"1182 240 LINE",
"1182 158 LINE SMOOTH",
"1182 79 OFFCURVE",
"1144 24 OFFCURVE",
"1070 24 CURVE SMOOTH",
"996 24 OFFCURVE",
"958 79 OFFCURVE",
"958 158 CURVE SMOOTH",
"958 830 LINE",
"910 848 LINE"
);
}
);
width = 1282;
},
{
associatedMasterId = "1E61A082-F045-49A7-AB52-DD1B03FD9B54";
layerId = "F53F3C62-3605-4696-AA8D-BFAEBE8FB8E8";
name = "Aug 25 20, 14:38";
paths = (
{
closed = 1;
nodes = (
"188 726 OFFCURVE",
"204 674 OFFCURVE",
"239 674 CURVE SMOOTH",
"258 674 OFFCURVE",
"269 686 OFFCURVE",
"269 706 CURVE SMOOTH",
"269 740 OFFCURVE",
"243 752 OFFCURVE",
"243 818 CURVE SMOOTH",
"243 972 OFFCURVE",
"405 1056 OFFCURVE",
"584 1056 CURVE SMOOTH",
"782 1056 OFFCURVE",
"868 970 OFFCURVE",
"868 838 CURVE",
"916 820 LINE",
"916 1007 OFFCURVE",
"796 1096 OFFCURVE",
"586 1096 CURVE SMOOTH",
"378 1096 OFFCURVE",
"188 999 OFFCURVE",
"188 790 CURVE SMOOTH"
);
},
{
closed = 1;
nodes = (
"608 557 LINE SMOOTH",
"763 593 OFFCURVE",
"833 622 OFFCURVE",
"868 696 CURVE",
"868 830 LINE",
"868 672 OFFCURVE",
"758 634 OFFCURVE",
"600 597 CURVE SMOOTH",
"446 561 LINE SMOOTH",
"256 517 OFFCURVE",
"124 441 OFFCURVE",
"124 253 CURVE SMOOTH",
"124 84 OFFCURVE",
"256 -16 OFFCURVE",
"450 -16 CURVE SMOOTH",
"710 -16 OFFCURVE",
"908 140 OFFCURVE",
"906 536 CURVE",
"868 536 LINE",
"868 163 OFFCURVE",
"680 24 OFFCURVE",
"456 24 CURVE SMOOTH",
"290 24 OFFCURVE",
"172 106 OFFCURVE",
"172 253 CURVE SMOOTH",
"172 413 OFFCURVE",
"276 480 OFFCURVE",
"462 523 CURVE SMOOTH"
);
},
{
closed = 1;
nodes = (
"868 320 LINE",
"872 320 LINE",
"872 176 LINE SMOOTH",
"872 54 OFFCURVE",
"938 -16 OFFCURVE",
"1046 -16 CURVE SMOOTH",
"1154 -16 OFFCURVE",
"1220 54 OFFCURVE",
"1220 176 CURVE SMOOTH",
"1220 570 LINE",
"1176 570 LINE",
"1176 176 LINE SMOOTH",
"1176 86 OFFCURVE",
"1132 24 OFFCURVE",
"1046 24 CURVE SMOOTH",
"960 24 OFFCURVE",
"916 86 OFFCURVE",
"916 176 CURVE SMOOTH",
"916 820 LINE",
"868 838 LINE"
);
}
);
width = 1268;
},
{
anchors = (
{
name = bottom;
position = "{779, 0}";
},
{
name = ogonek;
position = "{1410, 10}";
},
{
name = top;
position = "{679, 1160}";
}
);
layerId = "219068EA-2B9B-40DC-949E-B60449C01B8A";
paths = (
{
closed = 1;
nodes = (
"660 546 LINE SMOOTH",
"723 572 OFFCURVE",
"762 606 OFFCURVE",
"784 651 CURVE",
"788 854 LINE",
"788 760 OFFCURVE",
"728 724 OFFCURVE",
"615 693 CURVE SMOOTH",
"421 640 LINE SMOOTH",
"214 583 OFFCURVE",
"76 496 OFFCURVE",
"76 292 CURVE SMOOTH",
"76 99 OFFCURVE",
"234 -22 OFFCURVE",
"460 -22 CURVE SMOOTH",
"675 -22 OFFCURVE",
"858 110 OFFCURVE",
"858 456 CURVE",
"784 463 LINE",
"784 312 OFFCURVE",
"696 262 OFFCURVE",
"614 262 CURVE SMOOTH",
"542 262 OFFCURVE",
"486 302 OFFCURVE",
"486 378 CURVE SMOOTH",
"486 454 OFFCURVE",
"531 492 OFFCURVE",
"624 531 CURVE SMOOTH"
);
},
{
closed = 1;
nodes = (
"784 651 LINE",
"784 378 LINE",
"829 360 LINE",
"829 348 LINE SMOOTH",
"829 112 OFFCURVE",
"956 -22 OFFCURVE",
"1204 -22 CURVE SMOOTH",
"1450 -22 OFFCURVE",
"1570 121 OFFCURVE",
"1570 351 CURVE SMOOTH",
"1570 620 LINE",
"1320 620 LINE",
"1320 332 LINE SMOOTH",
"1320 279 OFFCURVE",
"1292 242 OFFCURVE",
"1239 242 CURVE SMOOTH",
"1189 242 OFFCURVE",
"1160 279 OFFCURVE",
"1160 332 CURVE SMOOTH",
"1160 759 LINE",
"788 853 LINE"
);
},
{
closed = 1;
nodes = (
"148 786 OFFCURVE",
"258 726 OFFCURVE",
"379 726 CURVE SMOOTH",
"502 726 OFFCURVE",
"573 792 OFFCURVE",
"575 884 CURVE SMOOTH",
"577 981 OFFCURVE",
"498 1023 OFFCURVE",
"369 1030 CURVE",
"359 847 LINE",
"385 961 OFFCURVE",
"496 1002 OFFCURVE",
"610 1002 CURVE SMOOTH",
"712 1002 OFFCURVE",
"788 954 OFFCURVE",
"788 853 CURVE",
"1160 759 LINE",
"1163 1040 OFFCURVE",
"992 1182 OFFCURVE",
"679 1182 CURVE SMOOTH",
"407 1182 OFFCURVE",
"148 1088 OFFCURVE",
"148 914 CURVE SMOOTH"
);
}
);
width = 1594;
},
{
anchors = (
{
name = bottom;
position = "{719, 0}";
},
{
name = ogonek;
position = "{1313, 10}";
},
{
name = top;
position = "{639, 1140}";
}
);
layerId = "0C29AA02-E021-4BD1-A2C4-87F681D64C35";
paths = (
{
closed = 1;
nodes = (
"613 532 LINE SMOOTH",
"666 557 OFFCURVE",
"699 589 OFFCURVE",
"714 631 CURVE",
"718 832 LINE",
"718 743 OFFCURVE",
"666 700 OFFCURVE",
"565 671 CURVE SMOOTH",
"383 618 LINE SMOOTH",
"188 561 OFFCURVE",
"46 470 OFFCURVE",
"46 278 CURVE SMOOTH",
"46 101 OFFCURVE",
"181 -22 OFFCURVE",
"410 -22 CURVE SMOOTH",
"644 -22 OFFCURVE",
"777 114 OFFCURVE",
"779 410 CURVE",
"714 433 LINE",
"714 299 OFFCURVE",
"648 246 OFFCURVE",
"568 246 CURVE SMOOTH",
"500 246 OFFCURVE",
"450 291 OFFCURVE",
"450 367 CURVE SMOOTH",
"450 440 OFFCURVE",
"500 479 OFFCURVE",
"581 517 CURVE SMOOTH"
);
},
{
closed = 1;
nodes = (
"714 631 LINE",
"714 360 LINE",
"761 350 LINE",
"761 328 LINE SMOOTH",
"761 104 OFFCURVE",
"869 -22 OFFCURVE",
"1086 -22 CURVE SMOOTH",
"1319 -22 OFFCURVE",
"1420 113 OFFCURVE",
"1420 331 CURVE SMOOTH",
"1420 720 LINE",
"1222 720 LINE",
"1222 318 LINE SMOOTH",
"1222 271 OFFCURVE",
"1197 242 OFFCURVE",
"1153 242 CURVE SMOOTH",
"1115 242 OFFCURVE",
"1090 271 OFFCURVE",
"1090 318 CURVE SMOOTH",
"1090 759 LINE",
"718 831 LINE"
);
},
{
closed = 1;
nodes = (
"116 739 OFFCURVE",
"221 682 OFFCURVE",
"337 682 CURVE SMOOTH",
"466 682 OFFCURVE",
"543 751 OFFCURVE",
"543 846 CURVE SMOOTH",
"543 951 OFFCURVE",
"455 988 OFFCURVE",
"317 988 CURVE",
"317 865 LINE",
"344 944 OFFCURVE",
"435 1002 OFFCURVE",
"548 1002 CURVE SMOOTH",
"655 1002 OFFCURVE",
"718 949 OFFCURVE",
"718 831 CURVE",
"1090 759 LINE",
"1093 1027 OFFCURVE",
"922 1162 OFFCURVE",
"615 1162 CURVE SMOOTH",
"353 1162 OFFCURVE",
"116 1057 OFFCURVE",
"116 862 CURVE SMOOTH"
);
}
);
width = 1432;
}
);
leftKerningGroup = a;
rightKerningGroup = a;
unicode = 0061;
},
{
glyphname = b;
lastChange = "2020-11-17 14:22:20 +0000";
layers = (
{
anchors = (
{
name = bottom;
position = "{713, 0}";
},
{
name = top;
position = "{713, 1560}";
}
);
hints = (
{
origin = "{0, 5}";
scale = "{-0.9, 1}";
type = Corner;
name = _corner.Serif;
}
);
layerId = "CA54B7DC-FBBB-40FE-ACF3-AABDD76D6A7B";
paths = (
{
closed = 1;
nodes = (
"314 0 LINE",
"314 334 LINE",
"288 550 LINE",
"318 746 LINE",
"318 1560 LINE",
"270 1560 LINE",
"270 0 LINE"
);
},
{
closed = 1;
nodes = (
"467 1116 OFFCURVE",
"274 902 OFFCURVE",
"274 551 CURVE",
"274 549 LINE",
"274 198 OFFCURVE",
"467 -16 OFFCURVE",
"784 -16 CURVE SMOOTH",
"1081 -16 OFFCURVE",
"1294 198 OFFCURVE",
"1294 550 CURVE SMOOTH",
"1294 902 OFFCURVE",
"1081 1116 OFFCURVE",
"784 1116 CURVE SMOOTH"
);
},
{
closed = 1;
nodes = (
"1055 1072 OFFCURVE",
"1246 877 OFFCURVE",
"1246 550 CURVE SMOOTH",
"1246 223 OFFCURVE",
"1055 28 OFFCURVE",
"784 28 CURVE SMOOTH",
"509 28 OFFCURVE",
"314 223 OFFCURVE",
"314 550 CURVE SMOOTH",
"314 877 OFFCURVE",
"509 1072 OFFCURVE",
"784 1072 CURVE SMOOTH"
);
}
);
width = 1428;
},
{
anchors = (
{
name = bottom;
position = "{645, 0}";
},
{
name = top;
position = "{645, 1500}";
}
);
hints = (
{
origin = "{0, 5}";
scale = "{-0.9, 1}";
type = Corner;
name = _corner.Serif;
}
);
layerId = "1E61A082-F045-49A7-AB52-DD1B03FD9B54";
paths = (
{
closed = 1;
nodes = (
"265 0 LINE",
"265 324 LINE",
"249 540 LINE",
"269 736 LINE",
"269 1500 LINE",
"221 1500 LINE",
"221 0 LINE"
);
},
{
closed = 1;
nodes = (
"404 1096 OFFCURVE",
"239 887 OFFCURVE",
"239 541 CURVE",
"239 539 LINE",
"239 193 OFFCURVE",
"403 -16 OFFCURVE",
"697 -16 CURVE SMOOTH",
"971 -16 OFFCURVE",
"1169 194 OFFCURVE",
"1169 540 CURVE SMOOTH",
"1169 886 OFFCURVE",
"971 1096 OFFCURVE",
"697 1096 CURVE SMOOTH"
);
},
{
closed = 1;
nodes = (
"945 1058 OFFCURVE",
"1121 865 OFFCURVE",
"1121 540 CURVE SMOOTH",
"1121 215 OFFCURVE",
"945 22 OFFCURVE",
"697 22 CURVE SMOOTH",
"445 22 OFFCURVE",
"265 215 OFFCURVE",
"265 540 CURVE SMOOTH",
"265 865 OFFCURVE",
"445 1058 OFFCURVE",
"697 1058 CURVE SMOOTH"
);
}
);
width = 1279;
},
{
anchors = (
{
name = bottom;
position = "{777, 0}";
},
{
name = top;
position = "{777, 1580}";
}
);
hints = (
{
origin = "{0, 5}";
scale = "{-0.9, 0.96933}";
type = Corner;
name = _corner.Serif;
}
);
layerId = "219068EA-2B9B-40DC-949E-B60449C01B8A";
paths = (
{
closed = 1;
nodes = (
"539 0 LINE",
"539 262 LINE",
"508 581 LINE",
"569 838 LINE",
"569 1580 LINE",
"169 1580 LINE",
"169 0 LINE"
);
},
{
closed = 1;
nodes = (
"614 1176 OFFCURVE",
"500 952 OFFCURVE",
"500 580 CURVE",
"472 580 LINE",
"472 218 OFFCURVE",
"614 -16 OFFCURVE",
"936 -16 CURVE SMOOTH",
"1250 -16 OFFCURVE",
"1475 208 OFFCURVE",
"1475 580 CURVE SMOOTH",
"1475 952 OFFCURVE",
"1250 1176 OFFCURVE",
"940 1176 CURVE SMOOTH"
);
},
{
closed = 1;
nodes = (
"945 924 OFFCURVE",
"1035 806 OFFCURVE",
"1035 580 CURVE SMOOTH",
"1035 354 OFFCURVE",
"945 236 OFFCURVE",
"793 236 CURVE SMOOTH",
"639 236 OFFCURVE",
"549 354 OFFCURVE",
"549 580 CURVE SMOOTH",
"549 806 OFFCURVE",
"639 924 OFFCURVE",
"793 924 CURVE SMOOTH"
);
}
);
width = 1547;
},
{
anchors = (
{
name = bottom;
position = "{692, 0}";
},
{
name = top;
position = "{692, 1500}";
}
);
hints = (
{
origin = "{0, 5}";
scale = "{-0.9, 0.96933}";
type = Corner;
name = _corner.Serif;
}
);
layerId = "0C29AA02-E021-4BD1-A2C4-87F681D64C35";
paths = (
{
closed = 1;
nodes = (
"494 0 LINE",
"494 262 LINE",
"463 581 LINE",
"524 838 LINE",
"524 1500 LINE",
"124 1500 LINE",
"124 0 LINE"
);
},
{
closed = 1;
nodes = (
"542 1154 OFFCURVE",
"449 915 OFFCURVE",
"449 570 CURVE",
"427 570 LINE",
"425 235 OFFCURVE",
"542 -14 OFFCURVE",
"863 -14 CURVE SMOOTH",
"1156 -14 OFFCURVE",
"1358 205 OFFCURVE",
"1358 570 CURVE SMOOTH",
"1358 935 OFFCURVE",
"1156 1154 OFFCURVE",
"867 1154 CURVE SMOOTH"
);
},
{
closed = 1;
nodes = (
"844 934 OFFCURVE",
"918 809 OFFCURVE",
"918 570 CURVE SMOOTH",
"918 331 OFFCURVE",
"844 206 OFFCURVE",
"712 206 CURVE SMOOTH",
"578 206 OFFCURVE",
"504 331 OFFCURVE",
"504 570 CURVE SMOOTH",
"504 809 OFFCURVE",
"578 934 OFFCURVE",
"712 934 CURVE SMOOTH"
);
}
);
width = 1410;
}
);
leftKerningGroup = b;
rightKerningGroup = o;
rightMetricsKey = o;
unicode = 0062;
},
{
glyphname = c;
lastChange = "2020-11-16 21:05:47 +0000";
layers = (
{
anchors = (
{
name = bottom;
position = "{621, 0}";
},
{
name = top;
position = "{677, 1100}";
}
);
layerId = "CA54B7DC-FBBB-40FE-ACF3-AABDD76D6A7B";
rightMetricsKey = "=o-8";
paths = (
{
closed = 1;
nodes = (
"1080 361 LINE",
"1069 236 OFFCURVE",
"945 28 OFFCURVE",
"666 28 CURVE SMOOTH",
"379 28 OFFCURVE",
"184 224 OFFCURVE",
"184 550 CURVE SMOOTH",
"184 876 OFFCURVE",
"385 1072 OFFCURVE",
"678 1072 CURVE",
"678 1116 LINE",
"359 1116 OFFCURVE",
"134 910 OFFCURVE",
"134 550 CURVE SMOOTH",
"134 190 OFFCURVE",
"354 -16 OFFCURVE",
"666 -16 CURVE SMOOTH",
"977 -16 OFFCURVE",
"1112 212 OFFCURVE",
"1124 361 CURVE"
);
},
{
closed = 1;
nodes = (
"678 1072 LINE",
"948 1072 OFFCURVE",
"1062 918 OFFCURVE",
"1058 792 CURVE",
"1075 803 LINE",
"1029 809 OFFCURVE",
"982 790 OFFCURVE",
"982 743 CURVE SMOOTH",
"982 711 OFFCURVE",
"1003 691 OFFCURVE",
"1036 691 CURVE SMOOTH",
"1080 691 OFFCURVE",
"1106 730 OFFCURVE",
"1106 795 CURVE SMOOTH",
"1106 943 OFFCURVE",
"968 1116 OFFCURVE",
"678 1116 CURVE"
);
}
);
width = 1250;
},
{
anchors = (
{
name = bottom;
position = "{560, 0}";
},
{
name = top;
position = "{598, 1080}";
}
);
layerId = "1E61A082-F045-49A7-AB52-DD1B03FD9B54";
rightMetricsKey = "=o-14";
paths = (
{
closed = 1;
nodes = (
"991 409 LINE",
"977 228 OFFCURVE",
"860 24 OFFCURVE",
"590 24 CURVE SMOOTH",
"330 24 OFFCURVE",
"160 218 OFFCURVE",
"160 540 CURVE SMOOTH",
"160 863 OFFCURVE",
"338 1058 OFFCURVE",
"604 1058 CURVE",
"604 1096 LINE",
"312 1096 OFFCURVE",
"110 894 OFFCURVE",
"110 540 CURVE SMOOTH",
"110 186 OFFCURVE",
"305 -16 OFFCURVE",
"590 -16 CURVE SMOOTH",
"886 -16 OFFCURVE",
"1015 197 OFFCURVE",
"1031 409 CURVE"
);
},
{
closed = 1;
nodes = (
"604 1058 LINE",
"866 1058 OFFCURVE",
"974 908 OFFCURVE",
"970 768 CURVE",
"987 790 LINE",
"939 796 OFFCURVE",
"890 777 OFFCURVE",
"890 730 CURVE SMOOTH",
"890 698 OFFCURVE",
"911 678 OFFCURVE",
"944 678 CURVE SMOOTH",
"988 678 OFFCURVE",
"1014 707 OFFCURVE",
"1014 772 CURVE SMOOTH",
"1014 932 OFFCURVE",
"884 1096 OFFCURVE",
"604 1096 CURVE"
);
}
);
width = 1127;
},
{
anchors = (
{
name = bottom;
position = "{658, 0}";
},
{
name = top;
position = "{700, 1160}";
}
);
layerId = "219068EA-2B9B-40DC-949E-B60449C01B8A";
rightMetricsKey = "=o-4";
paths = (
{
closed = 1;
nodes = (
"1020 465 LINE",
"998 360 OFFCURVE",
"914 278 OFFCURVE",
"780 278 CURVE SMOOTH",
"582 278 OFFCURVE",
"471 428 OFFCURVE",
"471 639 CURVE SMOOTH",
"471 844 OFFCURVE",
"583 984 OFFCURVE",
"766 984 CURVE",
"713 1182 LINE",
"340 1182 OFFCURVE",
"72 968 OFFCURVE",
"72 581 CURVE SMOOTH",
"72 193 OFFCURVE",
"335 -22 OFFCURVE",
"703 -22 CURVE SMOOTH",
"1039 -22 OFFCURVE",
"1241 195 OFFCURVE",
"1248 465 CURVE"
);
},
{
closed = 1;
nodes = (
"766 984 LINE",
"881 984 OFFCURVE",
"939 946 OFFCURVE",
"1016 864 CURVE",
"1021 1000 LINE",
"884 1000 OFFCURVE",
"795 963 OFFCURVE",
"795 842 CURVE SMOOTH",
"795 750 OFFCURVE",
"877 679 OFFCURVE",
"1003 679 CURVE SMOOTH",
"1132 679 OFFCURVE",
"1230 752 OFFCURVE",
"1230 880 CURVE SMOOTH",
"1230 1056 OFFCURVE",
"1022 1182 OFFCURVE",
"713 1182 CURVE"
);
}
);
width = 1316;
},
{
anchors = (
{
name = bottom;
position = "{614, 0}";
},
{
name = top;
position = "{644, 1140}";
}
);
layerId = "0C29AA02-E021-4BD1-A2C4-87F681D64C35";
rightMetricsKey = "=o-2";
paths = (
{
closed = 1;
nodes = (
"994 489 LINE",
"975 371 OFFCURVE",
"889 272 OFFCURVE",
"736 272 CURVE SMOOTH",
"550 272 OFFCURVE",
"445 421 OFFCURVE",
"445 629 CURVE SMOOTH",
"445 836 OFFCURVE",
"540 997 OFFCURVE",
"730 997 CURVE",
"661 1162 LINE",
"306 1162 OFFCURVE",
"52 952 OFFCURVE",
"52 571 CURVE SMOOTH",
"52 189 OFFCURVE",
"298 -22 OFFCURVE",
"643 -22 CURVE SMOOTH",
"983 -22 OFFCURVE",
"1163 187 OFFCURVE",
"1170 489 CURVE"
);
},
{
closed = 1;
nodes = (
"730 997 LINE",
"848 997 OFFCURVE",
"925 941 OFFCURVE",
"970 866 CURVE",
"941 958 LINE",
"810 958 OFFCURVE",
"725 898 OFFCURVE",
"725 792 CURVE SMOOTH",
"725 692 OFFCURVE",
"809 619 OFFCURVE",
"935 619 CURVE SMOOTH",
"1072 619 OFFCURVE",
"1160 700 OFFCURVE",
"1160 824 CURVE SMOOTH",
"1160 1006 OFFCURVE",
"950 1162 OFFCURVE",
"661 1162 CURVE"
);
}
);
width = 1220;
}
);
leftKerningGroup = o;
leftMetricsKey = o;
rightKerningGroup = c;
rightMetricsKey = o;
unicode = 0063;
},
{
glyphname = d;
lastChange = "2020-11-17 16:23:21 +0000";
layers = (
{
anchors = (
{
name = bottom;
position = "{720, 0}";
},
{
name = center;
position = "{720, 550}";
},
{
name = top;
position = "{720, 1560}";
},
{
name = topright;
position = "{1158, 1560}";
}
);
hints = (
{
origin = "{0, 1}";
scale = "{-0.9, 1}";
type = Corner;
name = _corner.Serif;
},
{
origin = "{0, 6}";
scale = "{-0.9, 1}";
type = Corner;
name = _corner.Serif;
}
);
layerId = "CA54B7DC-FBBB-40FE-ACF3-AABDD76D6A7B";
paths = (
{
closed = 1;
nodes = (
"1158 1560 LINE",
"1110 1560 LINE",
"1110 746 LINE",
"1140 550 LINE",
"1114 334 LINE",
"1114 0 LINE",
"1158 0 LINE"
);
},
{
closed = 1;
nodes = (
"347 1116 OFFCURVE",
"134 902 OFFCURVE",
"134 550 CURVE SMOOTH",
"134 198 OFFCURVE",
"347 -16 OFFCURVE",
"644 -16 CURVE SMOOTH",
"961 -16 OFFCURVE",
"1154 198 OFFCURVE",
"1154 549 CURVE",
"1154 551 LINE",
"1154 902 OFFCURVE",
"961 1116 OFFCURVE",
"644 1116 CURVE SMOOTH"
);
},
{
closed = 1;
nodes = (
"919 1072 OFFCURVE",
"1114 877 OFFCURVE",
"1114 550 CURVE SMOOTH",
"1114 223 OFFCURVE",
"919 28 OFFCURVE",
"644 28 CURVE SMOOTH",
"373 28 OFFCURVE",
"182 223 OFFCURVE",
"182 550 CURVE SMOOTH",
"182 877 OFFCURVE",
"373 1072 OFFCURVE",
"644 1072 CURVE SMOOTH"
);
}
);
width = 1432;
},
{
anchors = (
{
name = bottom;
position = "{644, 0}";
},
{
name = center;
position = "{644, 540}";
},
{
name = top;
position = "{644, 1500}";
},
{
name = topright;
position = "{1058, 1500}";
}
);
hints = (
{
origin = "{0, 6}";
scale = "{-0.9, 1}";
type = Corner;
name = _corner.Serif;
},
{
origin = "{0, 1}";
scale = "{-0.9, 1}";
type = Corner;
name = _corner.Serif;
}
);
layerId = "1E61A082-F045-49A7-AB52-DD1B03FD9B54";
paths = (
{
closed = 1;
nodes = (
"1058 1500 LINE",
"1010 1500 LINE",
"1010 736 LINE",
"1026 540 LINE",
"1014 324 LINE",
"1014 0 LINE",
"1058 0 LINE"
);
},
{
closed = 1;
nodes = (
"308 1096 OFFCURVE",
"110 886 OFFCURVE",
"110 540 CURVE SMOOTH",
"110 194 OFFCURVE",
"308 -16 OFFCURVE",
"582 -16 CURVE SMOOTH",
"876 -16 OFFCURVE",
"1040 193 OFFCURVE",
"1040 539 CURVE",
"1040 541 LINE",
"1040 887 OFFCURVE",
"875 1096 OFFCURVE",
"582 1096 CURVE SMOOTH"
);
},
{
closed = 1;
nodes = (
"834 1058 OFFCURVE",
"1014 865 OFFCURVE",
"1014 540 CURVE SMOOTH",
"1014 215 OFFCURVE",
"834 22 OFFCURVE",
"582 22 CURVE SMOOTH",
"334 22 OFFCURVE",
"158 215 OFFCURVE",
"158 540 CURVE SMOOTH",
"158 865 OFFCURVE",
"334 1058 OFFCURVE",
"582 1058 CURVE SMOOTH"
);
}
);
width = 1291;
},
{
anchors = (
{
name = bottom;
position = "{783, 0}";
},
{
name = center;
position = "{783, 580}";
},
{
name = top;
position = "{783, 1580}";
},
{
name = topright;
position = "{1378, 1580}";
}
);
hints = (
{
origin = "{0, 1}";
scale = "{-0.96, 0.98}";
type = Corner;
name = _corner.Serif;
},
{
origin = "{0, 6}";
scale = "{-0.94, 0.98}";
type = Corner;
name = _corner.Serif;
}
);
layerId = "219068EA-2B9B-40DC-949E-B60449C01B8A";
paths = (
{
closed = 1;
nodes = (
"1378 1580 LINE",
"978 1580 LINE",
"978 838 LINE",
"1040 581 LINE",
"1008 280 LINE",
"1008 0 LINE",
"1378 0 LINE"
);
},
{
closed = 1;
nodes = (
"297 1176 OFFCURVE",
"72 952 OFFCURVE",
"72 580 CURVE SMOOTH",
"72 208 OFFCURVE",
"297 -16 OFFCURVE",
"611 -16 CURVE SMOOTH",
"933 -16 OFFCURVE",
"1075 218 OFFCURVE",
"1075 580 CURVE",
"1047 580 LINE",
"1047 952 OFFCURVE",
"933 1176 OFFCURVE",
"607 1176 CURVE SMOOTH"
);
},
{
closed = 1;
nodes = (
"908 924 OFFCURVE",
"998 806 OFFCURVE",
"998 580 CURVE SMOOTH",
"998 354 OFFCURVE",
"908 236 OFFCURVE",
"754 236 CURVE SMOOTH",
"602 236 OFFCURVE",
"512 354 OFFCURVE",
"512 580 CURVE SMOOTH",
"512 806 OFFCURVE",
"602 924 OFFCURVE",
"754 924 CURVE SMOOTH"
);
}
);
width = 1563;
},
{
anchors = (
{
name = bottom;
position = "{734, 0}";
},
{
name = center;
position = "{734, 570}";
},
{
name = top;
position = "{734, 1500}";
},
{
name = topright;
position = "{1286, 1500}";
}
);
hints = (
{
origin = "{0, 1}";
scale = "{-0.96, 0.98}";
type = Corner;
name = _corner.Serif;
},
{
origin = "{0, 6}";
scale = "{-0.94, 0.98}";
type = Corner;
name = _corner.Serif;
}
);
layerId = "0C29AA02-E021-4BD1-A2C4-87F681D64C35";
paths = (
{
closed = 1;
nodes = (
"1286 1500 LINE",
"886 1500 LINE",
"886 838 LINE",
"948 581 LINE",
"916 280 LINE",
"916 0 LINE",
"1286 0 LINE"
);
},
{
closed = 1;
nodes = (
"254 1154 OFFCURVE",
"52 935 OFFCURVE",
"52 570 CURVE SMOOTH",
"52 205 OFFCURVE",
"254 -14 OFFCURVE",
"547 -14 CURVE SMOOTH",
"868 -14 OFFCURVE",
"985 235 OFFCURVE",
"983 570 CURVE",
"961 570 LINE",
"961 915 OFFCURVE",
"868 1154 OFFCURVE",
"543 1154 CURVE SMOOTH"
);
},
{
closed = 1;
nodes = (
"832 934 OFFCURVE",
"906 809 OFFCURVE",
"906 570 CURVE SMOOTH",
"906 331 OFFCURVE",
"832 206 OFFCURVE",
"698 206 CURVE SMOOTH",
"566 206 OFFCURVE",
"492 331 OFFCURVE",
"492 570 CURVE SMOOTH",
"492 809 OFFCURVE",
"566 934 OFFCURVE",
"698 934 CURVE SMOOTH"
);
}
);
width = 1464;
}
);
leftKerningGroup = o;
leftMetricsKey = o;
rightKerningGroup = l;
rightMetricsKey = l;
unicode = 0064;
},
{
glyphname = e;
lastChange = "2020-11-16 21:05:47 +0000";
layers = (
{
anchors = (
{
name = bottom;
position = "{631, 0}";
},
{
name = ogonek;
position = "{1134, 10}";
},
{
name = top;
position = "{631, 1100}";
}
);
layerId = "CA54B7DC-FBBB-40FE-ACF3-AABDD76D6A7B";
paths = (
{
closed = 1;
nodes = (
"1065 324 LINE",
"1038 208 OFFCURVE",
"932 28 OFFCURVE",
"646 28 CURVE SMOOTH",
"362 28 OFFCURVE",
"184 223 OFFCURVE",
"184 550 CURVE SMOOTH",
"184 876 OFFCURVE",
"364 1072 OFFCURVE",
"648 1072 CURVE",
"648 1116 LINE",
"340 1116 OFFCURVE",
"134 910 OFFCURVE",
"134 550 CURVE SMOOTH",
"134 190 OFFCURVE",
"338 -16 OFFCURVE",
"646 -16 CURVE SMOOTH",
"959 -16 OFFCURVE",
"1083 185 OFFCURVE",
"1110 324 CURVE"
);
},
{
closed = 1;
nodes = (
"1128 612 LINE",
"1128 908 OFFCURVE",
"958 1116 OFFCURVE",
"648 1116 CURVE",
"648 1072 LINE",
"936 1072 OFFCURVE",
"1072 878 OFFCURVE",
"1084 636 CURVE"
);
},
{
closed = 1;
nodes = (
"168 592 LINE",
"1128 592 LINE",
"1128 612 LINE",
"1084 636 LINE",
"168 636 LINE"
);
}
);
width = 1262;
},
{
anchors = (
{
name = bottom;
position = "{579, 0}";
},
{
name = ogonek;
position = "{1050, 10}";
},
{
name = top;
position = "{579, 1080}";
}
);
layerId = "1E61A082-F045-49A7-AB52-DD1B03FD9B54";
paths = (
{
closed = 1;
nodes = (
"999 380 LINE",
"985 235 OFFCURVE",
"875 24 OFFCURVE",
"594 24 CURVE SMOOTH",
"334 24 OFFCURVE",
"160 217 OFFCURVE",
"160 540 CURVE SMOOTH",
"160 863 OFFCURVE",
"332 1058 OFFCURVE",
"594 1058 CURVE",
"594 1096 LINE",
"308 1096 OFFCURVE",
"110 894 OFFCURVE",
"110 540 CURVE SMOOTH",
"110 186 OFFCURVE",
"310 -16 OFFCURVE",
"594 -16 CURVE SMOOTH",
"898 -16 OFFCURVE",
"1024 214 OFFCURVE",
"1039 380 CURVE"
);
},
{
closed = 1;
nodes = (
"1048 600 LINE",
"1048 892 OFFCURVE",
"889 1096 OFFCURVE",
"594 1096 CURVE",
"594 1058 LINE",
"865 1058 OFFCURVE",
"994 864 OFFCURVE",
"1004 624 CURVE"
);
},
{
closed = 1;
nodes = (
"144 586 LINE",
"1048 586 LINE",
"1048 600 LINE",
"1004 624 LINE",
"144 624 LINE"
);
}
);
width = 1158;
},
{
anchors = (
{
name = bottom;
position = "{670, 0}";
},
{
name = ogonek;
position = "{1211, 10}";
},
{
name = top;
position = "{670, 1160}";
}
);
layerId = "219068EA-2B9B-40DC-949E-B60449C01B8A";
paths = (
{
closed = 1;
nodes = (
"1012 440 LINE",
"978 343 OFFCURVE",
"903 271 OFFCURVE",
"755 271 CURVE SMOOTH",
"576 271 OFFCURVE",
"464 401 OFFCURVE",
"464 610 CURVE SMOOTH",
"464 870 OFFCURVE",
"544 966 OFFCURVE",
"685 966 CURVE",
"673 1182 LINE",
"324 1182 OFFCURVE",
"72 967 OFFCURVE",
"72 580 CURVE SMOOTH",
"72 192 OFFCURVE",
"331 -22 OFFCURVE",
"699 -22 CURVE SMOOTH",
"1065 -22 OFFCURVE",
"1239 207 OFFCURVE",
"1264 440 CURVE"
);
},
{
closed = 1;
nodes = (
"1268 657 LINE",
"1268 970 OFFCURVE",
"1059 1182 OFFCURVE",
"673 1182 CURVE",
"685 966 LINE",
"808 966 OFFCURVE",
"870 871 OFFCURVE",
"874 758 CURVE"
);
},
{
closed = 1;
nodes = (
"252 560 LINE",
"1268 560 LINE",
"1268 657 LINE",
"874 758 LINE",
"252 758 LINE"
);
}
);
width = 1340;
},
{
anchors = (
{
name = bottom;
position = "{632, 0}";
},
{
name = ogonek;
position = "{1130, 10}";
},
{
name = top;
position = "{632, 1140}";
}
);
layerId = "0C29AA02-E021-4BD1-A2C4-87F681D64C35";
rightMetricsKey = "=o+10";
paths = (
{
closed = 1;
nodes = (
"1022 490 LINE",
"1003 364 OFFCURVE",
"919 253 OFFCURVE",
"751 253 CURVE SMOOTH",
"556 253 OFFCURVE",
"450 389 OFFCURVE",
"450 608 CURVE SMOOTH",
"450 900 OFFCURVE",
"529 988 OFFCURVE",
"647 988 CURVE",
"649 1162 LINE",
"303 1162 OFFCURVE",
"52 941 OFFCURVE",
"52 570 CURVE SMOOTH",
"52 198 OFFCURVE",
"301 -22 OFFCURVE",
"655 -22 CURVE SMOOTH",
"1007 -22 OFFCURVE",
"1192 212 OFFCURVE",
"1198 490 CURVE"
);
},
{
closed = 1;
nodes = (
"1202 631 LINE",
"1202 939 OFFCURVE",
"1008 1162 OFFCURVE",
"649 1162 CURVE",
"647 988 LINE",
"743 988 OFFCURVE",
"796 897 OFFCURVE",
"798 748 CURVE"
);
},
{
closed = 1;
nodes = (
"250 570 LINE",
"1202 570 LINE",
"1202 631 LINE",
"798 748 LINE",
"250 748 LINE"
);
}
);
width = 1264;
}
);
leftKerningGroup = o;
leftMetricsKey = o;
rightKerningGroup = o;
rightMetricsKey = o;
unicode = 0065;
},
{
glyphname = f;
lastChange = "2020-11-16 21:05:47 +0000";
layers = (
{
anchors = (
{
name = bottom;
position = "{471, 0}";
},
{
name = top;
position = "{471, 1560}";
}
);
hints = (
{
origin = "{1, 0}";
type = Corner;
name = _corner.Serif;
},
{
origin = "{1, 1}";
scale = "{-1.2, 1}";
type = Corner;
name = _corner.Serif;
options = 1;
}
);
layerId = "CA54B7DC-FBBB-40FE-ACF3-AABDD76D6A7B";
paths = (
{
closed = 1;
nodes = (
"92 1056 LINE",
"820 1056 LINE",
"820 1100 LINE",
"92 1100 LINE"
);
},
{
closed = 1;
nodes = (
"392 0 LINE",
"440 0 LINE",
"440 1166 LINE",
"392 1162 LINE"
);
},
{
closed = 1;
nodes = (
"517 1576 OFFCURVE",
"392 1435 OFFCURVE",
"392 1162 CURVE",
"440 1166 LINE",
"440 1412 OFFCURVE",
"547 1532 OFFCURVE",
"742 1532 CURVE",
"742 1576 LINE"
);
},
{
closed = 1;
nodes = (
"742 1532 LINE",
"866 1532 OFFCURVE",
"949 1476 OFFCURVE",
"944 1374 CURVE",
"963 1389 LINE",
"906 1395 OFFCURVE",
"864 1374 OFFCURVE",
"864 1328 CURVE SMOOTH",
"864 1296 OFFCURVE",
"888 1275 OFFCURVE",
"920 1275 CURVE SMOOTH",
"964 1275 OFFCURVE",
"994 1312 OFFCURVE",
"994 1369 CURVE SMOOTH",
"994 1505 OFFCURVE",
"884 1576 OFFCURVE",
"742 1576 CURVE"
);
}
);
width = 942;
},
{
anchors = (
{
name = bottom;
position = "{441, 0}";
},
{
name = top;
position = "{441, 1500}";
}
);
hints = (
{
origin = "{1, 0}";
type = Corner;
name = _corner.Serif;
},
{
origin = "{1, 1}";
scale = "{-1.6, 1}";
type = Corner;
name = _corner.Serif;
options = 1;
}
);
layerId = "1E61A082-F045-49A7-AB52-DD1B03FD9B54";
paths = (
{
closed = 1;
nodes = (
"56 1042 LINE",
"804 1042 LINE",
"804 1080 LINE",
"56 1080 LINE"
);
},
{
closed = 1;
nodes = (
"356 0 LINE",
"404 0 LINE",
"404 1116 LINE",
"356 1112 LINE"
);
},
{
closed = 1;
nodes = (
"484 1516 OFFCURVE",
"356 1378 OFFCURVE",
"356 1112 CURVE",
"404 1116 LINE",
"404 1359 OFFCURVE",
"514 1478 OFFCURVE",
"714 1478 CURVE",
"714 1516 LINE"
);
},
{
closed = 1;
nodes = (
"714 1478 LINE",
"843 1478 OFFCURVE",
"929 1413 OFFCURVE",
"925 1293 CURVE",
"944 1309 LINE",
"884 1315 OFFCURVE",
"840 1294 OFFCURVE",
"840 1248 CURVE SMOOTH",
"840 1216 OFFCURVE",
"864 1195 OFFCURVE",
"896 1195 CURVE SMOOTH",
"940 1195 OFFCURVE",
"970 1232 OFFCURVE",
"970 1289 CURVE SMOOTH",
"970 1443 OFFCURVE",
"858 1516 OFFCURVE",
"714 1516 CURVE"
);
}
);
width = 908;
},
{
anchors = (
{
name = bottom;
position = "{494, 0}";
},
{
name = top;
position = "{494, 1580}";
}
);
hints = (
{
origin = "{1, 0}";
scale = "{1, 0.98}";
type = Corner;
name = _corner.Serif;
},
{
origin = "{1, 1}";
scale = "{-1.36, 0.98}";
type = Corner;
name = _corner.Serif;
options = 1;
}
);
layerId = "219068EA-2B9B-40DC-949E-B60449C01B8A";
paths = (
{
closed = 1;
nodes = (
"20 930 LINE",
"993 930 LINE",
"993 1160 LINE",
"20 1160 LINE"
);
},
{
closed = 1;
nodes = (
"247 0 LINE",
"647 0 LINE",
"647 1295 LINE",
"247 1236 LINE"
);
},
{
closed = 1;
nodes = (
"503 1642 OFFCURVE",
"247 1516 OFFCURVE",
"247 1236 CURVE",
"647 1295 LINE",
"647 1407 OFFCURVE",
"708 1452 OFFCURVE",
"812 1452 CURVE",
"794 1642 LINE"
);
},
{
closed = 1;
nodes = (
"812 1452 LINE",
"878 1452 OFFCURVE",
"920 1419 OFFCURVE",
"943 1379 CURVE",
"972 1480 LINE",
"866 1480 OFFCURVE",
"799 1461 OFFCURVE",
"799 1367 CURVE SMOOTH",
"799 1275 OFFCURVE",
"889 1230 OFFCURVE",
"994 1230 CURVE SMOOTH",
"1125 1230 OFFCURVE",
"1196 1309 OFFCURVE",
"1196 1400 CURVE SMOOTH",
"1196 1546 OFFCURVE",
"1034 1642 OFFCURVE",
"794 1642 CURVE"
);
}
);
width = 1044;
},
{
anchors = (
{
name = bottom;
position = "{441, 0}";
},
{
name = top;
position = "{441, 1500}";
}
);
hints = (
{
origin = "{1, 0}";
scale = "{1, 0.98}";
type = Corner;
name = _corner.Serif;
},
{
origin = "{1, 1}";
scale = "{-1.8, 0.98}";
type = Corner;
name = _corner.Serif;
options = 1;
}
);
layerId = "0C29AA02-E021-4BD1-A2C4-87F681D64C35";
paths = (
{
closed = 1;
nodes = (
"-10 932 LINE",
"933 932 LINE",
"933 1140 LINE",
"-10 1140 LINE"
);
},
{
closed = 1;
nodes = (
"217 0 LINE",
"617 0 LINE",
"617 1295 LINE",
"217 1236 LINE"
);
},
{
closed = 1;
nodes = (
"468 1642 OFFCURVE",
"217 1516 OFFCURVE",
"217 1236 CURVE",
"617 1295 LINE",
"617 1436 OFFCURVE",
"682 1492 OFFCURVE",
"792 1492 CURVE",
"754 1642 LINE"
);
},
{
closed = 1;
nodes = (
"792 1492 LINE",
"868 1492 OFFCURVE",
"923 1454 OFFCURVE",
"953 1409 CURVE",
"972 1490 LINE",
"845 1490 OFFCURVE",
"749 1466 OFFCURVE",
"749 1350 CURVE SMOOTH",
"749 1256 OFFCURVE",
"839 1210 OFFCURVE",
"944 1210 CURVE SMOOTH",
"1088 1210 OFFCURVE",
"1166 1298 OFFCURVE",
"1166 1400 CURVE SMOOTH",
"1166 1546 OFFCURVE",
"996 1642 OFFCURVE",
"754 1642 CURVE"
);
}
);
width = 968;
}
);
leftKerningGroup = f;
rightKerningGroup = f;
unicode = 0066;
},
{
glyphname = g;
lastChange = "2020-11-16 21:05:47 +0000";
layers = (
{
anchors = (
{
name = bottom;
position = "{652, -440}";
},
{
name = top;
position = "{652, 1100}";
}
);
layerId = "CA54B7DC-FBBB-40FE-ACF3-AABDD76D6A7B";
paths = (
{
closed = 1;
nodes = (
"884 368 OFFCURVE",
"1052 514 OFFCURVE",
"1052 738 CURVE SMOOTH",
"1052 916 OFFCURVE",
"942 1022 OFFCURVE",
"836 1066 CURVE",
"658 1108 LINE",
"408 1108 OFFCURVE",
"240 962 OFFCURVE",
"240 738 CURVE SMOOTH",
"240 514 OFFCURVE",
"408 368 OFFCURVE",
"646 368 CURVE SMOOTH"
);
},
{
closed = 1;
nodes = (
"438 412 OFFCURVE",
"288 540 OFFCURVE",
"288 738 CURVE SMOOTH",
"288 936 OFFCURVE",
"438 1064 OFFCURVE",
"646 1064 CURVE SMOOTH",
"854 1064 OFFCURVE",
"1004 936 OFFCURVE",
"1004 738 CURVE SMOOTH",
"1004 540 OFFCURVE",
"854 412 OFFCURVE",
"646 412 CURVE SMOOTH"
);
},
{
closed = 1;
nodes = (
"836 1066 LINE",
"1206 1066 LINE",
"1206 1108 LINE",
"658 1108 LINE"
);
},
{
closed = 1;
nodes = (
"245 512 OFFCURVE",
"130 438 OFFCURVE",
"130 296 CURVE SMOOTH",
"130 165 OFFCURVE",
"232 76 OFFCURVE",
"386 76 CURVE SMOOTH",
"940 76 LINE SMOOTH",
"1082 76 OFFCURVE",
"1142 11 OFFCURVE",
"1142 -110 CURVE SMOOTH",
"1142 -232 OFFCURVE",
"1059 -356 OFFCURVE",
"826 -356 CURVE SMOOTH",
"538 -356 LINE SMOOTH",
"333 -356 OFFCURVE",
"244 -271 OFFCURVE",
"244 -134 CURVE SMOOTH",
"244 -13 OFFCURVE",
"351 55 OFFCURVE",
"412 80 CURVE",
"396 112 LINE",
"305 78 OFFCURVE",
"196 -2 OFFCURVE",
"196 -134 CURVE SMOOTH",
"196 -300 OFFCURVE",
"306 -400 OFFCURVE",
"538 -400 CURVE SMOOTH",
"826 -400 LINE SMOOTH",
"1089 -400 OFFCURVE",
"1190 -252 OFFCURVE",
"1190 -108 CURVE SMOOTH",
"1190 35 OFFCURVE",
"1110 120 OFFCURVE",
"942 120 CURVE SMOOTH",
"390 120 LINE SMOOTH",
"262 120 OFFCURVE",
"178 194 OFFCURVE",
"178 296 CURVE SMOOTH",
"178 410 OFFCURVE",
"256 467 OFFCURVE",
"362 478 CURVE",
"358 516 LINE"
);
}
);
width = 1304;
},
{
anchors = (
{
name = bottom;
position = "{622, -440}";
},
{
name = top;
position = "{622, 1080}";
}
);
layerId = "1E61A082-F045-49A7-AB52-DD1B03FD9B54";
paths = (
{
closed = 1;
nodes = (
"826 360 OFFCURVE",
"990 503 OFFCURVE",
"990 724 CURVE SMOOTH",
"990 902 OFFCURVE",
"886 1007 OFFCURVE",
"753 1052 CURVE",
"606 1088 LINE",
"362 1088 OFFCURVE",
"198 945 OFFCURVE",
"198 724 CURVE SMOOTH",
"198 503 OFFCURVE",
"362 360 OFFCURVE",
"594 360 CURVE SMOOTH"
);
},
{
closed = 1;
nodes = (
"392 398 OFFCURVE",
"246 526 OFFCURVE",
"246 724 CURVE SMOOTH",
"246 922 OFFCURVE",
"392 1050 OFFCURVE",
"594 1050 CURVE SMOOTH",
"796 1050 OFFCURVE",
"942 922 OFFCURVE",
"942 724 CURVE SMOOTH",
"942 526 OFFCURVE",
"796 398 OFFCURVE",
"594 398 CURVE SMOOTH"
);
},
{
closed = 1;
nodes = (
"753 1052 LINE",
"1168 1052 LINE",
"1168 1088 LINE",
"606 1088 LINE"
);
},
{
closed = 1;
nodes = (
"193 492 OFFCURVE",
"78 420 OFFCURVE",
"78 285 CURVE SMOOTH",
"78 161 OFFCURVE",
"176 80 OFFCURVE",
"324 80 CURVE SMOOTH",
"894 80 LINE SMOOTH",
"1036 80 OFFCURVE",
"1096 12 OFFCURVE",
"1096 -111 CURVE SMOOTH",
"1096 -234 OFFCURVE",
"1013 -362 OFFCURVE",
"780 -362 CURVE SMOOTH",
"486 -362 LINE SMOOTH",
"281 -362 OFFCURVE",
"192 -274 OFFCURVE",
"192 -135 CURVE SMOOTH",
"192 -13 OFFCURVE",
"299 55 OFFCURVE",
"360 80 CURVE",
"344 102 LINE",
"250 69 OFFCURVE",
"144 -1 OFFCURVE",
"144 -140 CURVE SMOOTH",
"144 -302 OFFCURVE",
"254 -400 OFFCURVE",
"486 -400 CURVE SMOOTH",
"780 -400 LINE SMOOTH",
"1043 -400 OFFCURVE",
"1144 -252 OFFCURVE",
"1144 -108 CURVE SMOOTH",
"1144 35 OFFCURVE",
"1064 120 OFFCURVE",
"896 120 CURVE SMOOTH",
"328 120 LINE SMOOTH",
"206 120 OFFCURVE",
"126 192 OFFCURVE",
"126 289 CURVE SMOOTH",
"126 400 OFFCURVE",
"204 456 OFFCURVE",
"310 466 CURVE",
"306 496 LINE"
);
}
);
width = 1248;
},
{
anchors = (
{
name = bottom;
position = "{708, -440}";
},
{
name = top;
position = "{708, 1160}";
}
);
layerId = "219068EA-2B9B-40DC-949E-B60449C01B8A";
paths = (
{
closed = 1;
nodes = (
"1026 402 OFFCURVE",
"1214 542 OFFCURVE",
"1214 750 CURVE SMOOTH",
"1214 862 OFFCURVE",
"1150 927 OFFCURVE",
"1092 956 CURVE",
"696 1170 LINE",
"360 1170 OFFCURVE",
"148 1030 OFFCURVE",
"148 786 CURVE SMOOTH",
"148 542 OFFCURVE",
"360 402 OFFCURVE",
"696 402 CURVE SMOOTH"
);
},
{
closed = 1;
nodes = (
"602 598 OFFCURVE",
"548 674 OFFCURVE",
"548 786 CURVE SMOOTH",
"548 894 OFFCURVE",
"602 974 OFFCURVE",
"696 974 CURVE SMOOTH",
"790 974 OFFCURVE",
"844 894 OFFCURVE",
"844 786 CURVE SMOOTH",
"844 674 OFFCURVE",
"790 598 OFFCURVE",
"696 598 CURVE SMOOTH"
);
},
{
closed = 1;
nodes = (
"1092 956 LINE",
"1330 956 LINE",
"1330 1170 LINE",
"696 1170 LINE"
);
},
{
closed = 1;
nodes = (
"199 526 OFFCURVE",
"50 419 OFFCURVE",
"50 238 CURVE SMOOTH",
"50 65 OFFCURVE",
"199 -40 OFFCURVE",
"423 -40 CURVE SMOOTH",
"869 -40 LINE SMOOTH",
"932 -40 OFFCURVE",
"973 -64 OFFCURVE",
"973 -119 CURVE SMOOTH",
"973 -181 OFFCURVE",
"927 -222 OFFCURVE",
"837 -222 CURVE SMOOTH",
"581 -222 LINE SMOOTH",
"486 -222 OFFCURVE",
"433 -189 OFFCURVE",
"433 -116 CURVE SMOOTH",
"433 -81 OFFCURVE",
"451 -52 OFFCURVE",
"480 -27 CURVE",
"444 3 LINE",
"272 3 OFFCURVE",
"136 -60 OFFCURVE",
"136 -204 CURVE SMOOTH",
"136 -356 OFFCURVE",
"279 -420 OFFCURVE",
"506 -420 CURVE SMOOTH",
"835 -420 LINE SMOOTH",
"1178 -420 OFFCURVE",
"1354 -263 OFFCURVE",
"1354 0 CURVE SMOOTH",
"1354 188 OFFCURVE",
"1216 310 OFFCURVE",
"965 310 CURVE SMOOTH",
"435 310 LINE SMOOTH",
"376 310 OFFCURVE",
"341 331 OFFCURVE",
"341 378 CURVE SMOOTH",
"341 423 OFFCURVE",
"378 450 OFFCURVE",
"441 450 CURVE",
"423 524 LINE"
);
}
);
width = 1412;
},
{
anchors = (
{
name = bottom;
position = "{664, -440}";
},
{
name = top;
position = "{664, 1140}";
}
);
layerId = "0C29AA02-E021-4BD1-A2C4-87F681D64C35";
paths = (
{
closed = 1;
nodes = (
"987 390 OFFCURVE",
"1174 528 OFFCURVE",
"1174 734 CURVE SMOOTH",
"1174 854 OFFCURVE",
"1097 924 OFFCURVE",
"1026 954 CURVE",
"658 1150 LINE",
"323 1150 OFFCURVE",
"112 1012 OFFCURVE",
"112 770 CURVE SMOOTH",
"112 528 OFFCURVE",
"323 390 OFFCURVE",
"658 390 CURVE SMOOTH"
);
},
{
closed = 1;
nodes = (
"570 556 OFFCURVE",
"520 643 OFFCURVE",
"520 770 CURVE SMOOTH",
"520 893 OFFCURVE",
"570 984 OFFCURVE",
"658 984 CURVE SMOOTH",
"746 984 OFFCURVE",
"796 893 OFFCURVE",
"796 770 CURVE SMOOTH",
"796 643 OFFCURVE",
"746 556 OFFCURVE",
"658 556 CURVE SMOOTH"
);
},
{
closed = 1;
nodes = (
"1026 954 LINE",
"1302 954 LINE",
"1302 1150 LINE",
"658 1150 LINE"
);
},
{
closed = 1;
nodes = (
"171 526 OFFCURVE",
"22 416 OFFCURVE",
"22 234 CURVE SMOOTH",
"22 65 OFFCURVE",
"171 -48 OFFCURVE",
"395 -48 CURVE SMOOTH",
"839 -48 LINE SMOOTH",
"914 -48 OFFCURVE",
"963 -73 OFFCURVE",
"963 -133 CURVE SMOOTH",
"963 -199 OFFCURVE",
"910 -242 OFFCURVE",
"807 -242 CURVE SMOOTH",
"553 -242 LINE SMOOTH",
"451 -242 OFFCURVE",
"395 -206 OFFCURVE",
"395 -126 CURVE SMOOTH",
"395 -87 OFFCURVE",
"417 -55 OFFCURVE",
"452 -27 CURVE",
"436 -1 LINE",
"253 -1 OFFCURVE",
"108 -63 OFFCURVE",
"108 -206 CURVE SMOOTH",
"108 -357 OFFCURVE",
"251 -420 OFFCURVE",
"478 -420 CURVE SMOOTH",
"805 -420 LINE SMOOTH",
"1141 -420 OFFCURVE",
"1314 -267 OFFCURVE",
"1314 -14 CURVE SMOOTH",
"1314 164 OFFCURVE",
"1180 282 OFFCURVE",
"935 282 CURVE SMOOTH",
"413 282 LINE SMOOTH",
"344 282 OFFCURVE",
"303 308 OFFCURVE",
"303 366 CURVE SMOOTH",
"303 424 OFFCURVE",
"344 450 OFFCURVE",
"413 450 CURVE",
"395 524 LINE"
);
}
);
width = 1332;
}
);
leftKerningGroup = g;
rightKerningGroup = g;
unicode = 0067;
},
{
glyphname = h;
lastChange = "2020-12-06 19:43:58 +0000";
layers = (
{
anchors = (
{
name = bottom;
position = "{691, 0}";
},
{
name = center;
position = "{691, 780}";
},
{
name = top;
position = "{296, 1560}";
}
);
hints = (
{
origin = "{0, 3}";
scale = "{-0.9, 1}";
type = Corner;
name = _corner.Serif;
},
{
origin = "{0, 0}";
type = Corner;
name = _corner.Serif;
options = 1;
},
{
origin = "{0, 1}";
scale = "{-1, 1}";
type = Corner;
name = _corner.Serif;
},
{
origin = "{1, 7}";
type = Corner;
name = _corner.Serif;
},
{
origin = "{1, 8}";
scale = "{-0.86, 1}";
type = Corner;
name = _corner.Serif;
options = 1;
}
);
layerId = "CA54B7DC-FBBB-40FE-ACF3-AABDD76D6A7B";
paths = (
{
closed = 1;
nodes = (
"292 0 LINE",
"340 0 LINE",
"340 1560 LINE",
"292 1560 LINE"
);
},
{
closed = 1;
nodes = (
"340 552 LINE",
"340 911 OFFCURVE",
"546 1072 OFFCURVE",
"766 1072 CURVE SMOOTH",
"958 1072 OFFCURVE",
"1078 981 OFFCURVE",
"1078 764 CURVE SMOOTH",
"1078 0 LINE",
"1126 0 LINE",
"1126 764 LINE SMOOTH",
"1126 1018 OFFCURVE",
"978 1116 OFFCURVE",
"768 1116 CURVE SMOOTH",
"528 1116 OFFCURVE",
"304 954 OFFCURVE",
"304 552 CURVE"
);
}
);
width = 1386;
},
{
anchors = (
{
name = bottom;
position = "{624, 0}";
},
{
name = center;
position = "{624, 750}";
},
{
name = top;
position = "{258, 1500}";
}
);
hints = (
{
origin = "{0, 3}";
scale = "{-0.9, 1}";
type = Corner;
name = _corner.Serif;
},
{
origin = "{0, 0}";
type = Corner;
name = _corner.Serif;
options = 1;
},
{
origin = "{0, 1}";
scale = "{-1.22, 1}";
type = Corner;
name = _corner.Serif;
},
{
origin = "{1, 7}";
scale = "{1.22, 1}";
type = Corner;
name = _corner.Serif;
},
{
origin = "{1, 8}";
scale = "{-0.86, 1}";
type = Corner;
name = _corner.Serif;
}
);
layerId = "1E61A082-F045-49A7-AB52-DD1B03FD9B54";
paths = (
{
closed = 1;
nodes = (
"254 0 LINE",
"302 0 LINE",
"302 1500 LINE",
"254 1500 LINE"
);
},
{
closed = 1;
nodes = (
"302 582 LINE",
"302 908 OFFCURVE",
"493 1058 OFFCURVE",
"698 1058 CURVE SMOOTH",
"871 1058 OFFCURVE",
"976 967 OFFCURVE",
"976 774 CURVE SMOOTH",
"976 0 LINE",
"1024 0 LINE",
"1024 774 LINE SMOOTH",
"1024 998 OFFCURVE",
"890 1096 OFFCURVE",
"700 1096 CURVE SMOOTH",
"473 1096 OFFCURVE",
"277 952 OFFCURVE",
"277 582 CURVE"
);
}
);
width = 1246;
},
{
anchors = (
{
name = bottom;
position = "{730, 0}";
},
{
name = center;
position = "{730, 790}";
},
{
name = top;
position = "{380, 1580}";
}
);
hints = (
{
origin = "{0, 3}";
scale = "{-0.96, 0.98}";
type = Corner;
name = _corner.Serif;
},
{
origin = "{0, 0}";
scale = "{1, 0.98}";
type = Corner;
name = _corner.Serif;
options = 1;
},
{
origin = "{0, 1}";
scale = "{-0.66, 0.98}";
type = Corner;
name = _corner.Serif;
},
{
origin = "{1, 7}";
scale = "{0.66, 0.98}";
type = Corner;
name = _corner.Serif;
options = 1;
},
{
origin = "{1, 8}";
scale = "{-0.76, 0.98}";
type = Corner;
name = _corner.Serif;
}
);
layerId = "219068EA-2B9B-40DC-949E-B60449C01B8A";
paths = (
{
closed = 1;
nodes = (
"194 0 LINE",
"594 0 LINE",
"594 1580 LINE",
"194 1580 LINE"
);
},
{
closed = 1;
nodes = (
"594 722 LINE",
"594 868 OFFCURVE",
"674 919 OFFCURVE",
"765 919 CURVE SMOOTH",
"853 919 OFFCURVE",
"912 868 OFFCURVE",
"912 768 CURVE SMOOTH",
"912 0 LINE",
"1312 0 LINE",
"1312 779 LINE SMOOTH",
"1312 1060 OFFCURVE",
"1157 1183 OFFCURVE",
"939 1183 CURVE SMOOTH",
"639 1183 OFFCURVE",
"561 1001 OFFCURVE",
"561 720 CURVE"
);
}
);
width = 1484;
},
{
anchors = (
{
name = bottom;
position = "{704, 0}";
},
{
name = center;
position = "{704, 750}";
},
{
name = top;
position = "{370, 1500}";
}
);
hints = (
{
origin = "{0, 0}";
scale = "{1, 0.98}";
type = Corner;
name = _corner.Serif;
options = 1;
},
{
origin = "{0, 1}";
scale = "{-0.64, 0.98}";
type = Corner;
name = _corner.Serif;
},
{
origin = "{0, 3}";
scale = "{-0.96, 0.98}";
type = Corner;
name = _corner.Serif;
},
{
origin = "{1, 7}";
scale = "{0.64, 0.98}";
type = Corner;
name = _corner.Serif;
options = 1;
},
{
origin = "{1, 8}";
scale = "{-0.76, 0.98}";
type = Corner;
name = _corner.Serif;
}
);
layerId = "0C29AA02-E021-4BD1-A2C4-87F681D64C35";
paths = (
{
closed = 1;
nodes = (
"184 0 LINE",
"584 0 LINE",
"584 1500 LINE",
"184 1500 LINE"
);
},
{
closed = 1;
nodes = (
"584 743 LINE",
"584 874 OFFCURVE",
"653 920 OFFCURVE",
"732 920 CURVE SMOOTH",
"807 920 OFFCURVE",
"856 876 OFFCURVE",
"856 789 CURVE SMOOTH",
"856 0 LINE",
"1256 0 LINE",
"1256 789 LINE SMOOTH",
"1256 1048 OFFCURVE",
"1110 1162 OFFCURVE",
"904 1162 CURVE SMOOTH",
"624 1162 OFFCURVE",
"555 997 OFFCURVE",
"555 741 CURVE"
);
}
);
width = 1416;
}
);
leftKerningGroup = l;
leftMetricsKey = l;
rightKerningGroup = n;
rightMetricsKey = n;
unicode = 0068;
},
{
glyphname = idotless;
lastChange = "2020-11-16 21:05:47 +0000";
layers = (
{
anchors = (
{
name = bottom;
position = "{319, 0}";
},
{
name = ogonek;
position = "{579, 10}";
},
{
name = top;
position = "{320, 1100}";
}
);
hints = (
{
origin = "{0, 3}";
scale = "{-0.9, 1}";
type = Corner;
name = _corner.Serif;
},
{
origin = "{0, 0}";
type = Corner;
name = _corner.Serif;
options = 1;
},
{
origin = "{0, 1}";
scale = "{-0.9, 1}";
type = Corner;
name = _corner.Serif;
}
);
layerId = "CA54B7DC-FBBB-40FE-ACF3-AABDD76D6A7B";
paths = (
{
closed = 1;
nodes = (
"316 0 LINE",
"364 0 LINE",
"364 1100 LINE",
"316 1100 LINE"
);
}
);
width = 638;
},
{
anchors = (
{
name = bottom;
position = "{272, 0}";
},
{
name = ogonek;
position = "{495, 10}";
},
{
name = top;
position = "{268, 1080}";
}
);
hints = (
{
origin = "{0, 3}";
scale = "{-0.9, 1}";
type = Corner;
name = _corner.Serif;
},
{
origin = "{0, 0}";
type = Corner;
name = _corner.Serif;
options = 1;
},
{
origin = "{0, 1}";
scale = "{-0.9, 1}";
type = Corner;
name = _corner.Serif;
}
);
layerId = "1E61A082-F045-49A7-AB52-DD1B03FD9B54";
paths = (
{
closed = 1;
nodes = (
"264 0 LINE",
"312 0 LINE",
"312 1080 LINE",
"264 1080 LINE"
);
}
);
width = 545;
},
{
anchors = (
{
name = bottom;
position = "{411, 0}";
},
{
name = ogonek;
position = "{731, 10}";
},
{
name = top;
position = "{410, 1160}";
}
);
hints = (
{
origin = "{0, 3}";
scale = "{-0.96, 0.98}";
type = Corner;
name = _corner.Serif;
},
{
origin = "{0, 0}";
scale = "{1, 0.98}";
type = Corner;
name = _corner.Serif;
options = 1;
},
{
origin = "{0, 1}";
scale = "{-0.9, 0.98}";
type = Corner;
name = _corner.Serif;
}
);
layerId = "219068EA-2B9B-40DC-949E-B60449C01B8A";
paths = (
{
closed = 1;
nodes = (
"224 0 LINE",
"624 0 LINE",
"624 1160 LINE",
"224 1160 LINE"
);
}
);
width = 803;
},
{
anchors = (
{
name = bottom;
position = "{394, 0}";
},
{
name = ogonek;
position = "{706, 10}";
},
{
name = top;
position = "{394, 1140}";
}
);
hints = (
{
origin = "{0, 0}";
scale = "{1, 0.98}";
type = Corner;
name = _corner.Serif;
options = 1;
},
{
origin = "{0, 1}";
scale = "{-0.9, 0.98}";
type = Corner;
name = _corner.Serif;
},
{
origin = "{0, 3}";
scale = "{-0.96, 0.98}";
type = Corner;
name = _corner.Serif;
}
);
layerId = "0C29AA02-E021-4BD1-A2C4-87F681D64C35";
paths = (
{
closed = 1;
nodes = (
"208 0 LINE",
"608 0 LINE",
"608 1140 LINE",
"208 1140 LINE"
);
}
);
width = 780;
}
);
leftKerningGroup = n;
leftMetricsKey = n;
rightKerningGroup = l;
rightMetricsKey = l;
unicode = 0131;
},
{
glyphname = idotless.ss01;
lastChange = "2020-11-17 11:31:08 +0000";
layers = (
{
anchors = (
{
name = bottom;
position = "{451, 0}";
},
{
name = top;
position = "{276, 1100}";
}
);
hints = (
{
origin = "{0, 9}";
scale = "{-0.9, 1}";
type = Corner;
name = _corner.Serif;
}
);
layerId = "CA54B7DC-FBBB-40FE-ACF3-AABDD76D6A7B";
paths = (
{
closed = 1;
nodes = (
"604 420 LINE",
"604 198 LINE SMOOTH",
"604 95 OFFCURVE",
"556 24 OFFCURVE",
"459 24 CURVE SMOOTH",
"362 24 OFFCURVE",
"314 95 OFFCURVE",
"314 198 CURVE SMOOTH",
"314 1100 LINE",
"266 1100 LINE",
"266 198 LINE SMOOTH",
"266 62 OFFCURVE",
"339 -16 OFFCURVE",
"457 -16 CURVE SMOOTH",
"575 -16 OFFCURVE",
"648 62 OFFCURVE",
"648 198 CURVE SMOOTH",
"648 420 LINE"
);
}
);
width = 648;
},
{
anchors = (
{
name = bottom;
position = "{424, 0}";
},
{
name = top;
position = "{251, 1080}";
}
);
hints = (
{
origin = "{0, 9}";
scale = "{-0.9, 1}";
type = Corner;
name = _corner.Serif;
}
);
layerId = "1E61A082-F045-49A7-AB52-DD1B03FD9B54";
paths = (
{
closed = 1;
nodes = (
"579 480 LINE",
"579 198 LINE SMOOTH",
"579 95 OFFCURVE",
"531 24 OFFCURVE",
"434 24 CURVE SMOOTH",
"337 24 OFFCURVE",
"289 95 OFFCURVE",
"289 198 CURVE SMOOTH",
"289 1080 LINE",
"241 1080 LINE",
"241 198 LINE SMOOTH",
"241 62 OFFCURVE",
"314 -16 OFFCURVE",
"432 -16 CURVE SMOOTH",
"550 -16 OFFCURVE",
"623 62 OFFCURVE",
"623 198 CURVE SMOOTH",
"623 480 LINE"
);
}
);
width = 713;
},
{
anchors = (
{
name = bottom;
position = "{612, 0}";
},
{
name = top;
position = "{434, 1160}";
}
);
hints = (
{
origin = "{0, 9}";
scale = "{-1.26, 0.98}";
type = Corner;
name = _corner.Serif;
options = 1;
}
);
layerId = "219068EA-2B9B-40DC-949E-B60449C01B8A";
paths = (
{
closed = 1;
nodes = (
"796 500 LINE",
"796 332 LINE SMOOTH",
"796 279 OFFCURVE",
"768 242 OFFCURVE",
"715 242 CURVE SMOOTH",
"665 242 OFFCURVE",
"636 279 OFFCURVE",
"636 332 CURVE SMOOTH",
"636 1160 LINE",
"260 1160 LINE",
"232 348 LINE SMOOTH",
"224 112 OFFCURVE",
"375 -22 OFFCURVE",
"654 -22 CURVE SMOOTH",
"918 -22 OFFCURVE",
"1046 121 OFFCURVE",
"1046 351 CURVE SMOOTH",
"1046 500 LINE"
);
}
);
width = 1066;
},
{
anchors = (
{
name = bottom;
position = "{553, 0}";
},
{
name = top;
position = "{408, 1140}";
}
);
hints = (
{
origin = "{0, 9}";
scale = "{-1.16, 0.98}";
type = Corner;
name = _corner.Serif;
options = 1;
}
);
layerId = "0C29AA02-E021-4BD1-A2C4-87F681D64C35";
paths = (
{
closed = 1;
nodes = (
"742 640 LINE",
"742 318 LINE SMOOTH",
"742 271 OFFCURVE",
"717 242 OFFCURVE",
"673 242 CURVE SMOOTH",
"635 242 OFFCURVE",
"610 271 OFFCURVE",
"610 318 CURVE SMOOTH",
"610 1140 LINE",
"234 1140 LINE",
"206 328 LINE SMOOTH",
"198 104 OFFCURVE",
"330 -22 OFFCURVE",
"578 -22 CURVE SMOOTH",
"831 -22 OFFCURVE",
"940 113 OFFCURVE",
"940 331 CURVE SMOOTH",
"940 640 LINE"
);
}
);
width = 970;
}
);
leftKerningGroup = u;
leftMetricsKey = u;
rightKerningGroup = ialt;
rightMetricsKey = l.ss01;
},
{
glyphname = jdotless;
lastChange = "2020-11-16 21:05:47 +0000";
layers = (
{
anchors = (
{
name = bottom;
position = "{313, -440}";
},
{
name = top;
position = "{352, 1100}";
}
);
hints = (
{
origin = "{0, 3}";
scale = "{-0.9, 1}";
type = Corner;
name = _corner.Serif;
}
);
layerId = "CA54B7DC-FBBB-40FE-ACF3-AABDD76D6A7B";
paths = (
{
closed = 1;
nodes = (
"336 -140 LINE",
"384 -136 LINE",
"384 1100 LINE",
"336 1100 LINE"
);
},
{
closed = 1;
nodes = (
"304 -420 OFFCURVE",
"384 -323 OFFCURVE",
"384 -136 CURVE",
"336 -140 LINE",
"336 -298 OFFCURVE",
"269 -376 OFFCURVE",
"150 -376 CURVE",
"150 -420 LINE"
);
},
{
closed = 1;
nodes = (
"150 -376 LINE",
"43 -376 OFFCURVE",
"-21 -319 OFFCURVE",
"-19 -226 CURVE",
"-38 -241 LINE",
"17 -246 OFFCURVE",
"62 -228 OFFCURVE",
"62 -181 CURVE SMOOTH",
"62 -149 OFFCURVE",
"40 -129 OFFCURVE",
"8 -129 CURVE SMOOTH",
"-35 -129 OFFCURVE",
"-68 -164 OFFCURVE",
"-68 -221 CURVE SMOOTH",
"-68 -354 OFFCURVE",
"23 -420 OFFCURVE",
"150 -420 CURVE"
);
}
);
width = 626;
},
{
anchors = (
{
name = bottom;
position = "{267, -440}";
},
{
name = top;
position = "{296, 1080}";
}
);
hints = (
{
origin = "{0, 3}";
scale = "{-0.9, 1}";
type = Corner;
name = _corner.Serif;
}
);
layerId = "1E61A082-F045-49A7-AB52-DD1B03FD9B54";
paths = (
{
closed = 1;
nodes = (
"278 -110 LINE",
"326 -106 LINE",
"326 1080 LINE",
"278 1080 LINE"
);
},
{
closed = 1;
nodes = (
"238 -420 OFFCURVE",
"326 -313 OFFCURVE",
"326 -106 CURVE",
"278 -110 LINE",
"278 -292 OFFCURVE",
"203 -382 OFFCURVE",
"68 -382 CURVE",
"68 -420 LINE"
);
},
{
closed = 1;
nodes = (
"68 -382 LINE",
"-44 -382 OFFCURVE",
"-110 -318 OFFCURVE",
"-109 -216 CURVE",
"-128 -231 LINE",
"-70 -236 OFFCURVE",
"-24 -218 OFFCURVE",
"-24 -171 CURVE SMOOTH",
"-24 -139 OFFCURVE",
"-46 -119 OFFCURVE",
"-78 -119 CURVE SMOOTH",
"-121 -119 OFFCURVE",
"-154 -154 OFFCURVE",
"-154 -211 CURVE SMOOTH",
"-154 -351 OFFCURVE",
"-61 -420 OFFCURVE",
"68 -420 CURVE"
);
}
);
width = 534;
},
{
anchors = (
{
name = bottom;
position = "{390, -440}";
},
{
name = top;
position = "{420, 1160}";
}
);
hints = (
{
origin = "{0, 3}";
scale = "{-0.96, 0.98}";
type = Corner;
name = _corner.Serif;
}
);
layerId = "219068EA-2B9B-40DC-949E-B60449C01B8A";
paths = (
{
closed = 1;
nodes = (
"226 -103 LINE",
"630 66 LINE",
"630 1160 LINE",
"226 1160 LINE"
);
},
{
closed = 1;
nodes = (
"384 -440 OFFCURVE",
"630 -283 OFFCURVE",
"630 66 CURVE",
"226 -103 LINE",
"226 -223 OFFCURVE",
"168 -270 OFFCURVE",
"72 -270 CURVE",
"110 -440 LINE"
);
},
{
closed = 1;
nodes = (
"72 -270 LINE",
"20 -270 OFFCURVE",
"-18 -241 OFFCURVE",
"-39 -207 CURVE",
"-68 -308 LINE",
"53 -308 OFFCURVE",
"145 -284 OFFCURVE",
"145 -168 CURVE SMOOTH",
"145 -74 OFFCURVE",
"60 -28 OFFCURVE",
"-40 -28 CURVE SMOOTH",
"-178 -28 OFFCURVE",
"-252 -110 OFFCURVE",
"-252 -204 CURVE SMOOTH",
"-252 -346 OFFCURVE",
"-103 -440 OFFCURVE",
"110 -440 CURVE"
);
}
);
width = 780;
},
{
anchors = (
{
name = bottom;
position = "{372, -440}";
},
{
name = top;
position = "{406, 1140}";
}
);
hints = (
{
origin = "{0, 3}";
scale = "{-0.96, 0.98}";
type = Corner;
name = _corner.Serif;
}
);
layerId = "0C29AA02-E021-4BD1-A2C4-87F681D64C35";
paths = (
{
closed = 1;
nodes = (
"216 -123 LINE",
"620 66 LINE",
"620 1140 LINE",
"216 1140 LINE"
);
},
{
closed = 1;
nodes = (
"374 -440 OFFCURVE",
"620 -283 OFFCURVE",
"620 66 CURVE",
"216 -123 LINE",
"216 -243 OFFCURVE",
"158 -290 OFFCURVE",
"62 -290 CURVE",
"100 -440 LINE"
);
},
{
closed = 1;
nodes = (
"62 -290 LINE",
"5 -290 OFFCURVE",
"-36 -261 OFFCURVE",
"-59 -227 CURVE",
"-78 -288 LINE",
"43 -288 OFFCURVE",
"135 -266 OFFCURVE",
"135 -158 CURVE SMOOTH",
"135 -71 OFFCURVE",
"50 -28 OFFCURVE",
"-50 -28 CURVE SMOOTH",
"-188 -28 OFFCURVE",
"-262 -110 OFFCURVE",
"-262 -204 CURVE SMOOTH",
"-262 -346 OFFCURVE",
"-113 -440 OFFCURVE",
"100 -440 CURVE"
);
}
);
width = 724;
}
);
leftKerningGroup = p;
rightKerningGroup = q;
unicode = 0237;
},
{
glyphname = k;
lastChange = "2020-11-16 21:19:31 +0000";
layers = (
{
anchors = (
{
name = bottom;
position = "{682, 0}";
},
{
name = top;
position = "{682, 1560}";
}
);
hints = (
{
origin = "{0, 0}";
type = Corner;
name = _corner.Serif;
options = 1;
},
{
origin = "{0, 1}";
scale = "{-0.9, 1}";
type = Corner;
name = _corner.Serif;
},
{
origin = "{0, 3}";
scale = "{-0.9, 1}";
type = Corner;
name = _corner.Serif;
},
{
origin = "{1, 0}";
scale = "{-1.16, 1}";
type = Corner;
name = _corner.Serif;
options = 1;
},
{
origin = "{1, 3}";
scale = "{0.46, 1}";
type = Corner;
name = _corner.Serif;
},
{
origin = "{2, 2}";
scale = "{1.2, 1}";
type = Corner;
name = _corner.Serif;
},
{
origin = "{2, 3}";
scale = "{-0.5, 1}";
type = Corner;
name = _corner.Serif;
options = 1;
}
);
layerId = "CA54B7DC-FBBB-40FE-ACF3-AABDD76D6A7B";
paths = (
{
closed = 1;
nodes = (
"292 0 LINE",
"340 0 LINE",
"340 1560 LINE",
"292 1560 LINE"
);
},
{
closed = 1;
nodes = (
"1096 1100 LINE",
"306 432 LINE",
"331 398 LINE",
"1164 1100 LINE"
);
},
{
closed = 1;
nodes = (
"583 646 LINE",
"550 614 LINE",
"1138 0 LINE",
"1205 0 LINE"
);
}
);
width = 1370;
},
{
anchors = (
{
name = bottom;
position = "{626, 0}";
},
{
name = top;
position = "{626, 1500}";
}
);
hints = (
{
origin = "{0, 0}";
type = Corner;
name = _corner.Serif;
options = 1;
},
{
origin = "{0, 1}";
scale = "{-0.9, 1}";
type = Corner;
name = _corner.Serif;
},
{
origin = "{0, 3}";
scale = "{-0.9, 1}";
type = Corner;
name = _corner.Serif;
},
{
origin = "{1, 0}";
scale = "{-1.16, 1}";
type = Corner;
name = _corner.Serif;
options = 1;
},
{
origin = "{1, 3}";
scale = "{0.46, 1}";
type = Corner;
name = _corner.Serif;
},
{
origin = "{2, 2}";
scale = "{1.2, 1}";
type = Corner;
name = _corner.Serif;
},
{
origin = "{2, 3}";
scale = "{-0.5, 1}";
type = Corner;
name = _corner.Serif;
options = 1;
}
);
layerId = "1E61A082-F045-49A7-AB52-DD1B03FD9B54";
paths = (
{
closed = 1;
nodes = (
"254 0 LINE",
"302 0 LINE",
"302 1500 LINE",
"254 1500 LINE"
);
},
{
closed = 1;
nodes = (
"1009 1080 LINE",
"268 426 LINE",
"290 392 LINE",
"1072 1080 LINE"
);
},
{
closed = 1;
nodes = (
"541 646 LINE",
"508 614 LINE",
"1045 0 LINE",
"1109 0 LINE"
);
}
);
width = 1252;
},
{
anchors = (
{
name = bottom;
position = "{750, 0}";
},
{
name = top;
position = "{750, 1580}";
}
);
hints = (
{
origin = "{0, 0}";
scale = "{1, 0.98}";
type = Corner;
name = _corner.Serif;
options = 1;
},
{
origin = "{0, 1}";
scale = "{-0.58, 0.98}";
type = Corner;
name = _corner.Serif;
},
{
origin = "{0, 3}";
scale = "{-0.96, 0.98}";
type = Corner;
name = _corner.Serif;
},
{
origin = "{1, 0}";
scale = "{-2.1, 0.98}";
type = Corner;
name = _corner.Serif;
options = 1;
},
{
origin = "{1, 3}";
scale = "{0.02, 0.98}";
type = Corner;
name = _corner.Serif;
},
{
origin = "{2, 2}";
scale = "{1.18, 0.98}";
type = Corner;
name = _corner.Serif;
},
{
origin = "{2, 3}";
scale = "{-0.18, 0.98}";
type = Corner;
name = _corner.Serif;
options = 1;
}
);
layerId = "219068EA-2B9B-40DC-949E-B60449C01B8A";
paths = (
{
closed = 1;
nodes = (
"194 0 LINE",
"594 0 LINE",
"595 1580 LINE",
"195 1580 LINE"
);
},
{
closed = 1;
nodes = (
"1161 1160 LINE",
"416 482 LINE",
"574 318 LINE",
"1515 1160 LINE"
);
},
{
closed = 1;
nodes = (
"933 799 LINE",
"660 553 LINE",
"1027 0 LINE",
"1493 0 LINE"
);
}
);
width = 1504;
},
{
anchors = (
{
name = bottom;
position = "{720, 0}";
},
{
name = top;
position = "{720, 1500}";
}
);
hints = (
{
origin = "{0, 0}";
scale = "{1, 0.98}";
type = Corner;
name = _corner.Serif;
options = 1;
},
{
origin = "{0, 1}";
scale = "{-0.62, 0.98}";
type = Corner;
name = _corner.Serif;
},
{
origin = "{0, 3}";
scale = "{-0.96, 0.98}";
type = Corner;
name = _corner.Serif;
},
{
origin = "{1, 0}";
scale = "{-2.04, 0.98}";
type = Corner;
name = _corner.Serif;
options = 1;
},
{
origin = "{1, 3}";
scale = "{0.02, 0.98}";
type = Corner;
name = _corner.Serif;
},
{
origin = "{2, 2}";
scale = "{1.18, 0.98}";
type = Corner;
name = _corner.Serif;
},
{
origin = "{2, 3}";
scale = "{-0.18, 0.98}";
type = Corner;
name = _corner.Serif;
options = 1;
}
);
layerId = "0C29AA02-E021-4BD1-A2C4-87F681D64C35";
paths = (
{
closed = 1;
nodes = (
"184 0 LINE",
"584 0 LINE",
"585 1500 LINE",
"185 1500 LINE"
);
},
{
closed = 1;
nodes = (
"1116 1140 LINE",
"415 496 LINE",
"557 348 LINE",
"1428 1140 LINE"
);
},
{
closed = 1;
nodes = (
"895 799 LINE",
"635 563 LINE",
"984 0 LINE",
"1426 0 LINE"
);
}
);
width = 1443;
}
);
leftKerningGroup = l;
leftMetricsKey = l;
rightKerningGroup = k;
rightMetricsKey = x;
unicode = 006B;
},
{
glyphname = l;
lastChange = "2020-11-16 21:05:47 +0000";
layers = (
{
anchors = (
{
name = bottom;
position = "{307, 0}";
},
{
name = center;
position = "{307, 780}";
},
{
name = top;
position = "{296, 1560}";
},
{
name = topright;
position = "{340, 1560}";
}
);
hints = (
{
origin = "{0, 3}";
scale = "{-0.9, 1}";
type = Corner;
name = _corner.Serif;
},
{
origin = "{0, 0}";
type = Corner;
name = _corner.Serif;
options = 1;
},
{
origin = "{0, 1}";
scale = "{-0.9, 1}";
type = Corner;
name = _corner.Serif;
}
);
layerId = "CA54B7DC-FBBB-40FE-ACF3-AABDD76D6A7B";
paths = (
{
closed = 1;
nodes = (
"292 0 LINE",
"340 0 LINE",
"340 1560 LINE",
"292 1560 LINE"
);
}
);
width = 614;
},
{
anchors = (
{
name = bottom;
position = "{271, 0}";
},
{
name = center;
position = "{271, 750}";
},
{
name = top;
position = "{258, 1500}";
},
{
name = topright;
position = "{302, 1500}";
}
);
hints = (
{
origin = "{0, 0}";
type = Corner;
name = _corner.Serif;
},
{
origin = "{0, 1}";
scale = "{-0.9, 1}";
type = Corner;
name = _corner.Serif;
options = 1;
},
{
origin = "{0, 3}";
scale = "{-0.9, 1}";
type = Corner;
name = _corner.Serif;
}
);
layerId = "1E61A082-F045-49A7-AB52-DD1B03FD9B54";
paths = (
{
closed = 1;
nodes = (
"254 0 LINE",
"302 0 LINE",
"302 1500 LINE",
"254 1500 LINE"
);
}
);
width = 535;
},
{
anchors = (
{
name = bottom;
position = "{394, 0}";
},
{
name = center;
position = "{394, 790}";
},
{
name = top;
position = "{384, 1580}";
},
{
name = topright;
position = "{598, 1580}";
}
);
hints = (
{
origin = "{0, 3}";
scale = "{-0.96, 0.98}";
type = Corner;
name = _corner.Serif;
},
{
origin = "{0, 0}";
scale = "{1, 0.98}";
type = Corner;
name = _corner.Serif;
options = 1;
},
{
origin = "{0, 1}";
scale = "{-0.94, 0.98}";
type = Corner;
name = _corner.Serif;
}
);
layerId = "219068EA-2B9B-40DC-949E-B60449C01B8A";
paths = (
{
closed = 1;
nodes = (
"194 0 LINE",
"598 0 LINE",
"598 1580 LINE",
"194 1580 LINE"
);
}
);
width = 783;
},
{
anchors = (
{
name = bottom;
position = "{383, 0}";
},
{
name = center;
position = "{383, 750}";
},
{
name = top;
position = "{374, 1500}";
},
{
name = topright;
position = "{588, 1500}";
}
);
hints = (
{
origin = "{0, 0}";
scale = "{1, 0.98}";
type = Corner;
name = _corner.Serif;
options = 1;
},
{
origin = "{0, 1}";
scale = "{-0.94, 0.98}";
type = Corner;
name = _corner.Serif;
},
{
origin = "{0, 3}";
scale = "{-0.96, 0.98}";
type = Corner;
name = _corner.Serif;
}
);
layerId = "0C29AA02-E021-4BD1-A2C4-87F681D64C35";
paths = (
{
closed = 1;
nodes = (
"184 0 LINE",
"588 0 LINE",
"588 1500 LINE",
"184 1500 LINE"
);
}
);
width = 766;
}
);
leftKerningGroup = l;
rightKerningGroup = l;
unicode = 006C;
},
{
glyphname = l.ss01;
lastChange = "2020-11-17 11:32:14 +0000";
layers = (
{
anchors = (
{
name = bottom;
position = "{285, 0}";
},
{
name = center;
position = "{285, 780}";
},
{
name = top;
position = "{274, 1560}";
},
{
name = topright;
position = "{318, 1560}";
}
);
hints = (
{
origin = "{0, 9}";
scale = "{-0.9, 1}";
type = Corner;
name = _corner.Serif;
}
);
layerId = "CA54B7DC-FBBB-40FE-ACF3-AABDD76D6A7B";
paths = (
{
closed = 1;
nodes = (
"608 420 LINE",
"608 198 LINE SMOOTH",
"608 95 OFFCURVE",
"560 24 OFFCURVE",
"463 24 CURVE SMOOTH",
"366 24 OFFCURVE",
"318 95 OFFCURVE",
"318 198 CURVE SMOOTH",
"318 1560 LINE",
"270 1560 LINE",
"270 198 LINE SMOOTH",
"270 62 OFFCURVE",
"343 -16 OFFCURVE",
"461 -16 CURVE SMOOTH",
"579 -16 OFFCURVE",
"652 62 OFFCURVE",
"652 198 CURVE SMOOTH",
"652 420 LINE"
);
}
);
width = 652;
},
{
anchors = (
{
name = bottom;
position = "{236, 0}";
},
{
name = center;
position = "{236, 780}";
},
{
name = top;
position = "{225, 1500}";
},
{
name = topright;
position = "{269, 1500}";
}
);
hints = (
{
origin = "{0, 9}";
scale = "{-0.9, 1}";
type = Corner;
name = _corner.Serif;
}
);
layerId = "1E61A082-F045-49A7-AB52-DD1B03FD9B54";
paths = (
{
closed = 1;
nodes = (
"559 480 LINE",
"559 198 LINE SMOOTH",
"559 95 OFFCURVE",
"511 24 OFFCURVE",
"414 24 CURVE SMOOTH",
"317 24 OFFCURVE",
"269 95 OFFCURVE",
"269 198 CURVE SMOOTH",
"269 1500 LINE",
"221 1500 LINE",
"221 198 LINE SMOOTH",
"221 62 OFFCURVE",
"294 -16 OFFCURVE",
"412 -16 CURVE SMOOTH",
"530 -16 OFFCURVE",
"603 62 OFFCURVE",
"603 198 CURVE SMOOTH",
"603 480 LINE"
);
}
);
width = 693;
},
{
anchors = (
{
name = bottom;
position = "{574, 0}";
},
{
name = center;
position = "{396, 790}";
},
{
name = top;
position = "{386, 1580}";
},
{
name = topright;
position = "{600, 1580}";
}
);
hints = (
{
origin = "{0, 9}";
scale = "{-1.26, 0.98}";
type = Corner;
name = _corner.Serif;
options = 1;
}
);
layerId = "219068EA-2B9B-40DC-949E-B60449C01B8A";
paths = (
{
closed = 1;
nodes = (
"760 500 LINE",
"760 332 LINE SMOOTH",
"760 279 OFFCURVE",
"732 242 OFFCURVE",
"679 242 CURVE SMOOTH",
"629 242 OFFCURVE",
"600 279 OFFCURVE",
"600 332 CURVE SMOOTH",
"600 1580 LINE",
"226 1580 LINE",
"192 408 LINE SMOOTH",
"184 116 OFFCURVE",
"340 -22 OFFCURVE",
"622 -22 CURVE SMOOTH",
"883 -22 OFFCURVE",
"1010 121 OFFCURVE",
"1010 351 CURVE SMOOTH",
"1010 500 LINE"
);
}
);
width = 1030;
},
{
anchors = (
{
name = bottom;
position = "{501, 0}";
},
{
name = center;
position = "{353, 750}";
},
{
name = top;
position = "{344, 1500}";
},
{
name = topright;
position = "{558, 1500}";
}
);
hints = (
{
origin = "{0, 9}";
scale = "{-1.26, 0.98}";
type = Corner;
name = _corner.Serif;
options = 1;
}
);
layerId = "0C29AA02-E021-4BD1-A2C4-87F681D64C35";
paths = (
{
closed = 1;
nodes = (
"690 640 LINE",
"690 318 LINE SMOOTH",
"690 271 OFFCURVE",
"665 242 OFFCURVE",
"621 242 CURVE SMOOTH",
"583 242 OFFCURVE",
"558 271 OFFCURVE",
"558 318 CURVE SMOOTH",
"558 1500 LINE",
"184 1500 LINE",
"150 388 LINE SMOOTH",
"142 116 OFFCURVE",
"278 -22 OFFCURVE",
"526 -22 CURVE SMOOTH",
"779 -22 OFFCURVE",
"888 113 OFFCURVE",
"888 331 CURVE SMOOTH",
"888 640 LINE"
);
}
);
width = 918;
}
);
leftKerningGroup = lalt;
leftMetricsKey = b;
rightKerningGroup = ialt;
},
{
glyphname = m;
lastChange = "2020-11-16 21:05:47 +0000";
layers = (
{
anchors = (
{
name = bottom;
position = "{936, 0}";
},
{
name = top;
position = "{936, 1100}";
}
);
hints = (
{
origin = "{0, 5}";
scale = "{-0.9, 1}";
type = Corner;
name = _corner.Serif;
},
{
origin = "{0, 0}";
type = Corner;
name = _corner.Serif;
options = 1;
},
{
origin = "{0, 1}";
scale = "{-0.86, 1}";
type = Corner;
name = _corner.Serif;
},
{
origin = "{1, 7}";
scale = "{0.86, 1}";
type = Corner;
name = _corner.Serif;
},
{
origin = "{1, 8}";
scale = "{-0.86, 1}";
type = Corner;
name = _corner.Serif;
options = 1;
},
{
origin = "{2, 7}";
scale = "{0.86, 1}";
type = Corner;
name = _corner.Serif;
options = 1;
},
{
origin = "{2, 8}";
scale = "{-0.86, 1}";
type = Corner;
name = _corner.Serif;
}
);
layerId = "CA54B7DC-FBBB-40FE-ACF3-AABDD76D6A7B";
paths = (
{
closed = 1;
nodes = (
"316 0 LINE",
"364 0 LINE",
"364 734 LINE",
"360 734 LINE",
"360 1100 LINE",
"316 1100 LINE"
);
},
{
closed = 1;
nodes = (
"364 674 LINE",
"364 949 OFFCURVE",
"523 1072 OFFCURVE",
"690 1072 CURVE SMOOTH",
"849 1072 OFFCURVE",
"942 995 OFFCURVE",
"942 812 CURVE SMOOTH",
"942 0 LINE",
"990 0 LINE",
"990 812 LINE SMOOTH",
"990 1031 OFFCURVE",
"870 1116 OFFCURVE",
"692 1116 CURVE SMOOTH",
"499 1116 OFFCURVE",
"328 982 OFFCURVE",
"328 674 CURVE"
);
},
{
closed = 1;
nodes = (
"990 674 LINE",
"990 949 OFFCURVE",
"1149 1072 OFFCURVE",
"1316 1072 CURVE SMOOTH",
"1475 1072 OFFCURVE",
"1568 995 OFFCURVE",
"1568 812 CURVE SMOOTH",
"1568 0 LINE",
"1616 0 LINE",
"1616 812 LINE SMOOTH",
"1616 1031 OFFCURVE",
"1498 1116 OFFCURVE",
"1318 1116 CURVE SMOOTH",
"1125 1116 OFFCURVE",
"954 982 OFFCURVE",
"954 674 CURVE"
);
}
);
width = 1876;
},
{
anchors = (
{
name = bottom;
position = "{818, 0}";
},
{
name = top;
position = "{818, 1080}";
}
);
hints = (
{
origin = "{0, 5}";
scale = "{-0.9, 1}";
type = Corner;
name = _corner.Serif;
},
{
origin = "{0, 0}";
type = Corner;
name = _corner.Serif;
options = 1;
},
{
origin = "{0, 1}";
scale = "{-0.88, 1}";
type = Corner;
name = _corner.Serif;
},
{
origin = "{1, 7}";
scale = "{0.88, 1}";
type = Corner;
name = _corner.Serif;
},
{
origin = "{1, 8}";
scale = "{-0.88, 1}";
type = Corner;
name = _corner.Serif;
options = 1;
},
{
origin = "{2, 7}";
scale = "{0.88, 1}";
type = Corner;
name = _corner.Serif;
options = 1;
},
{
origin = "{2, 8}";
scale = "{-0.86, 1}";
type = Corner;
name = _corner.Serif;
}
);
layerId = "1E61A082-F045-49A7-AB52-DD1B03FD9B54";
paths = (
{
closed = 1;
nodes = (
"264 0 LINE",
"312 0 LINE",
"312 764 LINE",
"308 764 LINE",
"308 1080 LINE",
"264 1080 LINE"
);
},
{
closed = 1;
nodes = (
"312 704 LINE",
"312 948 OFFCURVE",
"451 1058 OFFCURVE",
"598 1058 CURVE SMOOTH",
"740 1058 OFFCURVE",
"818 989 OFFCURVE",
"818 844 CURVE SMOOTH",
"818 0 LINE",
"866 0 LINE",
"866 844 LINE SMOOTH",
"866 1021 OFFCURVE",
"758 1096 OFFCURVE",
"600 1096 CURVE SMOOTH",
"428 1096 OFFCURVE",
"285 977 OFFCURVE",
"285 704 CURVE"
);
},
{
closed = 1;
nodes = (
"866 704 LINE",
"866 948 OFFCURVE",
"1005 1058 OFFCURVE",
"1152 1058 CURVE SMOOTH",
"1294 1058 OFFCURVE",
"1372 989 OFFCURVE",
"1372 844 CURVE SMOOTH",
"1372 0 LINE",
"1420 0 LINE",
"1420 844 LINE SMOOTH",
"1420 1021 OFFCURVE",
"1314 1096 OFFCURVE",
"1154 1096 CURVE SMOOTH",
"982 1096 OFFCURVE",
"839 977 OFFCURVE",
"839 704 CURVE"
);
}
);
width = 1642;
},
{
anchors = (
{
name = bottom;
position = "{1078, 0}";
},
{
name = top;
position = "{1078, 1160}";
}
);
hints = (
{
origin = "{0, 0}";
scale = "{1, 0.98}";
type = Corner;
name = _corner.Serif;
},
{
origin = "{0, 1}";
scale = "{-0.62, 0.98}";
type = Corner;
name = _corner.Serif;
options = 1;
},
{
origin = "{0, 5}";
scale = "{-0.96, 0.98}";
type = Corner;
name = _corner.Serif;
},
{
origin = "{1, 7}";
scale = "{0.62, 0.98}";
type = Corner;
name = _corner.Serif;
options = 1;
},
{
origin = "{1, 8}";
scale = "{-0.62, 0.98}";
type = Corner;
name = _corner.Serif;
},
{
origin = "{2, 7}";
scale = "{0.62, 0.98}";
type = Corner;
name = _corner.Serif;
options = 1;
},
{
origin = "{2, 8}";
scale = "{-0.76, 0.98}";
type = Corner;
name = _corner.Serif;
}
);
layerId = "219068EA-2B9B-40DC-949E-B60449C01B8A";
paths = (
{
closed = 1;
nodes = (
"224 0 LINE",
"618 0 LINE",
"618 786 LINE",
"568 778 LINE",
"568 1160 LINE",
"224 1160 LINE"
);
},
{
closed = 1;
nodes = (
"618 729 LINE",
"618 869 OFFCURVE",
"690 918 OFFCURVE",
"773 918 CURVE SMOOTH",
"852 918 OFFCURVE",
"904 870 OFFCURVE",
"904 775 CURVE SMOOTH",
"904 0 LINE",
"1298 0 LINE",
"1298 786 LINE SMOOTH",
"1298 1061 OFFCURVE",
"1147 1182 OFFCURVE",
"933 1182 CURVE SMOOTH",
"631 1182 OFFCURVE",
"555 1003 OFFCURVE",
"555 727 CURVE"
);
},
{
closed = 1;
nodes = (
"1298 729 LINE",
"1298 869 OFFCURVE",
"1370 918 OFFCURVE",
"1453 918 CURVE SMOOTH",
"1532 918 OFFCURVE",
"1584 870 OFFCURVE",
"1584 775 CURVE SMOOTH",
"1584 0 LINE",
"1978 0 LINE",
"1978 786 LINE SMOOTH",
"1978 1061 OFFCURVE",
"1829 1182 OFFCURVE",
"1621 1182 CURVE SMOOTH",
"1325 1182 OFFCURVE",
"1251 1003 OFFCURVE",
"1251 727 CURVE"
);
}
);
width = 2150;
},
{
anchors = (
{
name = bottom;
position = "{1041, 0}";
},
{
name = top;
position = "{1041, 1140}";
}
);
hints = (
{
origin = "{0, 0}";
scale = "{1, 0.98}";
type = Corner;
name = _corner.Serif;
},
{
origin = "{0, 1}";
scale = "{-0.6, 0.98}";
type = Corner;
name = _corner.Serif;
options = 1;
},
{
origin = "{0, 5}";
scale = "{-0.96, 0.98}";
type = Corner;
name = _corner.Serif;
},
{
origin = "{1, 7}";
scale = "{0.6, 0.98}";
type = Corner;
name = _corner.Serif;
options = 1;
},
{
origin = "{1, 8}";
scale = "{-0.6, 0.98}";
type = Corner;
name = _corner.Serif;
},
{
origin = "{2, 7}";
scale = "{0.6, 0.98}";
type = Corner;
name = _corner.Serif;
options = 1;
},
{
origin = "{2, 8}";
scale = "{-0.76, 0.98}";
type = Corner;
name = _corner.Serif;
}
);
layerId = "0C29AA02-E021-4BD1-A2C4-87F681D64C35";
paths = (
{
closed = 1;
nodes = (
"208 0 LINE",
"602 0 LINE",
"602 766 LINE",
"552 758 LINE",
"552 1140 LINE",
"208 1140 LINE"
);
},
{
closed = 1;
nodes = (
"602 739 LINE",
"602 872 OFFCURVE",
"669 918 OFFCURVE",
"747 918 CURVE SMOOTH",
"820 918 OFFCURVE",
"868 873 OFFCURVE",
"868 785 CURVE SMOOTH",
"868 0 LINE",
"1262 0 LINE",
"1262 786 LINE SMOOTH",
"1262 1047 OFFCURVE",
"1109 1162 OFFCURVE",
"901 1162 CURVE SMOOTH",
"612 1162 OFFCURVE",
"539 995 OFFCURVE",
"539 737 CURVE"
);
},
{
closed = 1;
nodes = (
"1262 739 LINE",
"1262 872 OFFCURVE",
"1329 918 OFFCURVE",
"1407 918 CURVE SMOOTH",
"1480 918 OFFCURVE",
"1528 873 OFFCURVE",
"1528 785 CURVE SMOOTH",
"1528 0 LINE",
"1922 0 LINE",
"1922 776 LINE SMOOTH",
"1922 1044 OFFCURVE",
"1780 1162 OFFCURVE",
"1577 1162 CURVE SMOOTH",
"1292 1162 OFFCURVE",
"1221 995 OFFCURVE",
"1221 737 CURVE"
);
}
);
width = 2082;
}
);
leftKerningGroup = n;
leftMetricsKey = n;
rightKerningGroup = n;
rightMetricsKey = n;
unicode = 006D;
},
{
glyphname = n;
lastChange = "2020-11-16 21:05:47 +0000";
layers = (
{
anchors = (
{
name = bottom;
position = "{703, 0}";
},
{
name = top;
position = "{705, 1100}";
}
);
hints = (
{
origin = "{0, 0}";
type = Corner;
name = _corner.Serif;
},
{
origin = "{0, 1}";
scale = "{-1, 1}";
type = Corner;
name = _corner.Serif;
options = 1;
},
{
origin = "{1, 7}";
type = Corner;
name = _corner.Serif;
options = 1;
},
{
origin = "{1, 8}";
scale = "{-0.86, 1}";
type = Corner;
name = _corner.Serif;
},
{
origin = "{0, 5}";
scale = "{-0.9, 1}";
type = Corner;
name = _corner.Serif;
}
);
layerId = "CA54B7DC-FBBB-40FE-ACF3-AABDD76D6A7B";
paths = (
{
closed = 1;
nodes = (
"316 0 LINE",
"364 0 LINE",
"364 710 LINE",
"360 710 LINE",
"360 1100 LINE",
"316 1100 LINE"
);
},
{
closed = 1;
nodes = (
"364 552 LINE",
"364 911 OFFCURVE",
"570 1072 OFFCURVE",
"790 1072 CURVE SMOOTH",
"982 1072 OFFCURVE",
"1102 981 OFFCURVE",
"1102 764 CURVE SMOOTH",
"1102 0 LINE",
"1150 0 LINE",
"1150 764 LINE SMOOTH",
"1150 1018 OFFCURVE",
"1002 1116 OFFCURVE",
"792 1116 CURVE SMOOTH",
"550 1116 OFFCURVE",
"328 954 OFFCURVE",
"328 552 CURVE"
);
}
);
width = 1410;
},
{
anchors = (
{
name = bottom;
position = "{625, 0}";
},
{
name = top;
position = "{623, 1080}";
}
);
hints = (
{
origin = "{0, 0}";
type = Corner;
name = _corner.Serif;
},
{
origin = "{0, 1}";
scale = "{-1.22, 1}";
type = Corner;
name = _corner.Serif;
},
{
origin = "{1, 7}";
scale = "{1.22, 1}";
type = Corner;
name = _corner.Serif;
},
{
origin = "{1, 8}";
scale = "{-0.86, 1}";
type = Corner;
name = _corner.Serif;
},
{
origin = "{0, 5}";
scale = "{-0.9, 1}";
type = Corner;
name = _corner.Serif;
}
);
layerId = "1E61A082-F045-49A7-AB52-DD1B03FD9B54";
paths = (
{
closed = 1;
nodes = (
"264 0 LINE",
"312 0 LINE",
"312 740 LINE",
"308 740 LINE",
"308 1080 LINE",
"264 1080 LINE"
);
},
{
closed = 1;
nodes = (
"312 582 LINE",
"312 908 OFFCURVE",
"503 1058 OFFCURVE",
"708 1058 CURVE SMOOTH",
"881 1058 OFFCURVE",
"986 967 OFFCURVE",
"986 774 CURVE SMOOTH",
"986 0 LINE",
"1034 0 LINE",
"1034 774 LINE SMOOTH",
"1034 998 OFFCURVE",
"900 1096 OFFCURVE",
"710 1096 CURVE SMOOTH",
"483 1096 OFFCURVE",
"285 952 OFFCURVE",
"285 582 CURVE"
);
}
);
width = 1256;
},
{
anchors = (
{
name = bottom;
position = "{760, 0}";
},
{
name = top;
position = "{754, 1160}";
}
);
hints = (
{
origin = "{0, 0}";
scale = "{1, 0.98}";
type = Corner;
name = _corner.Serif;
},
{
origin = "{0, 1}";
scale = "{-0.66, 0.98}";
type = Corner;
name = _corner.Serif;
options = 1;
},
{
origin = "{1, 7}";
scale = "{0.66, 0.98}";
type = Corner;
name = _corner.Serif;
options = 1;
},
{
origin = "{1, 8}";
scale = "{-0.76, 0.98}";
type = Corner;
name = _corner.Serif;
},
{
origin = "{0, 5}";
scale = "{-0.96, 0.98}";
type = Corner;
name = _corner.Serif;
}
);
layerId = "219068EA-2B9B-40DC-949E-B60449C01B8A";
paths = (
{
closed = 1;
nodes = (
"224 0 LINE",
"624 0 LINE",
"624 779 LINE",
"574 771 LINE",
"574 1161 LINE",
"224 1161 LINE"
);
},
{
closed = 1;
nodes = (
"624 722 LINE",
"624 868 OFFCURVE",
"704 919 OFFCURVE",
"795 919 CURVE SMOOTH",
"883 919 OFFCURVE",
"942 868 OFFCURVE",
"942 768 CURVE SMOOTH",
"942 0 LINE",
"1342 0 LINE",
"1342 779 LINE SMOOTH",
"1342 1060 OFFCURVE",
"1181 1183 OFFCURVE",
"955 1183 CURVE SMOOTH",
"639 1183 OFFCURVE",
"557 1001 OFFCURVE",
"557 720 CURVE"
);
}
);
width = 1514;
},
{
anchors = (
{
name = bottom;
position = "{720, 0}";
},
{
name = top;
position = "{716, 1140}";
}
);
hints = (
{
origin = "{0, 0}";
scale = "{1, 0.98}";
type = Corner;
name = _corner.Serif;
},
{
origin = "{0, 1}";
scale = "{-0.64, 0.98}";
type = Corner;
name = _corner.Serif;
options = 1;
},
{
origin = "{0, 5}";
scale = "{-0.96, 0.98}";
type = Corner;
name = _corner.Serif;
},
{
origin = "{1, 7}";
scale = "{0.64, 0.98}";
type = Corner;
name = _corner.Serif;
options = 1;
},
{
origin = "{1, 8}";
scale = "{-0.76, 0.98}";
type = Corner;
name = _corner.Serif;
}
);
layerId = "0C29AA02-E021-4BD1-A2C4-87F681D64C35";
paths = (
{
closed = 1;
nodes = (
"208 0 LINE",
"608 0 LINE",
"608 800 LINE",
"558 792 LINE",
"558 1140 LINE",
"208 1140 LINE"
);
},
{
closed = 1;
nodes = (
"608 743 LINE",
"608 874 OFFCURVE",
"677 920 OFFCURVE",
"756 920 CURVE SMOOTH",
"831 920 OFFCURVE",
"880 876 OFFCURVE",
"880 789 CURVE SMOOTH",
"880 0 LINE",
"1280 0 LINE",
"1280 789 LINE SMOOTH",
"1280 1048 OFFCURVE",
"1123 1162 OFFCURVE",
"914 1162 CURVE SMOOTH",
"623 1162 OFFCURVE",
"545 997 OFFCURVE",
"545 741 CURVE"
);
}
);
width = 1440;
}
);
leftKerningGroup = n;
rightKerningGroup = n;
unicode = 006E;
},
{
glyphname = o;
lastChange = "2020-11-17 14:20:08 +0000";
layers = (
{
anchors = (
{
name = bottom;
position = "{668, 0}";
},
{
name = ogonek;
position = "{1202, 10}";
},
{
name = top;
position = "{668, 1100}";
},
{
name = topright;
position = "{1086, 940}";
}
);
layerId = "CA54B7DC-FBBB-40FE-ACF3-AABDD76D6A7B";
paths = (
{
closed = 1;
nodes = (
"982 -16 OFFCURVE",
"1202 190 OFFCURVE",
"1202 550 CURVE SMOOTH",
"1202 910 OFFCURVE",
"982 1116 OFFCURVE",
"668 1116 CURVE SMOOTH",
"354 1116 OFFCURVE",
"134 910 OFFCURVE",
"134 550 CURVE SMOOTH",
"134 190 OFFCURVE",
"354 -16 OFFCURVE",
"668 -16 CURVE SMOOTH"
);
},
{
closed = 1;
nodes = (
"380 28 OFFCURVE",
"182 224 OFFCURVE",
"182 550 CURVE SMOOTH",
"182 876 OFFCURVE",
"380 1072 OFFCURVE",
"668 1072 CURVE SMOOTH",
"956 1072 OFFCURVE",
"1154 876 OFFCURVE",
"1154 550 CURVE SMOOTH",
"1154 224 OFFCURVE",
"956 28 OFFCURVE",
"668 28 CURVE SMOOTH"
);
}
);
width = 1336;
},
{
anchors = (
{
name = bottom;
position = "{606, 0}";
},
{
name = ogonek;
position = "{1100, 10}";
},
{
name = top;
position = "{606, 1080}";
},
{
name = topright;
position = "{996, 920}";
}
);
layerId = "1E61A082-F045-49A7-AB52-DD1B03FD9B54";
paths = (
{
closed = 1;
nodes = (
"898 -16 OFFCURVE",
"1102 186 OFFCURVE",
"1102 540 CURVE SMOOTH",
"1102 894 OFFCURVE",
"898 1096 OFFCURVE",
"606 1096 CURVE SMOOTH",
"314 1096 OFFCURVE",
"110 894 OFFCURVE",
"110 540 CURVE SMOOTH",
"110 186 OFFCURVE",
"314 -16 OFFCURVE",
"606 -16 CURVE SMOOTH"
);
},
{
closed = 1;
nodes = (
"340 22 OFFCURVE",
"158 217 OFFCURVE",
"158 540 CURVE SMOOTH",
"158 863 OFFCURVE",
"340 1058 OFFCURVE",
"606 1058 CURVE SMOOTH",
"872 1058 OFFCURVE",
"1054 863 OFFCURVE",
"1054 540 CURVE SMOOTH",
"1054 217 OFFCURVE",
"872 22 OFFCURVE",
"606 22 CURVE SMOOTH"
);
}
);
width = 1212;
},
{
anchors = (
{
name = bottom;
position = "{755, 0}";
},
{
name = ogonek;
position = "{1363, 10}";
},
{
name = top;
position = "{755, 1160}";
},
{
name = topright;
position = "{1285, 1030}";
}
);
layerId = "219068EA-2B9B-40DC-949E-B60449C01B8A";
paths = (
{
closed = 1;
nodes = (
"1145 -22 OFFCURVE",
"1438 192 OFFCURVE",
"1438 580 CURVE SMOOTH",
"1438 967 OFFCURVE",
"1145 1182 OFFCURVE",
"755 1182 CURVE SMOOTH",
"365 1182 OFFCURVE",
"72 967 OFFCURVE",
"72 580 CURVE SMOOTH",
"72 192 OFFCURVE",
"365 -22 OFFCURVE",
"755 -22 CURVE SMOOTH"
);
},
{
closed = 1;
nodes = (
"607 198 OFFCURVE",
"518 335 OFFCURVE",
"518 580 CURVE SMOOTH",
"518 821 OFFCURVE",
"607 962 OFFCURVE",
"755 962 CURVE SMOOTH",
"902 962 OFFCURVE",
"992 827 OFFCURVE",
"992 596 CURVE SMOOTH",
"992 342 OFFCURVE",
"902 198 OFFCURVE",
"755 198 CURVE SMOOTH"
);
}
);
width = 1510;
},
{
anchors = (
{
name = bottom;
position = "{691, 0}";
},
{
name = ogonek;
position = "{1243, 10}";
},
{
name = top;
position = "{691, 1140}";
},
{
name = topright;
position = "{1189, 1010}";
}
);
layerId = "0C29AA02-E021-4BD1-A2C4-87F681D64C35";
paths = (
{
closed = 1;
nodes = (
"1064 -22 OFFCURVE",
"1330 197 OFFCURVE",
"1330 569 CURVE SMOOTH",
"1330 940 OFFCURVE",
"1064 1162 OFFCURVE",
"691 1162 CURVE SMOOTH",
"318 1162 OFFCURVE",
"52 941 OFFCURVE",
"52 570 CURVE SMOOTH",
"52 198 OFFCURVE",
"318 -22 OFFCURVE",
"691 -22 CURVE SMOOTH"
);
},
{
closed = 1;
nodes = (
"563 152 OFFCURVE",
"498 297 OFFCURVE",
"498 570 CURVE SMOOTH",
"498 837 OFFCURVE",
"563 988 OFFCURVE",
"691 988 CURVE SMOOTH",
"819 988 OFFCURVE",
"884 842 OFFCURVE",
"884 585 CURVE SMOOTH",
"884 303 OFFCURVE",
"819 152 OFFCURVE",
"691 152 CURVE SMOOTH"
);
}
);
width = 1382;
}
);
leftKerningGroup = o;
rightKerningGroup = o;
unicode = 006F;
},
